Rajdhani-Regular.ufo
<glyph name="currency" format="2">
  <advance width="479"/>
  <unicode hex="00A4"/>
  <outline>
    <contour>
      <point x="215" y="192" type="line" smooth="yes"/>
      <point x="153" y="192"/>
      <point x="120" y="228"/>
      <point x="120" y="291" type="curve" smooth="yes"/>
      <point x="120" y="355" type="line" smooth="yes"/>
      <point x="120" y="417"/>
      <point x="153" y="453"/>
      <point x="215" y="453" type="curve" smooth="yes"/>
      <point x="264" y="453" type="line" smooth="yes"/>
      <point x="326" y="453"/>
      <point x="359" y="417"/>
      <point x="359" y="355" type="curve" smooth="yes"/>
      <point x="359" y="291" type="line" smooth="yes"/>
      <point x="359" y="228"/>
      <point x="326" y="192"/>
      <point x="264" y="192" type="curve" smooth="yes"/>
    </contour>
    <contour>
      <point x="387" y="206" type="line"/>
      <point x="401" y="228"/>
      <point x="409" y="256"/>
      <point x="409" y="289" type="curve" smooth="yes"/>
      <point x="409" y="358" type="line" smooth="yes"/>
      <point x="409" y="390"/>
      <point x="402" y="418"/>
      <point x="388" y="440" type="curve"/>
      <point x="439" y="490" type="line" smooth="yes"/>
      <point x="445" y="496"/>
      <point x="444" y="501"/>
      <point x="438" y="506" type="curve"/>
      <point x="422" y="523" type="line"/>
      <point x="417" y="529"/>
      <point x="412" y="530"/>
      <point x="405" y="523" type="curve" smooth="yes"/>
      <point x="355" y="474" type="line"/>
      <point x="332" y="490"/>
      <point x="302" y="498"/>
      <point x="268" y="498" type="curve" smooth="yes"/>
      <point x="211" y="498" type="line" smooth="yes"/>
      <point x="176" y="498"/>
      <point x="146" y="490"/>
      <point x="123" y="474" type="curve"/>
      <point x="73" y="523" type="line"/>
      <point x="67" y="530"/>
      <point x="62" y="529"/>
      <point x="57" y="523" type="curve"/>
      <point x="40" y="506" type="line" smooth="yes"/>
      <point x="35" y="501"/>
      <point x="34" y="496"/>
      <point x="40" y="490" type="curve" smooth="yes"/>
      <point x="91" y="440" type="line"/>
      <point x="77" y="418"/>
      <point x="70" y="391"/>
      <point x="70" y="358" type="curve" smooth="yes"/>
      <point x="70" y="289" type="line" smooth="yes"/>
      <point x="70" y="256"/>
      <point x="77" y="229"/>
      <point x="91" y="206" type="curve"/>
      <point x="40" y="156" type="line" smooth="yes"/>
      <point x="34" y="150"/>
      <point x="35" y="145"/>
      <point x="40" y="140" type="curve" smooth="yes"/>
      <point x="57" y="123" type="line" smooth="yes"/>
      <point x="62" y="118"/>
      <point x="67" y="117"/>
      <point x="73" y="123" type="curve" smooth="yes"/>
      <point x="123" y="172" type="line"/>
      <point x="146" y="156"/>
      <point x="176" y="147"/>
      <point x="211" y="147" type="curve" smooth="yes"/>
      <point x="268" y="147" type="line" smooth="yes"/>
      <point x="303" y="147"/>
      <point x="332" y="156"/>
      <point x="355" y="172" type="curve"/>
      <point x="405" y="123" type="line"/>
      <point x="412" y="117"/>
      <point x="417" y="118"/>
      <point x="422" y="123" type="curve" smooth="yes"/>
      <point x="438" y="140" type="line"/>
      <point x="444" y="145"/>
      <point x="445" y="150"/>
      <point x="438" y="156" type="curve"/>
    </contour>
  </outline>
</glyph>
<glyph name="section" format="2">
  <advance width="454"/>
  <unicode hex="00A7"/>
  <outline>
    <contour>
      <point x="256" y="0" type="line" smooth="yes"/>
      <point x="364" y="0"/>
      <point x="394" y="59"/>
      <point x="394" y="134" type="curve" smooth="yes"/>
      <point x="394" y="304" type="line" smooth="yes"/>
      <point x="394" y="375"/>
      <point x="354" y="407"/>
      <point x="291" y="419" type="curve" smooth="yes"/>
      <point x="185" y="438" type="line" smooth="yes"/>
      <point x="126" y="449"/>
      <point x="110" y="473"/>
      <point x="110" y="516" type="curve" smooth="yes"/>
      <point x="110" y="570"/>
      <point x="140" y="598"/>
      <point x="191" y="598" type="curve" smooth="yes"/>
      <point x="351" y="598" type="line" smooth="yes"/>
      <point x="360" y="598"/>
      <point x="363" y="601"/>
      <point x="363" y="608" type="curve" smooth="yes"/>
      <point x="363" y="632" type="line" smooth="yes"/>
      <point x="363" y="639"/>
      <point x="360" y="643"/>
      <point x="351" y="643" type="curve" smooth="yes"/>
      <point x="190" y="643" type="line" smooth="yes"/>
      <point x="90" y="643"/>
      <point x="60" y="585"/>
      <point x="60" y="518" type="curve" smooth="yes"/>
      <point x="60" y="345" type="line" smooth="yes"/>
      <point x="60" y="274"/>
      <point x="103" y="238"/>
      <point x="161" y="226" type="curve" smooth="yes"/>
      <point x="267" y="207" type="line" smooth="yes"/>
      <point x="316" y="198"/>
      <point x="343" y="181"/>
      <point x="343" y="134" type="curve" smooth="yes"/>
      <point x="343" y="87"/>
      <point x="331" y="45"/>
      <point x="253" y="45" type="curve" smooth="yes"/>
      <point x="78" y="45" type="line" smooth="yes"/>
      <point x="70" y="45"/>
      <point x="67" y="42"/>
      <point x="67" y="35" type="curve" smooth="yes"/>
      <point x="67" y="11" type="line" smooth="yes"/>
      <point x="67" y="4"/>
      <point x="70" y="0"/>
      <point x="78" y="0" type="curve" smooth="yes"/>
    </contour>
    <contour>
      <point x="345" y="221" type="line"/>
      <point x="328" y="235"/>
      <point x="304" y="244"/>
      <point x="276" y="249" type="curve" smooth="yes"/>
      <point x="180" y="266" type="line" smooth="yes"/>
      <point x="128" y="276"/>
      <point x="108" y="307"/>
      <point x="108" y="347" type="curve" smooth="yes"/>
      <point x="108" y="427" type="line"/>
      <point x="127" y="410"/>
      <point x="151" y="401"/>
      <point x="176" y="396" type="curve" smooth="yes"/>
      <point x="273" y="378" type="line" smooth="yes"/>
      <point x="319" y="369"/>
      <point x="345" y="351"/>
      <point x="345" y="303" type="curve" smooth="yes"/>
    </contour>
  </outline>
</glyph>
<glyph name="logicalnot" format="2">
  <advance width="509"/>
  <unicode hex="00AC"/>
  <outline>
    <contour>
      <point x="75" y="342" type="line" smooth="yes"/>
      <point x="66" y="342"/>
      <point x="64" y="339"/>
      <point x="64" y="331" type="curve" smooth="yes"/>
      <point x="64" y="313" type="line" smooth="yes"/>
      <point x="64" y="306"/>
      <point x="66" y="302"/>
      <point x="75" y="302" type="curve" smooth="yes"/>
      <point x="399" y="302" type="line"/>
      <point x="399" y="162" type="line" smooth="yes"/>
      <point x="399" y="152"/>
      <point x="402" y="150"/>
      <point x="410" y="150" type="curve" smooth="yes"/>
      <point x="433" y="150" type="line" smooth="yes"/>
      <point x="441" y="150"/>
      <point x="445" y="152"/>
      <point x="445" y="162" type="curve" smooth="yes"/>
      <point x="445" y="331" type="line" smooth="yes"/>
      <point x="445" y="339"/>
      <point x="442" y="342"/>
      <point x="434" y="342" type="curve" smooth="yes"/>
    </contour>
  </outline>
</glyph>
<glyph name="onequarter" format="2">
  <advance width="708"/>
  <unicode hex="00BC"/>
  <outline>
    <contour>
      <point x="570" y="628" type="line"/>
      <point x="576" y="635"/>
      <point x="575" y="643"/>
      <point x="567" y="643" type="curve" smooth="yes"/>
      <point x="544" y="643" type="line" smooth="yes"/>
      <point x="536" y="643"/>
      <point x="531" y="639"/>
      <point x="524" y="630" type="curve" smooth="yes"/>
      <point x="498" y="595"/>
      <point x="95" y="49"/>
      <point x="70" y="14" type="curve" smooth="yes"/>
      <point x="63" y="5"/>
      <point x="67" y="0"/>
      <point x="75" y="0" type="curve" smooth="yes"/>
      <point x="95" y="0" type="line" smooth="yes"/>
      <point x="105" y="0"/>
      <point x="110" y="3"/>
      <point x="117" y="13" type="curve" smooth="yes"/>
    </contour>
    <contour>
      <point x="576" y="0" type="line" smooth="yes"/>
      <point x="581" y="0"/>
      <point x="584" y="2"/>
      <point x="584" y="9" type="curve" smooth="yes"/>
      <point x="584" y="72" type="line"/>
      <point x="629" y="72" type="line" smooth="yes"/>
      <point x="636" y="72"/>
      <point x="638" y="76"/>
      <point x="638" y="81" type="curve" smooth="yes"/>
      <point x="638" y="100" type="line" smooth="yes"/>
      <point x="638" y="106"/>
      <point x="636" y="109"/>
      <point x="629" y="109" type="curve" smooth="yes"/>
      <point x="584" y="109" type="line"/>
      <point x="584" y="332" type="line" smooth="yes"/>
      <point x="584" y="340"/>
      <point x="580" y="343"/>
      <point x="574" y="343" type="curve" smooth="yes"/>
      <point x="536" y="343" type="line" smooth="yes"/>
      <point x="526" y="343"/>
      <point x="521" y="339"/>
      <point x="516" y="331" type="curve" smooth="yes"/>
      <point x="392" y="115" type="line"/>
      <point x="388" y="109"/>
      <point x="386" y="105"/>
      <point x="386" y="97" type="curve" smooth="yes"/>
      <point x="386" y="83" type="line" smooth="yes"/>
      <point x="386" y="76"/>
      <point x="389" y="72"/>
      <point x="397" y="72" type="curve" smooth="yes"/>
      <point x="545" y="72" type="line"/>
      <point x="545" y="9" type="line" smooth="yes"/>
      <point x="545" y="2"/>
      <point x="548" y="0"/>
      <point x="554" y="0" type="curve" smooth="yes"/>
    </contour>
    <contour>
      <point x="545" y="312" type="line"/>
      <point x="545" y="109" type="line"/>
      <point x="428" y="109" type="line"/>
    </contour>
    <contour>
      <point x="106" y="600" type="line"/>
      <point x="106" y="309" type="line" smooth="yes"/>
      <point x="106" y="302"/>
      <point x="109" y="300"/>
      <point x="115" y="300" type="curve" smooth="yes"/>
      <point x="139" y="300" type="line" smooth="yes"/>
      <point x="144" y="300"/>
      <point x="147" y="302"/>
      <point x="147" y="309" type="curve" smooth="yes"/>
      <point x="147" y="634" type="line" smooth="yes"/>
      <point x="147" y="641"/>
      <point x="144" y="643"/>
      <point x="139" y="643" type="curve" smooth="yes"/>
      <point x="117" y="643" type="line" smooth="yes"/>
      <point x="109" y="643"/>
      <point x="105" y="640"/>
      <point x="100" y="638" type="curve"/>
      <point x="42" y="606" type="line"/>
      <point x="34" y="601"/>
      <point x="32" y="597"/>
      <point x="32" y="588" type="curve" smooth="yes"/>
      <point x="32" y="572" type="line" smooth="yes"/>
      <point x="32" y="563"/>
      <point x="37" y="560"/>
      <point x="47" y="566" type="curve" smooth="yes"/>
    </contour>
  </outline>
</glyph>
<glyph name="onehalf" format="2">
  <advance width="730"/>
  <unicode hex="00BD"/>
  <outline>
    <contour>
      <point x="570" y="628" type="line"/>
      <point x="576" y="635"/>
      <point x="575" y="643"/>
      <point x="567" y="643" type="curve" smooth="yes"/>
      <point x="544" y="643" type="line" smooth="yes"/>
      <point x="536" y="643"/>
      <point x="531" y="639"/>
      <point x="524" y="630" type="curve" smooth="yes"/>
      <point x="498" y="595"/>
      <point x="95" y="49"/>
      <point x="70" y="14" type="curve" smooth="yes"/>
      <point x="63" y="5"/>
      <point x="67" y="0"/>
      <point x="75" y="0" type="curve" smooth="yes"/>
      <point x="95" y="0" type="line" smooth="yes"/>
      <point x="105" y="0"/>
      <point x="110" y="3"/>
      <point x="117" y="13" type="curve" smooth="yes"/>
    </contour>
    <contour>
      <point x="431" y="9" type="line" smooth="yes"/>
      <point x="431" y="3"/>
      <point x="433" y="0"/>
      <point x="440" y="0" type="curve" smooth="yes"/>
      <point x="649" y="0" type="line" smooth="yes"/>
      <point x="657" y="0"/>
      <point x="659" y="3"/>
      <point x="659" y="9" type="curve" smooth="yes"/>
      <point x="659" y="28" type="line" smooth="yes"/>
      <point x="659" y="34"/>
      <point x="657" y="37"/>
      <point x="649" y="37" type="curve" smooth="yes"/>
      <point x="474" y="37" type="line"/>
      <point x="474" y="41" type="line" smooth="yes"/>
      <point x="474" y="57"/>
      <point x="488" y="68"/>
      <point x="523" y="93" type="curve" smooth="yes"/>
      <point x="601" y="148" type="line" smooth="yes"/>
      <point x="638" y="174"/>
      <point x="654" y="195"/>
      <point x="654" y="244" type="curve" smooth="yes"/>
      <point x="654" y="254" type="line" smooth="yes"/>
      <point x="654" y="311"/>
      <point x="619" y="343"/>
      <point x="547" y="343" type="curve" smooth="yes"/>
      <point x="535" y="343" type="line" smooth="yes"/>
      <point x="462" y="343"/>
      <point x="429" y="311"/>
      <point x="429" y="251" type="curve" smooth="yes"/>
      <point x="429" y="238" type="line" smooth="yes"/>
      <point x="429" y="231"/>
      <point x="432" y="229"/>
      <point x="438" y="229" type="curve" smooth="yes"/>
      <point x="462" y="229" type="line" smooth="yes"/>
      <point x="468" y="229"/>
      <point x="472" y="231"/>
      <point x="472" y="238" type="curve" smooth="yes"/>
      <point x="472" y="248" type="line" smooth="yes"/>
      <point x="472" y="286"/>
      <point x="487" y="306"/>
      <point x="540" y="306" type="curve" smooth="yes"/>
      <point x="545" y="306" type="line" smooth="yes"/>
      <point x="597" y="306"/>
      <point x="613" y="286"/>
      <point x="613" y="251" type="curve" smooth="yes"/>
      <point x="613" y="245" type="line" smooth="yes"/>
      <point x="613" y="213"/>
      <point x="605" y="197"/>
      <point x="573" y="175" type="curve" smooth="yes"/>
      <point x="494" y="120" type="line" smooth="yes"/>
      <point x="451" y="91"/>
      <point x="431" y="74"/>
      <point x="431" y="35" type="curve" smooth="yes"/>
    </contour>
    <contour>
      <point x="106" y="600" type="line"/>
      <point x="106" y="309" type="line" smooth="yes"/>
      <point x="106" y="302"/>
      <point x="109" y="300"/>
      <point x="115" y="300" type="curve" smooth="yes"/>
      <point x="139" y="300" type="line" smooth="yes"/>
      <point x="144" y="300"/>
      <point x="147" y="302"/>
      <point x="147" y="309" type="curve" smooth="yes"/>
      <point x="147" y="634" type="line" smooth="yes"/>
      <point x="147" y="641"/>
      <point x="144" y="643"/>
      <point x="139" y="643" type="curve" smooth="yes"/>
      <point x="117" y="643" type="line" smooth="yes"/>
      <point x="109" y="643"/>
      <point x="105" y="640"/>
      <point x="100" y="638" type="curve"/>
      <point x="42" y="606" type="line"/>
      <point x="34" y="601"/>
      <point x="32" y="597"/>
      <point x="32" y="588" type="curve" smooth="yes"/>
      <point x="32" y="572" type="line" smooth="yes"/>
      <point x="32" y="563"/>
      <point x="37" y="560"/>
      <point x="47" y="566" type="curve" smooth="yes"/>
    </contour>
  </outline>
</glyph>
<glyph name="threequarters" format="2">
  <advance width="791"/>
  <unicode hex="00BE"/>
  <outline>
    <contour>
      <point x="652" y="628" type="line"/>
      <point x="658" y="635"/>
      <point x="656" y="643"/>
      <point x="648" y="643" type="curve" smooth="yes"/>
      <point x="626" y="643" type="line" smooth="yes"/>
      <point x="617" y="643"/>
      <point x="612" y="639"/>
      <point x="605" y="630" type="curve" smooth="yes"/>
      <point x="579" y="595"/>
      <point x="177" y="49"/>
      <point x="151" y="14" type="curve" smooth="yes"/>
      <point x="144" y="5"/>
      <point x="148" y="0"/>
      <point x="156" y="0" type="curve" smooth="yes"/>
      <point x="177" y="0" type="line" smooth="yes"/>
      <point x="186" y="0"/>
      <point x="191" y="3"/>
      <point x="198" y="13" type="curve" smooth="yes"/>
    </contour>
    <contour>
      <point x="654" y="0" type="line" smooth="yes"/>
      <point x="659" y="0"/>
      <point x="662" y="2"/>
      <point x="662" y="9" type="curve" smooth="yes"/>
      <point x="662" y="72" type="line"/>
      <point x="707" y="72" type="line" smooth="yes"/>
      <point x="714" y="72"/>
      <point x="716" y="76"/>
      <point x="716" y="81" type="curve" smooth="yes"/>
      <point x="716" y="100" type="line" smooth="yes"/>
      <point x="716" y="106"/>
      <point x="714" y="109"/>
      <point x="707" y="109" type="curve" smooth="yes"/>
      <point x="662" y="109" type="line"/>
      <point x="662" y="332" type="line" smooth="yes"/>
      <point x="662" y="340"/>
      <point x="658" y="343"/>
      <point x="652" y="343" type="curve" smooth="yes"/>
      <point x="614" y="343" type="line" smooth="yes"/>
      <point x="604" y="343"/>
      <point x="599" y="339"/>
      <point x="594" y="331" type="curve" smooth="yes"/>
      <point x="470" y="115" type="line"/>
      <point x="466" y="109"/>
      <point x="464" y="105"/>
      <point x="464" y="97" type="curve" smooth="yes"/>
      <point x="464" y="83" type="line" smooth="yes"/>
      <point x="464" y="76"/>
      <point x="467" y="72"/>
      <point x="475" y="72" type="curve" smooth="yes"/>
      <point x="623" y="72" type="line"/>
      <point x="623" y="9" type="line" smooth="yes"/>
      <point x="623" y="2"/>
      <point x="626" y="0"/>
      <point x="632" y="0" type="curve" smooth="yes"/>
    </contour>
    <contour>
      <point x="623" y="312" type="line"/>
      <point x="623" y="109" type="line"/>
      <point x="506" y="109" type="line"/>
    </contour>
    <contour>
      <point x="167" y="490" type="line" smooth="yes"/>
      <point x="160" y="490"/>
      <point x="157" y="487"/>
      <point x="157" y="482" type="curve" smooth="yes"/>
      <point x="157" y="462" type="line" smooth="yes"/>
      <point x="157" y="457"/>
      <point x="160" y="454"/>
      <point x="167" y="454" type="curve" smooth="yes"/>
      <point x="189" y="454" type="line" smooth="yes"/>
      <point x="231" y="454"/>
      <point x="254" y="441"/>
      <point x="254" y="403" type="curve" smooth="yes"/>
      <point x="254" y="397" type="line" smooth="yes"/>
      <point x="254" y="352"/>
      <point x="232" y="336"/>
      <point x="186" y="336" type="curve" smooth="yes"/>
      <point x="180" y="336" type="line" smooth="yes"/>
      <point x="145" y="336"/>
      <point x="106" y="342"/>
      <point x="106" y="395" type="curve" smooth="yes"/>
      <point x="106" y="411" type="line" smooth="yes"/>
      <point x="106" y="418"/>
      <point x="103" y="421"/>
      <point x="97" y="421" type="curve" smooth="yes"/>
      <point x="74" y="421" type="line" smooth="yes"/>
      <point x="69" y="421"/>
      <point x="66" y="418"/>
      <point x="66" y="411" type="curve" smooth="yes"/>
      <point x="66" y="392" type="line" smooth="yes"/>
      <point x="66" y="319"/>
      <point x="118" y="300"/>
      <point x="176" y="300" type="curve" smooth="yes"/>
      <point x="190" y="300" type="line" smooth="yes"/>
      <point x="263" y="300"/>
      <point x="294" y="332"/>
      <point x="294" y="395" type="curve" smooth="yes"/>
      <point x="294" y="406" type="line" smooth="yes"/>
      <point x="294" y="440"/>
      <point x="280" y="466"/>
      <point x="244" y="472" type="curve"/>
      <point x="282" y="482"/>
      <point x="294" y="511"/>
      <point x="294" y="539" type="curve" smooth="yes"/>
      <point x="294" y="551" type="line" smooth="yes"/>
      <point x="294" y="608"/>
      <point x="263" y="643"/>
      <point x="188" y="643" type="curve" smooth="yes"/>
      <point x="174" y="643" type="line" smooth="yes"/>
      <point x="98" y="643"/>
      <point x="66" y="611"/>
      <point x="66" y="551" type="curve" smooth="yes"/>
      <point x="66" y="530" type="line" smooth="yes"/>
      <point x="66" y="522"/>
      <point x="69" y="520"/>
      <point x="74" y="520" type="curve" smooth="yes"/>
      <point x="97" y="520" type="line" smooth="yes"/>
      <point x="103" y="520"/>
      <point x="106" y="522"/>
      <point x="106" y="530" type="curve" smooth="yes"/>
      <point x="106" y="548" type="line" smooth="yes"/>
      <point x="106" y="588"/>
      <point x="120" y="607"/>
      <point x="178" y="607" type="curve" smooth="yes"/>
      <point x="184" y="607" type="line" smooth="yes"/>
      <point x="242" y="607"/>
      <point x="254" y="584"/>
      <point x="254" y="548" type="curve" smooth="yes"/>
      <point x="254" y="541" type="line" smooth="yes"/>
      <point x="254" y="504"/>
      <point x="239" y="490"/>
      <point x="189" y="490" type="curve" smooth="yes"/>
    </contour>
  </outline>
</glyph>
<glyph name="multiply" format="2">
  <advance width="493"/>
  <unicode hex="00D7"/>
  <outline>
    <contour>
      <point x="279" y="321" type="line"/>
      <point x="392" y="434" type="line" smooth="yes"/>
      <point x="399" y="441"/>
      <point x="398" y="446"/>
      <point x="392" y="451" type="curve"/>
      <point x="376" y="468" type="line" smooth="yes"/>
      <point x="371" y="473"/>
      <point x="366" y="474"/>
      <point x="359" y="468" type="curve"/>
      <point x="246" y="355" type="line"/>
      <point x="132" y="468" type="line" smooth="yes"/>
      <point x="126" y="474"/>
      <point x="121" y="473"/>
      <point x="116" y="468" type="curve" smooth="yes"/>
      <point x="99" y="451" type="line" smooth="yes"/>
      <point x="94" y="446"/>
      <point x="93" y="441"/>
      <point x="99" y="434" type="curve"/>
      <point x="212" y="321" type="line"/>
      <point x="99" y="208" type="line" smooth="yes"/>
      <point x="92" y="201"/>
      <point x="93" y="196"/>
      <point x="99" y="191" type="curve"/>
      <point x="116" y="174" type="line" smooth="yes"/>
      <point x="121" y="169"/>
      <point x="126" y="168"/>
      <point x="132" y="174" type="curve" smooth="yes"/>
      <point x="246" y="288" type="line"/>
      <point x="359" y="174" type="line"/>
      <point x="366" y="168"/>
      <point x="371" y="169"/>
      <point x="376" y="174" type="curve" smooth="yes"/>
      <point x="393" y="191" type="line" smooth="yes"/>
      <point x="398" y="196"/>
      <point x="399" y="201"/>
      <point x="393" y="208" type="curve"/>
    </contour>
  </outline>
</glyph>
<glyph name="Oslash" format="2">
  <advance width="559"/>
  <unicode hex="00D8"/>
  <outline>
    <contour>
      <point x="431" y="499" type="line"/>
      <point x="431" y="144" type="line" smooth="yes"/>
      <point x="431" y="81"/>
      <point x="399" y="45"/>
      <point x="337" y="45" type="curve" smooth="yes"/>
      <point x="222" y="45" type="line" smooth="yes"/>
      <point x="180" y="45"/>
      <point x="151" y="62"/>
      <point x="137" y="92" type="curve"/>
      <point x="431" y="501" type="line"/>
    </contour>
    <contour>
      <point x="127" y="144" type="line"/>
      <point x="127" y="499" type="line" smooth="yes"/>
      <point x="127" y="562"/>
      <point x="160" y="598"/>
      <point x="222" y="598" type="curve" smooth="yes"/>
      <point x="337" y="598" type="line" smooth="yes"/>
      <point x="379" y="598"/>
      <point x="408" y="581"/>
      <point x="421" y="551" type="curve"/>
      <point x="127" y="141" type="line"/>
    </contour>
    <contour>
      <point x="496" y="635" type="line" smooth="yes"/>
      <point x="490" y="639"/>
      <point x="484" y="638"/>
      <point x="479" y="631" type="curve" smooth="yes"/>
      <point x="453" y="595" type="line"/>
      <point x="429" y="626"/>
      <point x="390" y="643"/>
      <point x="342" y="643" type="curve" smooth="yes"/>
      <point x="217" y="643" type="line" smooth="yes"/>
      <point x="131" y="643"/>
      <point x="77" y="589"/>
      <point x="77" y="501" type="curve" smooth="yes"/>
      <point x="77" y="142" type="line" smooth="yes"/>
      <point x="77" y="121"/>
      <point x="80" y="102"/>
      <point x="86" y="85" type="curve"/>
      <point x="49" y="33" type="line" smooth="yes"/>
      <point x="44" y="26"/>
      <point x="45" y="20"/>
      <point x="50" y="16" type="curve"/>
      <point x="62" y="8" type="line" smooth="yes"/>
      <point x="68" y="4"/>
      <point x="74" y="5"/>
      <point x="79" y="11" type="curve"/>
      <point x="106" y="48" type="line"/>
      <point x="130" y="17"/>
      <point x="168" y="0"/>
      <point x="217" y="0" type="curve" smooth="yes"/>
      <point x="342" y="0" type="line" smooth="yes"/>
      <point x="427" y="0"/>
      <point x="482" y="54"/>
      <point x="482" y="142" type="curve" smooth="yes"/>
      <point x="482" y="501" type="line" smooth="yes"/>
      <point x="482" y="523"/>
      <point x="479" y="542"/>
      <point x="473" y="559" type="curve"/>
      <point x="509" y="610" type="line" smooth="yes"/>
      <point x="514" y="617"/>
      <point x="514" y="622"/>
      <point x="508" y="627" type="curve"/>
    </contour>
  </outline>
</glyph>
<glyph name="oslash" format="2">
  <advance width="521"/>
  <unicode hex="00F8"/>
  <outline>
    <contour>
      <point x="393" y="144" type="line" smooth="yes"/>
      <point x="393" y="81"/>
      <point x="361" y="45"/>
      <point x="299" y="45" type="curve" smooth="yes"/>
      <point x="222" y="45" type="line" smooth="yes"/>
      <point x="176" y="45"/>
      <point x="146" y="65"/>
      <point x="134" y="101" type="curve"/>
      <point x="393" y="361" type="line"/>
    </contour>
    <contour>
      <point x="127" y="366" type="line" smooth="yes"/>
      <point x="127" y="429"/>
      <point x="160" y="465"/>
      <point x="222" y="465" type="curve" smooth="yes"/>
      <point x="299" y="465" type="line" smooth="yes"/>
      <point x="345" y="465"/>
      <point x="375" y="445"/>
      <point x="387" y="409" type="curve"/>
      <point x="127" y="149" type="line"/>
    </contour>
    <contour>
      <point x="479" y="486" type="line" smooth="yes"/>
      <point x="475" y="490"/>
      <point x="469" y="491"/>
      <point x="463" y="485" type="curve" smooth="yes"/>
      <point x="425" y="447" type="line"/>
      <point x="402" y="487"/>
      <point x="359" y="510"/>
      <point x="303" y="510" type="curve" smooth="yes"/>
      <point x="218" y="510" type="line" smooth="yes"/>
      <point x="132" y="510"/>
      <point x="77" y="456"/>
      <point x="77" y="368" type="curve" smooth="yes"/>
      <point x="77" y="142" type="line" smooth="yes"/>
      <point x="77" y="128"/>
      <point x="78" y="115"/>
      <point x="81" y="103" type="curve"/>
      <point x="30" y="52" type="line"/>
      <point x="25" y="45"/>
      <point x="25" y="41"/>
      <point x="31" y="36" type="curve"/>
      <point x="42" y="25" type="line"/>
      <point x="46" y="20"/>
      <point x="51" y="19"/>
      <point x="58" y="25" type="curve"/>
      <point x="96" y="63" type="line"/>
      <point x="119" y="23"/>
      <point x="162" y="0"/>
      <point x="218" y="0" type="curve" smooth="yes"/>
      <point x="303" y="0" type="line" smooth="yes"/>
      <point x="389" y="0"/>
      <point x="444" y="54"/>
      <point x="444" y="142" type="curve" smooth="yes"/>
      <point x="444" y="368" type="line" smooth="yes"/>
      <point x="444" y="382"/>
      <point x="443" y="395"/>
      <point x="440" y="408" type="curve"/>
      <point x="490" y="458" type="line"/>
      <point x="496" y="465"/>
      <point x="496" y="469"/>
      <point x="491" y="474" type="curve" smooth="yes"/>
    </contour>
  </outline>
</glyph>
<glyph name="Iogonek" format="2">
  <advance width="230"/>
  <unicode hex="012E"/>
  <outline>
    <contour>
      <point x="100" y="643" type="line" smooth="yes"/>
      <point x="94" y="643"/>
      <point x="90" y="640"/>
      <point x="90" y="631" type="curve" smooth="yes"/>
      <point x="90" y="12" type="line" smooth="yes"/>
      <point x="90" y="9"/>
      <point x="90" y="7"/>
      <point x="91" y="5" type="curve"/>
      <point x="37" y="-66" type="line" smooth="yes"/>
      <point x="22" y="-86"/>
      <point x="29" y="-106"/>
      <point x="62" y="-106" type="curve" smooth="yes"/>
      <point x="102" y="-106"/>
      <point x="136" y="-96"/>
      <point x="136" y="-83" type="curve" smooth="yes"/>
      <point x="136" y="-73"/>
      <point x="131" y="-70"/>
      <point x="108" y="-70" type="curve" smooth="yes"/>
      <point x="70" y="-70" type="line"/>
      <point x="122" y="0" type="line"/>
      <point x="129" y="0" type="line" smooth="yes"/>
      <point x="136" y="0"/>
      <point x="140" y="3"/>
      <point x="140" y="12" type="curve" smooth="yes"/>
      <point x="140" y="631" type="line" smooth="yes"/>
      <point x="140" y="640"/>
      <point x="136" y="643"/>
      <point x="129" y="643" type="curve" smooth="yes"/>
    </contour>
  </outline>
</glyph>
<glyph name="ring" format="2">
  <advance width="297"/>
  <unicode hex="02DA"/>
  <outline>
    <contour>
      <point x="52" y="619" type="line" smooth="yes"/>
      <point x="52" y="573"/>
      <point x="75" y="554"/>
      <point x="120" y="554" type="curve" smooth="yes"/>
      <point x="144" y="554" type="line" smooth="yes"/>
      <point x="189" y="554"/>
      <point x="214" y="573"/>
      <point x="214" y="619" type="curve" smooth="yes"/>
      <point x="214" y="666" type="line" smooth="yes"/>
      <point x="214" y="712"/>
      <point x="189" y="730"/>
      <point x="144" y="730" type="curve" smooth="yes"/>
      <point x="120" y="730" type="line" smooth="yes"/>
      <point x="75" y="730"/>
      <point x="52" y="712"/>
      <point x="52" y="666" type="curve" smooth="yes"/>
    </contour>
    <contour>
      <point x="80" y="661" type="line" smooth="yes"/>
      <point x="80" y="694"/>
      <point x="93" y="703"/>
      <point x="125" y="703" type="curve" smooth="yes"/>
      <point x="139" y="703" type="line" smooth="yes"/>
      <point x="172" y="703"/>
      <point x="185" y="694"/>
      <point x="185" y="661" type="curve" smooth="yes"/>
      <point x="185" y="623" type="line" smooth="yes"/>
      <point x="185" y="590"/>
      <point x="172" y="580"/>
      <point x="139" y="580" type="curve" smooth="yes"/>
      <point x="125" y="580" type="line" smooth="yes"/>
      <point x="93" y="580"/>
      <point x="80" y="590"/>
      <point x="80" y="623" type="curve" smooth="yes"/>
    </contour>
  </outline>
</glyph>
<glyph name="dvAA" format="2">
  <advance width="828"/>
  <unicode hex="0906"/>
  <outline>
    <contour>
      <point x="478" y="623" type="line" smooth="yes"/>
      <point x="465" y="623"/>
      <point x="456" y="612"/>
      <point x="456" y="599" type="curve" smooth="yes"/>
      <point x="456" y="300" type="line" smooth="yes"/>
      <point x="456" y="295"/>
      <point x="454" y="291"/>
      <point x="446" y="291" type="curve" smooth="yes"/>
      <point x="299" y="291" type="line"/>
      <point x="288" y="312"/>
      <point x="271" y="328"/>
      <point x="247" y="337" type="curve"/>
      <point x="247" y="341" type="line"/>
      <point x="291" y="358"/>
      <point x="314" y="399"/>
      <point x="314" y="455" type="curve" smooth="yes"/>
      <point x="314" y="482" type="line" smooth="yes"/>
      <point x="314" y="571"/>
      <point x="262" y="623"/>
      <point x="173" y="623" type="curve" smooth="yes"/>
      <point x="81" y="623" type="line" smooth="yes"/>
      <point x="72" y="623"/>
      <point x="69" y="619"/>
      <point x="69" y="612" type="curve" smooth="yes"/>
      <point x="69" y="593" type="line" smooth="yes"/>
      <point x="69" y="585"/>
      <point x="72" y="581"/>
      <point x="81" y="581" type="curve" smooth="yes"/>
      <point x="170" y="581" type="line" smooth="yes"/>
      <point x="233" y="581"/>
      <point x="266" y="545"/>
      <point x="266" y="482" type="curve" smooth="yes"/>
      <point x="266" y="457" type="line" smooth="yes"/>
      <point x="266" y="394"/>
      <point x="233" y="360"/>
      <point x="170" y="360" type="curve" smooth="yes"/>
      <point x="107" y="360" type="line" smooth="yes"/>
      <point x="99" y="360"/>
      <point x="95" y="356"/>
      <point x="95" y="349" type="curve" smooth="yes"/>
      <point x="95" y="328" type="line" smooth="yes"/>
      <point x="95" y="320"/>
      <point x="98" y="316"/>
      <point x="107" y="316" type="curve" smooth="yes"/>
      <point x="170" y="316" type="line" smooth="yes"/>
      <point x="233" y="316"/>
      <point x="266" y="283"/>
      <point x="266" y="220" type="curve" smooth="yes"/>
      <point x="266" y="182" type="line" smooth="yes"/>
      <point x="266" y="119"/>
      <point x="233" y="83"/>
      <point x="170" y="83" type="curve" smooth="yes"/>
      <point x="46" y="83" type="line" smooth="yes"/>
      <point x="37" y="83"/>
      <point x="34" y="79"/>
      <point x="34" y="72" type="curve" smooth="yes"/>
      <point x="34" y="50" type="line" smooth="yes"/>
      <point x="34" y="43"/>
      <point x="37" y="39"/>
      <point x="46" y="39" type="curve" smooth="yes"/>
      <point x="172" y="39" type="line" smooth="yes"/>
      <point x="259" y="39"/>
      <point x="314" y="93"/>
      <point x="314" y="182" type="curve" smooth="yes"/>
      <point x="314" y="224" type="line" smooth="yes"/>
      <point x="314" y="232"/>
      <point x="313" y="240"/>
      <point x="312" y="248" type="curve"/>
      <point x="446" y="248" type="line" smooth="yes"/>
      <point x="454" y="248"/>
      <point x="456" y="244"/>
      <point x="456" y="239" type="curve" smooth="yes"/>
      <point x="456" y="12" type="line" smooth="yes"/>
      <point x="456" y="3"/>
      <point x="460" y="0"/>
      <point x="467" y="0" type="curve" smooth="yes"/>
      <point x="493" y="0" type="line" smooth="yes"/>
      <point x="500" y="0"/>
      <point x="504" y="3"/>
      <point x="504" y="12" type="curve" smooth="yes"/>
      <point x="504" y="572" type="line" smooth="yes"/>
      <point x="504" y="578"/>
      <point x="507" y="581"/>
      <point x="514" y="581" type="curve" smooth="yes"/>
      <point x="678" y="581" type="line" smooth="yes"/>
      <point x="686" y="581"/>
      <point x="688" y="578"/>
      <point x="688" y="572" type="curve" smooth="yes"/>
      <point x="688" y="12" type="line" smooth="yes"/>
      <point x="688" y="3"/>
      <point x="692" y="0"/>
      <point x="699" y="0" type="curve" smooth="yes"/>
      <point x="725" y="0" type="line" smooth="yes"/>
      <point x="732" y="0"/>
      <point x="736" y="3"/>
      <point x="736" y="12" type="curve" smooth="yes"/>
      <point x="736" y="572" type="line" smooth="yes"/>
      <point x="736" y="578"/>
      <point x="739" y="581"/>
      <point x="746" y="581" type="curve" smooth="yes"/>
      <point x="830" y="581" type="line" smooth="yes"/>
      <point x="839" y="581"/>
      <point x="842" y="585"/>
      <point x="842" y="593" type="curve" smooth="yes"/>
      <point x="842" y="612" type="line" smooth="yes"/>
      <point x="842" y="619"/>
      <point x="839" y="623"/>
      <point x="830" y="623" type="curve" smooth="yes"/>
    </contour>
  </outline>
</glyph>
<glyph name="dvEcandra" format="2">
  <advance width="521"/>
  <unicode hex="090D"/>
  <outline>
    <contour>
      <point x="309" y="725" type="line" smooth="yes"/>
      <point x="389" y="725"/>
      <point x="429" y="765"/>
      <point x="429" y="847" type="curve" smooth="yes"/>
      <point x="429" y="854" type="line" smooth="yes"/>
      <point x="429" y="864"/>
      <point x="425" y="868"/>
      <point x="416" y="868" type="curve" smooth="yes"/>
      <point x="395" y="868" type="line" smooth="yes"/>
      <point x="388" y="868"/>
      <point x="383" y="865"/>
      <point x="383" y="854" type="curve" smooth="yes"/>
      <point x="383" y="848" type="line" smooth="yes"/>
      <point x="383" y="789"/>
      <point x="363" y="767"/>
      <point x="305" y="767" type="curve" smooth="yes"/>
      <point x="243" y="767" type="line" smooth="yes"/>
      <point x="185" y="767"/>
      <point x="165" y="789"/>
      <point x="165" y="848" type="curve" smooth="yes"/>
      <point x="165" y="854" type="line" smooth="yes"/>
      <point x="165" y="865"/>
      <point x="160" y="868"/>
      <point x="153" y="868" type="curve" smooth="yes"/>
      <point x="131" y="868" type="line" smooth="yes"/>
      <point x="123" y="868"/>
      <point x="119" y="864"/>
      <point x="119" y="854" type="curve" smooth="yes"/>
      <point x="119" y="847" type="line" smooth="yes"/>
      <point x="119" y="765"/>
      <point x="158" y="725"/>
      <point x="239" y="725" type="curve" smooth="yes"/>
    </contour>
    <contour>
      <point x="-2" y="623" type="line" smooth="yes"/>
      <point x="-11" y="623"/>
      <point x="-14" y="619"/>
      <point x="-14" y="612" type="curve" smooth="yes"/>
      <point x="-14" y="593" type="line" smooth="yes"/>
      <point x="-14" y="585"/>
      <point x="-11" y="581"/>
      <point x="-2" y="581" type="curve" smooth="yes"/>
      <point x="82" y="581" type="line" smooth="yes"/>
      <point x="89" y="581"/>
      <point x="92" y="578"/>
      <point x="92" y="572" type="curve" smooth="yes"/>
      <point x="92" y="180" type="line" smooth="yes"/>
      <point x="92" y="91"/>
      <point x="148" y="31"/>
      <point x="239" y="31" type="curve" smooth="yes"/>
      <point x="417" y="31" type="line" smooth="yes"/>
      <point x="426" y="31"/>
      <point x="429" y="35"/>
      <point x="429" y="43" type="curve" smooth="yes"/>
      <point x="429" y="64" type="line" smooth="yes"/>
      <point x="429" y="71"/>
      <point x="426" y="76"/>
      <point x="417" y="76" type="curve" smooth="yes"/>
      <point x="245" y="76" type="line" smooth="yes"/>
      <point x="176" y="76"/>
      <point x="139" y="115"/>
      <point x="139" y="181" type="curve" smooth="yes"/>
      <point x="139" y="572" type="line" smooth="yes"/>
      <point x="139" y="578"/>
      <point x="142" y="581"/>
      <point x="149" y="581" type="curve" smooth="yes"/>
      <point x="399" y="581" type="line" smooth="yes"/>
      <point x="406" y="581"/>
      <point x="408" y="578"/>
      <point x="408" y="572" type="curve" smooth="yes"/>
      <point x="408" y="423" type="line" smooth="yes"/>
      <point x="408" y="349"/>
      <point x="369" y="329"/>
      <point x="319" y="329" type="curve" smooth="yes"/>
      <point x="279" y="329" type="line" smooth="yes"/>
      <point x="270" y="329"/>
      <point x="267" y="325"/>
      <point x="267" y="318" type="curve" smooth="yes"/>
      <point x="267" y="297" type="line" smooth="yes"/>
      <point x="267" y="289"/>
      <point x="270" y="285"/>
      <point x="279" y="285" type="curve" smooth="yes"/>
      <point x="322" y="285" type="line" smooth="yes"/>
      <point x="401" y="285"/>
      <point x="456" y="326"/>
      <point x="456" y="423" type="curve" smooth="yes"/>
      <point x="456" y="572" type="line" smooth="yes"/>
      <point x="456" y="578"/>
      <point x="459" y="581"/>
      <point x="466" y="581" type="curve" smooth="yes"/>
      <point x="528" y="581" type="line" smooth="yes"/>
      <point x="536" y="581"/>
      <point x="540" y="585"/>
      <point x="540" y="593" type="curve" smooth="yes"/>
      <point x="540" y="612" type="line" smooth="yes"/>
      <point x="540" y="619"/>
      <point x="536" y="623"/>
      <point x="528" y="623" type="curve" smooth="yes"/>
    </contour>
  </outline>
</glyph>
<glyph name="dvAI" format="2">
  <advance width="526"/>
  <unicode hex="0910"/>
  <outline>
    <contour>
      <point x="468" y="623" type="line" smooth="yes"/>
      <point x="455" y="623"/>
      <point x="451" y="626"/>
      <point x="444" y="637" type="curve" smooth="yes"/>
      <point x="296" y="862" type="line" smooth="yes"/>
      <point x="291" y="869"/>
      <point x="287" y="872"/>
      <point x="278" y="872" type="curve" smooth="yes"/>
      <point x="251" y="872" type="line" smooth="yes"/>
      <point x="245" y="872"/>
      <point x="241" y="868"/>
      <point x="241" y="863" type="curve" smooth="yes"/>
      <point x="241" y="860"/>
      <point x="242" y="857"/>
      <point x="244" y="854" type="curve" smooth="yes"/>
      <point x="305" y="764" type="line" smooth="yes"/>
      <point x="346" y="705"/>
      <point x="387" y="653"/>
      <point x="412" y="623" type="curve"/>
      <point x="-2" y="623" type="line" smooth="yes"/>
      <point x="-11" y="623"/>
      <point x="-14" y="619"/>
      <point x="-14" y="612" type="curve" smooth="yes"/>
      <point x="-14" y="593" type="line" smooth="yes"/>
      <point x="-14" y="585"/>
      <point x="-11" y="581"/>
      <point x="-2" y="581" type="curve" smooth="yes"/>
      <point x="82" y="581" type="line" smooth="yes"/>
      <point x="89" y="581"/>
      <point x="92" y="578"/>
      <point x="92" y="572" type="curve" smooth="yes"/>
      <point x="92" y="180" type="line" smooth="yes"/>
      <point x="92" y="91"/>
      <point x="148" y="31"/>
      <point x="239" y="31" type="curve" smooth="yes"/>
      <point x="417" y="31" type="line" smooth="yes"/>
      <point x="426" y="31"/>
      <point x="429" y="35"/>
      <point x="429" y="43" type="curve" smooth="yes"/>
      <point x="429" y="64" type="line" smooth="yes"/>
      <point x="429" y="71"/>
      <point x="426" y="76"/>
      <point x="417" y="76" type="curve" smooth="yes"/>
      <point x="245" y="76" type="line" smooth="yes"/>
      <point x="176" y="76"/>
      <point x="139" y="115"/>
      <point x="139" y="181" type="curve" smooth="yes"/>
      <point x="139" y="572" type="line" smooth="yes"/>
      <point x="139" y="578"/>
      <point x="142" y="581"/>
      <point x="149" y="581" type="curve" smooth="yes"/>
      <point x="399" y="581" type="line" smooth="yes"/>
      <point x="406" y="581"/>
      <point x="408" y="578"/>
      <point x="408" y="572" type="curve" smooth="yes"/>
      <point x="408" y="423" type="line" smooth="yes"/>
      <point x="408" y="349"/>
      <point x="369" y="329"/>
      <point x="319" y="329" type="curve" smooth="yes"/>
      <point x="279" y="329" type="line" smooth="yes"/>
      <point x="270" y="329"/>
      <point x="267" y="325"/>
      <point x="267" y="318" type="curve" smooth="yes"/>
      <point x="267" y="297" type="line" smooth="yes"/>
      <point x="267" y="289"/>
      <point x="270" y="285"/>
      <point x="279" y="285" type="curve" smooth="yes"/>
      <point x="322" y="285" type="line" smooth="yes"/>
      <point x="401" y="285"/>
      <point x="456" y="326"/>
      <point x="456" y="423" type="curve" smooth="yes"/>
      <point x="456" y="572" type="line" smooth="yes"/>
      <point x="456" y="578"/>
      <point x="459" y="581"/>
      <point x="466" y="581" type="curve" smooth="yes"/>
      <point x="528" y="581" type="line" smooth="yes"/>
      <point x="536" y="581"/>
      <point x="540" y="585"/>
      <point x="540" y="593" type="curve" smooth="yes"/>
      <point x="540" y="612" type="line" smooth="yes"/>
      <point x="540" y="619"/>
      <point x="536" y="623"/>
      <point x="528" y="623" type="curve" smooth="yes"/>
    </contour>
  </outline>
</glyph>
<glyph name="dvBA" format="2">
  <advance width="491"/>
  <unicode hex="092C"/>
  <outline>
    <contour>
      <point x="208" y="130" type="line" smooth="yes"/>
      <point x="144" y="130"/>
      <point x="111" y="166"/>
      <point x="111" y="229" type="curve" smooth="yes"/>
      <point x="111" y="344" type="line" smooth="yes"/>
      <point x="111" y="362"/>
      <point x="114" y="378"/>
      <point x="119" y="391" type="curve"/>
      <point x="336" y="170" type="line"/>
      <point x="320" y="144"/>
      <point x="292" y="130"/>
      <point x="252" y="130" type="curve" smooth="yes"/>
    </contour>
    <contour>
      <point x="-2" y="623" type="line" smooth="yes"/>
      <point x="-11" y="623"/>
      <point x="-14" y="619"/>
      <point x="-14" y="612" type="curve" smooth="yes"/>
      <point x="-14" y="593" type="line" smooth="yes"/>
      <point x="-14" y="585"/>
      <point x="-11" y="581"/>
      <point x="-2" y="581" type="curve" smooth="yes"/>
      <point x="341" y="581" type="line" smooth="yes"/>
      <point x="348" y="581"/>
      <point x="351" y="578"/>
      <point x="351" y="572" type="curve" smooth="yes"/>
      <point x="351" y="227" type="line" smooth="yes"/>
      <point x="351" y="220"/>
      <point x="351" y="213"/>
      <point x="350" y="207" type="curve"/>
      <point x="140" y="421" type="line"/>
      <point x="156" y="436"/>
      <point x="179" y="443"/>
      <point x="208" y="443" type="curve" smooth="yes"/>
      <point x="264" y="443" type="line" smooth="yes"/>
      <point x="273" y="443"/>
      <point x="276" y="447"/>
      <point x="276" y="454" type="curve" smooth="yes"/>
      <point x="276" y="474" type="line" smooth="yes"/>
      <point x="276" y="482"/>
      <point x="273" y="486"/>
      <point x="264" y="486" type="curve" smooth="yes"/>
      <point x="205" y="486" type="line" smooth="yes"/>
      <point x="118" y="486"/>
      <point x="64" y="433"/>
      <point x="63" y="345" type="curve"/>
      <point x="63" y="228" type="line" smooth="yes"/>
      <point x="63" y="140"/>
      <point x="119" y="88"/>
      <point x="205" y="88" type="curve" smooth="yes"/>
      <point x="248" y="88" type="line" smooth="yes"/>
      <point x="295" y="88"/>
      <point x="330" y="102"/>
      <point x="347" y="134" type="curve"/>
      <point x="351" y="134" type="line"/>
      <point x="351" y="12" type="line" smooth="yes"/>
      <point x="351" y="3"/>
      <point x="355" y="0"/>
      <point x="362" y="0" type="curve" smooth="yes"/>
      <point x="388" y="0" type="line" smooth="yes"/>
      <point x="395" y="0"/>
      <point x="399" y="3"/>
      <point x="399" y="12" type="curve" smooth="yes"/>
      <point x="399" y="572" type="line" smooth="yes"/>
      <point x="399" y="578"/>
      <point x="401" y="581"/>
      <point x="409" y="581" type="curve" smooth="yes"/>
      <point x="493" y="581" type="line" smooth="yes"/>
      <point x="502" y="581"/>
      <point x="505" y="585"/>
      <point x="505" y="593" type="curve" smooth="yes"/>
      <point x="505" y="612" type="line" smooth="yes"/>
      <point x="505" y="619"/>
      <point x="502" y="623"/>
      <point x="493" y="623" type="curve" smooth="yes"/>
    </contour>
  </outline>
</glyph>
<glyph name="dvLLA" format="2">
  <advance width="672"/>
  <unicode hex="0933"/>
  <outline>
    <contour>
      <point x="554" y="179" type="line" smooth="yes"/>
      <point x="554" y="116"/>
      <point x="521" y="84"/>
      <point x="459" y="84" type="curve" smooth="yes"/>
      <point x="452" y="84" type="line" smooth="yes"/>
      <point x="390" y="84"/>
      <point x="358" y="116"/>
      <point x="358" y="179" type="curve" smooth="yes"/>
      <point x="358" y="304" type="line" smooth="yes"/>
      <point x="358" y="368"/>
      <point x="390" y="399"/>
      <point x="452" y="399" type="curve" smooth="yes"/>
      <point x="459" y="399" type="line" smooth="yes"/>
      <point x="521" y="399"/>
      <point x="554" y="368"/>
      <point x="554" y="304" type="curve" smooth="yes"/>
    </contour>
    <contour>
      <point x="310" y="179" type="line" smooth="yes"/>
      <point x="310" y="116"/>
      <point x="278" y="84"/>
      <point x="216" y="84" type="curve" smooth="yes"/>
      <point x="209" y="84" type="line" smooth="yes"/>
      <point x="147" y="84"/>
      <point x="114" y="116"/>
      <point x="114" y="179" type="curve" smooth="yes"/>
      <point x="114" y="304" type="line" smooth="yes"/>
      <point x="114" y="368"/>
      <point x="147" y="399"/>
      <point x="209" y="399" type="curve" smooth="yes"/>
      <point x="216" y="399" type="line" smooth="yes"/>
      <point x="278" y="399"/>
      <point x="310" y="368"/>
      <point x="310" y="304" type="curve" smooth="yes"/>
    </contour>
    <contour>
      <point x="-2" y="623" type="line" smooth="yes"/>
      <point x="-11" y="623"/>
      <point x="-14" y="619"/>
      <point x="-14" y="612" type="curve" smooth="yes"/>
      <point x="-14" y="593" type="line" smooth="yes"/>
      <point x="-14" y="585"/>
      <point x="-11" y="581"/>
      <point x="-2" y="581" type="curve" smooth="yes"/>
      <point x="425" y="581" type="line" smooth="yes"/>
      <point x="432" y="581"/>
      <point x="435" y="578"/>
      <point x="435" y="572" type="curve" smooth="yes"/>
      <point x="435" y="450" type="line" smooth="yes"/>
      <point x="435" y="445"/>
      <point x="433" y="442"/>
      <point x="426" y="441" type="curve" smooth="yes"/>
      <point x="383" y="434"/>
      <point x="352" y="414"/>
      <point x="334" y="382" type="curve"/>
      <point x="313" y="422"/>
      <point x="273" y="443"/>
      <point x="216" y="443" type="curve" smooth="yes"/>
      <point x="208" y="443" type="line" smooth="yes"/>
      <point x="121" y="443"/>
      <point x="67" y="394"/>
      <point x="67" y="304" type="curve" smooth="yes"/>
      <point x="67" y="178" type="line" smooth="yes"/>
      <point x="67" y="89"/>
      <point x="121" y="40"/>
      <point x="208" y="40" type="curve" smooth="yes"/>
      <point x="216" y="40" type="line" smooth="yes"/>
      <point x="273" y="40"/>
      <point x="313" y="61"/>
      <point x="334" y="100" type="curve"/>
      <point x="355" y="61"/>
      <point x="395" y="40"/>
      <point x="452" y="40" type="curve" smooth="yes"/>
      <point x="460" y="40" type="line" smooth="yes"/>
      <point x="547" y="40"/>
      <point x="601" y="89"/>
      <point x="601" y="178" type="curve" smooth="yes"/>
      <point x="601" y="304" type="line" smooth="yes"/>
      <point x="601" y="384"/>
      <point x="560" y="428"/>
      <point x="489" y="440" type="curve"/>
      <point x="482" y="442"/>
      <point x="481" y="445"/>
      <point x="481" y="450" type="curve" smooth="yes"/>
      <point x="481" y="572" type="line" smooth="yes"/>
      <point x="481" y="578"/>
      <point x="483" y="581"/>
      <point x="490" y="581" type="curve" smooth="yes"/>
      <point x="674" y="581" type="line" smooth="yes"/>
      <point x="683" y="581"/>
      <point x="687" y="585"/>
      <point x="687" y="593" type="curve" smooth="yes"/>
      <point x="687" y="612" type="line" smooth="yes"/>
      <point x="687" y="619"/>
      <point x="683" y="623"/>
      <point x="674" y="623" type="curve" smooth="yes"/>
    </contour>
  </outline>
</glyph>
<glyph name="dvNukta" format="2">
  <unicode hex="093C"/>
  <outline>
    <contour>
      <point x="-107" y="-49" type="line" smooth="yes"/>
      <point x="-107" y="-40"/>
      <point x="-111" y="-37"/>
      <point x="-118" y="-37" type="curve" smooth="yes"/>
      <point x="-149" y="-37" type="line" smooth="yes"/>
      <point x="-156" y="-37"/>
      <point x="-160" y="-40"/>
      <point x="-160" y="-49" type="curve" smooth="yes"/>
      <point x="-160" y="-82" type="line" smooth="yes"/>
      <point x="-160" y="-91"/>
      <point x="-156" y="-94"/>
      <point x="-149" y="-94" type="curve" smooth="yes"/>
      <point x="-118" y="-94" type="line" smooth="yes"/>
      <point x="-111" y="-94"/>
      <point x="-107" y="-91"/>
      <point x="-107" y="-82" type="curve" smooth="yes"/>
    </contour>
  </outline>
</glyph>
<glyph name="dvEight" format="2">
  <advance width="523"/>
  <unicode hex="096E"/>
  <outline>
    <contour>
      <point x="405" y="443" type="line" smooth="yes"/>
      <point x="405" y="380"/>
      <point x="372" y="345"/>
      <point x="309" y="345" type="curve" smooth="yes"/>
      <point x="213" y="345" type="line" smooth="yes"/>
      <point x="151" y="345"/>
      <point x="118" y="380"/>
      <point x="118" y="443" type="curve" smooth="yes"/>
      <point x="118" y="502" type="line" smooth="yes"/>
      <point x="118" y="565"/>
      <point x="151" y="599"/>
      <point x="213" y="599" type="curve" smooth="yes"/>
      <point x="309" y="599" type="line" smooth="yes"/>
      <point x="372" y="599"/>
      <point x="405" y="565"/>
      <point x="405" y="502" type="curve" smooth="yes"/>
    </contour>
    <contour>
      <point x="405" y="141" type="line" smooth="yes"/>
      <point x="405" y="78"/>
      <point x="372" y="44"/>
      <point x="309" y="44" type="curve" smooth="yes"/>
      <point x="213" y="44" type="line" smooth="yes"/>
      <point x="151" y="44"/>
      <point x="118" y="78"/>
      <point x="118" y="141" type="curve" smooth="yes"/>
      <point x="118" y="205" type="line" smooth="yes"/>
      <point x="118" y="268"/>
      <point x="151" y="303"/>
      <point x="213" y="303" type="curve" smooth="yes"/>
      <point x="309" y="303" type="line" smooth="yes"/>
      <point x="372" y="303"/>
      <point x="405" y="268"/>
      <point x="405" y="205" type="curve" smooth="yes"/>
    </contour>
    <contour>
      <point x="453" y="504" type="line" smooth="yes"/>
      <point x="453" y="592"/>
      <point x="399" y="643"/>
      <point x="314" y="643" type="curve" smooth="yes"/>
      <point x="209" y="643" type="line" smooth="yes"/>
      <point x="124" y="643"/>
      <point x="69" y="592"/>
      <point x="69" y="504" type="curve" smooth="yes"/>
      <point x="69" y="444" type="line" smooth="yes"/>
      <point x="69" y="382"/>
      <point x="96" y="342"/>
      <point x="142" y="324" type="curve"/>
      <point x="96" y="305"/>
      <point x="69" y="265"/>
      <point x="69" y="204" type="curve" smooth="yes"/>
      <point x="69" y="139" type="line" smooth="yes"/>
      <point x="69" y="51"/>
      <point x="124" y="0"/>
      <point x="209" y="0" type="curve" smooth="yes"/>
      <point x="314" y="0" type="line" smooth="yes"/>
      <point x="399" y="0"/>
      <point x="453" y="51"/>
      <point x="453" y="139" type="curve" smooth="yes"/>
      <point x="453" y="204" type="line" smooth="yes"/>
      <point x="453" y="265"/>
      <point x="427" y="305"/>
      <point x="381" y="324" type="curve"/>
      <point x="427" y="342"/>
      <point x="453" y="382"/>
      <point x="453" y="444" type="curve" smooth="yes"/>
    </contour>
  </outline>
</glyph>
<glyph name="dvAcandra" format="2">
  <advance width="598"/>
  <unicode hex="0972"/>
  <outline>
    <contour>
      <point x="480" y="623" type="line" smooth="yes"/>
      <point x="467" y="623"/>
      <point x="458" y="612"/>
      <point x="458" y="599" type="curve" smooth="yes"/>
      <point x="458" y="300" type="line" smooth="yes"/>
      <point x="458" y="295"/>
      <point x="456" y="291"/>
      <point x="448" y="291" type="curve" smooth="yes"/>
      <point x="301" y="291" type="line"/>
      <point x="290" y="312"/>
      <point x="273" y="328"/>
      <point x="249" y="337" type="curve"/>
      <point x="249" y="341" type="line"/>
      <point x="293" y="358"/>
      <point x="316" y="399"/>
      <point x="316" y="455" type="curve" smooth="yes"/>
      <point x="316" y="482" type="line" smooth="yes"/>
      <point x="316" y="571"/>
      <point x="264" y="623"/>
      <point x="175" y="623" type="curve" smooth="yes"/>
      <point x="83" y="623" type="line" smooth="yes"/>
      <point x="74" y="623"/>
      <point x="71" y="619"/>
      <point x="71" y="612" type="curve" smooth="yes"/>
      <point x="71" y="593" type="line" smooth="yes"/>
      <point x="71" y="585"/>
      <point x="74" y="581"/>
      <point x="83" y="581" type="curve" smooth="yes"/>
      <point x="172" y="581" type="line" smooth="yes"/>
      <point x="235" y="581"/>
      <point x="268" y="545"/>
      <point x="268" y="482" type="curve" smooth="yes"/>
      <point x="268" y="457" type="line" smooth="yes"/>
      <point x="268" y="394"/>
      <point x="235" y="360"/>
      <point x="172" y="360" type="curve" smooth="yes"/>
      <point x="109" y="360" type="line" smooth="yes"/>
      <point x="101" y="360"/>
      <point x="97" y="356"/>
      <point x="97" y="349" type="curve" smooth="yes"/>
      <point x="97" y="328" type="line" smooth="yes"/>
      <point x="97" y="320"/>
      <point x="100" y="316"/>
      <point x="109" y="316" type="curve" smooth="yes"/>
      <point x="172" y="316" type="line" smooth="yes"/>
      <point x="235" y="316"/>
      <point x="268" y="283"/>
      <point x="268" y="220" type="curve" smooth="yes"/>
      <point x="268" y="182" type="line" smooth="yes"/>
      <point x="268" y="119"/>
      <point x="235" y="83"/>
      <point x="172" y="83" type="curve" smooth="yes"/>
      <point x="48" y="83" type="line" smooth="yes"/>
      <point x="39" y="83"/>
      <point x="36" y="79"/>
      <point x="36" y="72" type="curve" smooth="yes"/>
      <point x="36" y="50" type="line" smooth="yes"/>
      <point x="36" y="43"/>
      <point x="39" y="39"/>
      <point x="48" y="39" type="curve" smooth="yes"/>
      <point x="174" y="39" type="line" smooth="yes"/>
      <point x="261" y="39"/>
      <point x="316" y="93"/>
      <point x="316" y="182" type="curve" smooth="yes"/>
      <point x="316" y="224" type="line" smooth="yes"/>
      <point x="316" y="232"/>
      <point x="315" y="240"/>
      <point x="314" y="248" type="curve"/>
      <point x="448" y="248" type="line" smooth="yes"/>
      <point x="456" y="248"/>
      <point x="458" y="244"/>
      <point x="458" y="239" type="curve" smooth="yes"/>
      <point x="458" y="12" type="line" smooth="yes"/>
      <point x="458" y="3"/>
      <point x="462" y="0"/>
      <point x="469" y="0" type="curve" smooth="yes"/>
      <point x="495" y="0" type="line" smooth="yes"/>
      <point x="502" y="0"/>
      <point x="506" y="3"/>
      <point x="506" y="12" type="curve" smooth="yes"/>
      <point x="506" y="572" type="line" smooth="yes"/>
      <point x="506" y="578"/>
      <point x="509" y="581"/>
      <point x="516" y="581" type="curve" smooth="yes"/>
      <point x="600" y="581" type="line" smooth="yes"/>
      <point x="609" y="581"/>
      <point x="612" y="585"/>
      <point x="612" y="593" type="curve" smooth="yes"/>
      <point x="612" y="612" type="line" smooth="yes"/>
      <point x="612" y="619"/>
      <point x="609" y="623"/>
      <point x="600" y="623" type="curve" smooth="yes"/>
    </contour>
    <contour>
      <point x="604" y="830" type="line" smooth="yes"/>
      <point x="596" y="830"/>
      <point x="591" y="827"/>
      <point x="591" y="816" type="curve" smooth="yes"/>
      <point x="591" y="810" type="line" smooth="yes"/>
      <point x="591" y="751"/>
      <point x="571" y="729"/>
      <point x="513" y="729" type="curve" smooth="yes"/>
      <point x="451" y="729" type="line" smooth="yes"/>
      <point x="393" y="729"/>
      <point x="373" y="751"/>
      <point x="373" y="810" type="curve" smooth="yes"/>
      <point x="373" y="816" type="line" smooth="yes"/>
      <point x="373" y="827"/>
      <point x="368" y="830"/>
      <point x="361" y="830" type="curve" smooth="yes"/>
      <point x="339" y="830" type="line" smooth="yes"/>
      <point x="331" y="830"/>
      <point x="327" y="826"/>
      <point x="327" y="816" type="curve" smooth="yes"/>
      <point x="327" y="809" type="line" smooth="yes"/>
      <point x="327" y="727"/>
      <point x="366" y="687"/>
      <point x="447" y="687" type="curve" smooth="yes"/>
      <point x="517" y="687" type="line" smooth="yes"/>
      <point x="598" y="687"/>
      <point x="637" y="727"/>
      <point x="637" y="810" type="curve" smooth="yes"/>
      <point x="637" y="816" type="line" smooth="yes"/>
      <point x="637" y="826"/>
      <point x="632" y="830"/>
      <point x="624" y="830" type="curve" smooth="yes"/>
    </contour>
  </outline>
</glyph>
<glyph name="rupee" format="2">
  <advance width="964"/>
  <unicode hex="20A8"/>
  <outline>
    <contour>
      <point x="774" y="0" type="line" smooth="yes"/>
      <point x="866" y="0"/>
      <point x="911" y="35"/>
      <point x="911" y="123" type="curve" smooth="yes"/>
      <point x="911" y="186"/>
      <point x="900" y="237"/>
      <point x="824" y="262" type="curve"/>
      <point x="699" y="312" type="line" smooth="yes"/>
      <point x="660" y="326"/>
      <point x="636" y="344"/>
      <point x="636" y="383" type="curve" smooth="yes"/>
      <point x="636" y="406" type="line" smooth="yes"/>
      <point x="636" y="434"/>
      <point x="659" y="466"/>
      <point x="718" y="466" type="curve" smooth="yes"/>
      <point x="875" y="466" type="line" smooth="yes"/>
      <point x="884" y="466"/>
      <point x="886" y="469"/>
      <point x="886" y="476" type="curve" smooth="yes"/>
      <point x="886" y="499" type="line" smooth="yes"/>
      <point x="886" y="506"/>
      <point x="883" y="510"/>
      <point x="875" y="510" type="curve" smooth="yes"/>
      <point x="713" y="510" type="line" smooth="yes"/>
      <point x="622" y="510"/>
      <point x="584" y="466"/>
      <point x="584" y="393" type="curve" smooth="yes"/>
      <point x="584" y="329"/>
      <point x="610" y="297"/>
      <point x="678" y="271" type="curve" smooth="yes"/>
      <point x="803" y="223" type="line" smooth="yes"/>
      <point x="847" y="207"/>
      <point x="859" y="177"/>
      <point x="859" y="138" type="curve" smooth="yes"/>
      <point x="859" y="114" type="line" smooth="yes"/>
      <point x="859" y="67"/>
      <point x="829" y="44"/>
      <point x="769" y="44" type="curve" smooth="yes"/>
      <point x="600" y="44" type="line" smooth="yes"/>
      <point x="591" y="44"/>
      <point x="589" y="41"/>
      <point x="589" y="34" type="curve" smooth="yes"/>
      <point x="589" y="11" type="line" smooth="yes"/>
      <point x="589" y="4"/>
      <point x="591" y="0"/>
      <point x="600" y="0" type="curve" smooth="yes"/>
    </contour>
    <contour>
      <point x="145" y="307" type="line" smooth="yes"/>
      <point x="138" y="307"/>
      <point x="135" y="310"/>
      <point x="135" y="316" type="curve" smooth="yes"/>
      <point x="135" y="589" type="line" smooth="yes"/>
      <point x="135" y="595"/>
      <point x="138" y="598"/>
      <point x="145" y="598" type="curve" smooth="yes"/>
      <point x="318" y="598" type="line" smooth="yes"/>
      <point x="380" y="598"/>
      <point x="414" y="562"/>
      <point x="414" y="499" type="curve" smooth="yes"/>
      <point x="414" y="405" type="line" smooth="yes"/>
      <point x="414" y="343"/>
      <point x="380" y="307"/>
      <point x="318" y="307" type="curve" smooth="yes"/>
    </contour>
    <contour>
      <point x="124" y="0" type="line" smooth="yes"/>
      <point x="131" y="0"/>
      <point x="135" y="3"/>
      <point x="135" y="12" type="curve" smooth="yes"/>
      <point x="135" y="255" type="line" smooth="yes"/>
      <point x="135" y="261"/>
      <point x="138" y="264"/>
      <point x="145" y="264" type="curve" smooth="yes"/>
      <point x="303" y="264" type="line"/>
      <point x="421" y="12" type="line"/>
      <point x="425" y="2"/>
      <point x="430" y="0"/>
      <point x="439" y="0" type="curve" smooth="yes"/>
      <point x="470" y="0" type="line" smooth="yes"/>
      <point x="477" y="0"/>
      <point x="481" y="4"/>
      <point x="477" y="12" type="curve" smooth="yes"/>
      <point x="358" y="264" type="line"/>
      <point x="358" y="268" type="line"/>
      <point x="423" y="281"/>
      <point x="464" y="331"/>
      <point x="464" y="406" type="curve" smooth="yes"/>
      <point x="464" y="501" type="line" smooth="yes"/>
      <point x="464" y="589"/>
      <point x="409" y="643"/>
      <point x="323" y="643" type="curve" smooth="yes"/>
      <point x="95" y="643" type="line" smooth="yes"/>
      <point x="89" y="643"/>
      <point x="85" y="640"/>
      <point x="85" y="631" type="curve" smooth="yes"/>
      <point x="85" y="12" type="line" smooth="yes"/>
      <point x="85" y="3"/>
      <point x="89" y="0"/>
      <point x="95" y="0" type="curve" smooth="yes"/>
    </contour>
  </outline>
</glyph>
<glyph name="dvBH_LA" format="2">
  <advance width="941"/>
  <outline>
    <contour>
      <point x="262" y="623" type="line"/>
      <point x="262" y="623" type="line"/>
      <point x="261" y="623" type="line"/>
      <point x="261" y="623" type="line"/>
      <point x="261" y="623" type="line"/>
      <point x="261" y="623" type="line"/>
      <point x="261" y="623" type="line"/>
      <point x="253" y="623"/>
      <point x="249" y="619"/>
      <point x="249" y="612" type="curve" smooth="yes"/>
      <point x="249" y="593" type="line" smooth="yes"/>
      <point x="249" y="585"/>
      <point x="253" y="581"/>
      <point x="261" y="581" type="curve"/>
      <point x="261" y="581" type="line"/>
      <point x="261" y="581" type="line"/>
      <point x="261" y="581" type="line"/>
      <point x="261" y="581" type="line"/>
      <point x="262" y="581" type="line"/>
      <point x="262" y="581" type="line"/>
      <point x="791" y="581" type="line" smooth="yes"/>
      <point x="798" y="581"/>
      <point x="800" y="578"/>
      <point x="800" y="572" type="curve" smooth="yes"/>
      <point x="800" y="401" type="line"/>
      <point x="796" y="401" type="line"/>
      <point x="780" y="430"/>
      <point x="750" y="443"/>
      <point x="705" y="443" type="curve" smooth="yes"/>
      <point x="650" y="443"/>
      <point x="609" y="423"/>
      <point x="593" y="376" type="curve"/>
      <point x="589" y="376" type="line"/>
      <point x="573" y="425"/>
      <point x="529" y="443"/>
      <point x="474" y="443" type="curve" smooth="yes"/>
      <point x="401" y="443"/>
      <point x="350" y="410"/>
      <point x="338" y="337" type="curve"/>
      <point x="137" y="337" type="line" smooth="yes"/>
      <point x="131" y="337"/>
      <point x="128" y="340"/>
      <point x="128" y="347" type="curve" smooth="yes"/>
      <point x="128" y="505" type="line" smooth="yes"/>
      <point x="128" y="582"/>
      <point x="83" y="623"/>
      <point x="6" y="623" type="curve" smooth="yes"/>
      <point x="-2" y="623" type="line" smooth="yes"/>
      <point x="-11" y="623"/>
      <point x="-14" y="619"/>
      <point x="-14" y="612" type="curve" smooth="yes"/>
      <point x="-14" y="593" type="line" smooth="yes"/>
      <point x="-14" y="585"/>
      <point x="-11" y="581"/>
      <point x="-2" y="581" type="curve" smooth="yes"/>
      <point x="6" y="581" type="line" smooth="yes"/>
      <point x="51" y="581"/>
      <point x="80" y="558"/>
      <point x="80" y="504" type="curve" smooth="yes"/>
      <point x="80" y="186" type="line" smooth="yes"/>
      <point x="80" y="177"/>
      <point x="84" y="174"/>
      <point x="91" y="174" type="curve" smooth="yes"/>
      <point x="117" y="174" type="line" smooth="yes"/>
      <point x="124" y="174"/>
      <point x="128" y="177"/>
      <point x="128" y="186" type="curve" smooth="yes"/>
      <point x="128" y="285" type="line" smooth="yes"/>
      <point x="128" y="291"/>
      <point x="130" y="294"/>
      <point x="138" y="294" type="curve" smooth="yes"/>
      <point x="335" y="294" type="line"/>
      <point x="335" y="178" type="line" smooth="yes"/>
      <point x="335" y="82"/>
      <point x="390" y="38"/>
      <point x="477" y="38" type="curve" smooth="yes"/>
      <point x="528" y="38" type="line" smooth="yes"/>
      <point x="537" y="38"/>
      <point x="541" y="41"/>
      <point x="541" y="49" type="curve" smooth="yes"/>
      <point x="541" y="70" type="line" smooth="yes"/>
      <point x="541" y="78"/>
      <point x="537" y="82"/>
      <point x="528" y="82" type="curve" smooth="yes"/>
      <point x="481" y="82" type="line" smooth="yes"/>
      <point x="417" y="82"/>
      <point x="383" y="109"/>
      <point x="383" y="180" type="curve" smooth="yes"/>
      <point x="383" y="300" type="line" smooth="yes"/>
      <point x="383" y="371"/>
      <point x="415" y="398"/>
      <point x="476" y="398" type="curve" smooth="yes"/>
      <point x="535" y="398"/>
      <point x="568" y="373"/>
      <point x="568" y="303" type="curve" smooth="yes"/>
      <point x="568" y="214" type="line" smooth="yes"/>
      <point x="568" y="206"/>
      <point x="572" y="202"/>
      <point x="580" y="202" type="curve" smooth="yes"/>
      <point x="604" y="202" type="line" smooth="yes"/>
      <point x="611" y="202"/>
      <point x="615" y="206"/>
      <point x="615" y="214" type="curve" smooth="yes"/>
      <point x="615" y="301" type="line" smooth="yes"/>
      <point x="615" y="375"/>
      <point x="649" y="398"/>
      <point x="708" y="398" type="curve" smooth="yes"/>
      <point x="768" y="398"/>
      <point x="800" y="373"/>
      <point x="800" y="301" type="curve" smooth="yes"/>
      <point x="800" y="12" type="line" smooth="yes"/>
      <point x="800" y="3"/>
      <point x="804" y="0"/>
      <point x="812" y="0" type="curve" smooth="yes"/>
      <point x="837" y="0" type="line" smooth="yes"/>
      <point x="844" y="0"/>
      <point x="849" y="3"/>
      <point x="849" y="12" type="curve" smooth="yes"/>
      <point x="849" y="572" type="line" smooth="yes"/>
      <point x="849" y="578"/>
      <point x="851" y="581"/>
      <point x="858" y="581" type="curve" smooth="yes"/>
      <point x="942" y="581" type="line" smooth="yes"/>
      <point x="951" y="581"/>
      <point x="954" y="585"/>
      <point x="954" y="593" type="curve" smooth="yes"/>
      <point x="954" y="612" type="line" smooth="yes"/>
      <point x="954" y="619"/>
      <point x="951" y="623"/>
      <point x="942" y="623" type="curve" smooth="yes"/>
    </contour>
  </outline>
</glyph>
<glyph name="dvBH_R_YA" format="2">
  <advance width="830"/>
  <outline>
    <contour>
      <point x="690" y="259" type="line" smooth="yes"/>
      <point x="690" y="190"/>
      <point x="649" y="147"/>
      <point x="575" y="147" type="curve" smooth="yes"/>
      <point x="495" y="147" type="line" smooth="yes"/>
      <point x="421" y="147"/>
      <point x="382" y="189"/>
      <point x="382" y="260" type="curve" smooth="yes"/>
      <point x="382" y="351" type="line"/>
      <point x="402" y="351" type="line" smooth="yes"/>
      <point x="481" y="351"/>
      <point x="531" y="387"/>
      <point x="531" y="477" type="curve" smooth="yes"/>
      <point x="531" y="492" type="line" smooth="yes"/>
      <point x="531" y="533"/>
      <point x="519" y="563"/>
      <point x="495" y="577" type="curve"/>
      <point x="495" y="581" type="line"/>
      <point x="680" y="581" type="line" smooth="yes"/>
      <point x="688" y="581"/>
      <point x="690" y="578"/>
      <point x="690" y="572" type="curve" smooth="yes"/>
    </contour>
    <contour>
      <point x="264" y="623" type="line" smooth="yes"/>
      <point x="255" y="623"/>
      <point x="252" y="619"/>
      <point x="252" y="612" type="curve" smooth="yes"/>
      <point x="252" y="593" type="line" smooth="yes"/>
      <point x="252" y="585"/>
      <point x="255" y="581"/>
      <point x="264" y="581" type="curve" smooth="yes"/>
      <point x="397" y="581" type="line" smooth="yes"/>
      <point x="460" y="581"/>
      <point x="483" y="555"/>
      <point x="483" y="495" type="curve" smooth="yes"/>
      <point x="483" y="483" type="line" smooth="yes"/>
      <point x="483" y="415"/>
      <point x="457" y="394"/>
      <point x="397" y="394" type="curve" smooth="yes"/>
      <point x="346" y="394" type="line" smooth="yes"/>
      <point x="337" y="394"/>
      <point x="334" y="390"/>
      <point x="334" y="383" type="curve" smooth="yes"/>
      <point x="334" y="341" type="line"/>
      <point x="137" y="341" type="line" smooth="yes"/>
      <point x="131" y="341"/>
      <point x="128" y="344"/>
      <point x="128" y="351" type="curve" smooth="yes"/>
      <point x="128" y="505" type="line" smooth="yes"/>
      <point x="128" y="582"/>
      <point x="83" y="623"/>
      <point x="6" y="623" type="curve" smooth="yes"/>
      <point x="-2" y="623" type="line" smooth="yes"/>
      <point x="-11" y="623"/>
      <point x="-14" y="619"/>
      <point x="-14" y="612" type="curve" smooth="yes"/>
      <point x="-14" y="593" type="line" smooth="yes"/>
      <point x="-14" y="585"/>
      <point x="-11" y="581"/>
      <point x="-2" y="581" type="curve" smooth="yes"/>
      <point x="6" y="581" type="line" smooth="yes"/>
      <point x="49" y="581"/>
      <point x="80" y="560"/>
      <point x="80" y="504" type="curve" smooth="yes"/>
      <point x="80" y="190" type="line" smooth="yes"/>
      <point x="80" y="181"/>
      <point x="84" y="178"/>
      <point x="91" y="178" type="curve" smooth="yes"/>
      <point x="117" y="178" type="line" smooth="yes"/>
      <point x="124" y="178"/>
      <point x="128" y="181"/>
      <point x="128" y="190" type="curve" smooth="yes"/>
      <point x="128" y="289" type="line" smooth="yes"/>
      <point x="128" y="295"/>
      <point x="130" y="299"/>
      <point x="138" y="299" type="curve" smooth="yes"/>
      <point x="334" y="299" type="line"/>
      <point x="334" y="276" type="line"/>
      <point x="102" y="13" type="line"/>
      <point x="99" y="10"/>
      <point x="98" y="6"/>
      <point x="98" y="4" type="curve" smooth="yes"/>
      <point x="98" y="-1"/>
      <point x="101" y="-5"/>
      <point x="108" y="-5" type="curve" smooth="yes"/>
      <point x="135" y="-5" type="line" smooth="yes"/>
      <point x="144" y="-5"/>
      <point x="149" y="-1"/>
      <point x="155" y="6" type="curve" smooth="yes"/>
      <point x="339" y="217" type="line"/>
      <point x="355" y="149"/>
      <point x="409" y="104"/>
      <point x="492" y="104" type="curve" smooth="yes"/>
      <point x="575" y="104" type="line" smooth="yes"/>
      <point x="627" y="104"/>
      <point x="669" y="123"/>
      <point x="686" y="157" type="curve"/>
      <point x="690" y="157" type="line"/>
      <point x="690" y="12" type="line" smooth="yes"/>
      <point x="690" y="3"/>
      <point x="694" y="0"/>
      <point x="701" y="0" type="curve" smooth="yes"/>
      <point x="727" y="0" type="line" smooth="yes"/>
      <point x="734" y="0"/>
      <point x="738" y="3"/>
      <point x="738" y="12" type="curve" smooth="yes"/>
      <point x="738" y="572" type="line" smooth="yes"/>
      <point x="738" y="578"/>
      <point x="741" y="581"/>
      <point x="748" y="581" type="curve" smooth="yes"/>
      <point x="832" y="581" type="line" smooth="yes"/>
      <point x="841" y="581"/>
      <point x="844" y="585"/>
      <point x="844" y="593" type="curve" smooth="yes"/>
      <point x="844" y="612" type="line" smooth="yes"/>
      <point x="844" y="619"/>
      <point x="841" y="623"/>
      <point x="832" y="623" type="curve" smooth="yes"/>
    </contour>
  </outline>
</glyph>
<glyph name="dvBH_VA" format="2">
  <advance width="755"/>
  <outline>
    <contour>
      <point x="262" y="623" type="line" smooth="yes"/>
      <point x="253" y="623"/>
      <point x="249" y="619"/>
      <point x="249" y="612" type="curve" smooth="yes"/>
      <point x="249" y="593" type="line" smooth="yes"/>
      <point x="249" y="585"/>
      <point x="253" y="581"/>
      <point x="262" y="581" type="curve" smooth="yes"/>
      <point x="606" y="581" type="line" smooth="yes"/>
      <point x="613" y="581"/>
      <point x="616" y="578"/>
      <point x="616" y="572" type="curve" smooth="yes"/>
      <point x="616" y="232" type="line" smooth="yes"/>
      <point x="616" y="172"/>
      <point x="581" y="136"/>
      <point x="517" y="136" type="curve" smooth="yes"/>
      <point x="480" y="136" type="line" smooth="yes"/>
      <point x="416" y="136"/>
      <point x="383" y="171"/>
      <point x="383" y="234" type="curve" smooth="yes"/>
      <point x="383" y="337" type="line" smooth="yes"/>
      <point x="383" y="401"/>
      <point x="417" y="436"/>
      <point x="480" y="436" type="curve" smooth="yes"/>
      <point x="529" y="436" type="line" smooth="yes"/>
      <point x="538" y="436"/>
      <point x="542" y="440"/>
      <point x="542" y="447" type="curve" smooth="yes"/>
      <point x="542" y="469" type="line" smooth="yes"/>
      <point x="542" y="476"/>
      <point x="538" y="480"/>
      <point x="529" y="480" type="curve" smooth="yes"/>
      <point x="476" y="480" type="line" smooth="yes"/>
      <point x="389" y="480"/>
      <point x="335" y="427"/>
      <point x="334" y="339" type="curve"/>
      <point x="334" y="337" type="line"/>
      <point x="137" y="337" type="line" smooth="yes"/>
      <point x="131" y="337"/>
      <point x="128" y="340"/>
      <point x="128" y="347" type="curve" smooth="yes"/>
      <point x="128" y="505" type="line" smooth="yes"/>
      <point x="128" y="582"/>
      <point x="83" y="623"/>
      <point x="6" y="623" type="curve" smooth="yes"/>
      <point x="-2" y="623" type="line" smooth="yes"/>
      <point x="-11" y="623"/>
      <point x="-14" y="619"/>
      <point x="-14" y="612" type="curve" smooth="yes"/>
      <point x="-14" y="593" type="line" smooth="yes"/>
      <point x="-14" y="585"/>
      <point x="-11" y="581"/>
      <point x="-2" y="581" type="curve" smooth="yes"/>
      <point x="6" y="581" type="line" smooth="yes"/>
      <point x="51" y="581"/>
      <point x="80" y="558"/>
      <point x="80" y="504" type="curve" smooth="yes"/>
      <point x="80" y="186" type="line" smooth="yes"/>
      <point x="80" y="177"/>
      <point x="84" y="174"/>
      <point x="91" y="174" type="curve" smooth="yes"/>
      <point x="117" y="174" type="line" smooth="yes"/>
      <point x="124" y="174"/>
      <point x="128" y="177"/>
      <point x="128" y="186" type="curve" smooth="yes"/>
      <point x="128" y="285" type="line" smooth="yes"/>
      <point x="128" y="291"/>
      <point x="130" y="294"/>
      <point x="138" y="294" type="curve" smooth="yes"/>
      <point x="334" y="294" type="line"/>
      <point x="334" y="232" type="line" smooth="yes"/>
      <point x="334" y="144"/>
      <point x="390" y="92"/>
      <point x="476" y="92" type="curve" smooth="yes"/>
      <point x="513" y="92" type="line" smooth="yes"/>
      <point x="560" y="92"/>
      <point x="595" y="106"/>
      <point x="612" y="138" type="curve"/>
      <point x="616" y="138" type="line"/>
      <point x="616" y="12" type="line" smooth="yes"/>
      <point x="616" y="3"/>
      <point x="620" y="0"/>
      <point x="627" y="0" type="curve" smooth="yes"/>
      <point x="652" y="0" type="line" smooth="yes"/>
      <point x="659" y="0"/>
      <point x="663" y="3"/>
      <point x="663" y="12" type="curve" smooth="yes"/>
      <point x="663" y="572" type="line" smooth="yes"/>
      <point x="663" y="578"/>
      <point x="666" y="581"/>
      <point x="673" y="581" type="curve" smooth="yes"/>
      <point x="757" y="581" type="line" smooth="yes"/>
      <point x="766" y="581"/>
      <point x="769" y="585"/>
      <point x="769" y="593" type="curve" smooth="yes"/>
      <point x="769" y="612" type="line" smooth="yes"/>
      <point x="769" y="619"/>
      <point x="766" y="623"/>
      <point x="757" y="623" type="curve" smooth="yes"/>
    </contour>
  </outline>
</glyph>
<glyph name="dvBH_YA" format="2">
  <advance width="827"/>
  <outline>
    <contour>
      <point x="688" y="259" type="line" smooth="yes"/>
      <point x="688" y="190"/>
      <point x="647" y="147"/>
      <point x="573" y="147" type="curve" smooth="yes"/>
      <point x="493" y="147" type="line" smooth="yes"/>
      <point x="419" y="147"/>
      <point x="380" y="189"/>
      <point x="380" y="260" type="curve" smooth="yes"/>
      <point x="380" y="351" type="line"/>
      <point x="400" y="351" type="line" smooth="yes"/>
      <point x="479" y="351"/>
      <point x="529" y="387"/>
      <point x="529" y="477" type="curve" smooth="yes"/>
      <point x="529" y="492" type="line" smooth="yes"/>
      <point x="529" y="533"/>
      <point x="517" y="563"/>
      <point x="493" y="577" type="curve"/>
      <point x="493" y="581" type="line"/>
      <point x="678" y="581" type="line" smooth="yes"/>
      <point x="686" y="581"/>
      <point x="688" y="578"/>
      <point x="688" y="572" type="curve" smooth="yes"/>
    </contour>
    <contour>
      <point x="262" y="623" type="line"/>
      <point x="262" y="623" type="line"/>
      <point x="261" y="623" type="line"/>
      <point x="261" y="623" type="line"/>
      <point x="261" y="623" type="line"/>
      <point x="261" y="623" type="line"/>
      <point x="261" y="623" type="line"/>
      <point x="253" y="623"/>
      <point x="249" y="619"/>
      <point x="249" y="612" type="curve" smooth="yes"/>
      <point x="249" y="593" type="line" smooth="yes"/>
      <point x="249" y="585"/>
      <point x="253" y="581"/>
      <point x="261" y="581" type="curve"/>
      <point x="261" y="581" type="line"/>
      <point x="261" y="581" type="line"/>
      <point x="261" y="581" type="line"/>
      <point x="261" y="581" type="line"/>
      <point x="262" y="581" type="line"/>
      <point x="262" y="581" type="line"/>
      <point x="395" y="581" type="line" smooth="yes"/>
      <point x="458" y="581"/>
      <point x="481" y="555"/>
      <point x="481" y="495" type="curve" smooth="yes"/>
      <point x="481" y="483" type="line" smooth="yes"/>
      <point x="481" y="415"/>
      <point x="455" y="394"/>
      <point x="395" y="394" type="curve" smooth="yes"/>
      <point x="344" y="394" type="line" smooth="yes"/>
      <point x="335" y="394"/>
      <point x="332" y="390"/>
      <point x="332" y="383" type="curve" smooth="yes"/>
      <point x="332" y="337" type="line"/>
      <point x="137" y="337" type="line" smooth="yes"/>
      <point x="131" y="337"/>
      <point x="128" y="340"/>
      <point x="128" y="347" type="curve" smooth="yes"/>
      <point x="128" y="505" type="line" smooth="yes"/>
      <point x="128" y="582"/>
      <point x="83" y="623"/>
      <point x="6" y="623" type="curve" smooth="yes"/>
      <point x="-2" y="623" type="line" smooth="yes"/>
      <point x="-11" y="623"/>
      <point x="-14" y="619"/>
      <point x="-14" y="612" type="curve" smooth="yes"/>
      <point x="-14" y="593" type="line" smooth="yes"/>
      <point x="-14" y="585"/>
      <point x="-11" y="581"/>
      <point x="-2" y="581" type="curve" smooth="yes"/>
      <point x="6" y="581" type="line" smooth="yes"/>
      <point x="51" y="581"/>
      <point x="80" y="558"/>
      <point x="80" y="504" type="curve" smooth="yes"/>
      <point x="80" y="186" type="line" smooth="yes"/>
      <point x="80" y="177"/>
      <point x="84" y="174"/>
      <point x="91" y="174" type="curve" smooth="yes"/>
      <point x="117" y="174" type="line" smooth="yes"/>
      <point x="124" y="174"/>
      <point x="128" y="177"/>
      <point x="128" y="186" type="curve" smooth="yes"/>
      <point x="128" y="285" type="line" smooth="yes"/>
      <point x="128" y="291"/>
      <point x="130" y="294"/>
      <point x="138" y="294" type="curve" smooth="yes"/>
      <point x="332" y="294" type="line"/>
      <point x="332" y="260" type="line" smooth="yes"/>
      <point x="332" y="169"/>
      <point x="391" y="104"/>
      <point x="490" y="104" type="curve" smooth="yes"/>
      <point x="573" y="104" type="line" smooth="yes"/>
      <point x="625" y="104"/>
      <point x="667" y="123"/>
      <point x="684" y="157" type="curve"/>
      <point x="688" y="157" type="line"/>
      <point x="688" y="12" type="line" smooth="yes"/>
      <point x="688" y="3"/>
      <point x="692" y="0"/>
      <point x="699" y="0" type="curve" smooth="yes"/>
      <point x="725" y="0" type="line" smooth="yes"/>
      <point x="732" y="0"/>
      <point x="736" y="3"/>
      <point x="736" y="12" type="curve" smooth="yes"/>
      <point x="736" y="572" type="line" smooth="yes"/>
      <point x="736" y="578"/>
      <point x="739" y="581"/>
      <point x="746" y="581" type="curve" smooth="yes"/>
      <point x="830" y="581" type="line" smooth="yes"/>
      <point x="839" y="581"/>
      <point x="842" y="585"/>
      <point x="842" y="593" type="curve" smooth="yes"/>
      <point x="842" y="612" type="line" smooth="yes"/>
      <point x="842" y="619"/>
      <point x="839" y="623"/>
      <point x="830" y="623" type="curve" smooth="yes"/>
    </contour>
  </outline>
</glyph>
<glyph name="dvB_BA" format="2">
  <advance width="783"/>
  <outline>
    <contour>
      <point x="501" y="130" type="line" smooth="yes"/>
      <point x="437" y="130"/>
      <point x="404" y="166"/>
      <point x="404" y="229" type="curve" smooth="yes"/>
      <point x="404" y="344" type="line" smooth="yes"/>
      <point x="404" y="362"/>
      <point x="407" y="378"/>
      <point x="412" y="391" type="curve"/>
      <point x="629" y="170" type="line"/>
      <point x="613" y="144"/>
      <point x="585" y="130"/>
      <point x="545" y="130" type="curve" smooth="yes"/>
    </contour>
    <contour>
      <point x="208" y="130" type="line" smooth="yes"/>
      <point x="144" y="130"/>
      <point x="111" y="166"/>
      <point x="111" y="229" type="curve" smooth="yes"/>
      <point x="111" y="344" type="line" smooth="yes"/>
      <point x="111" y="362"/>
      <point x="114" y="377"/>
      <point x="119" y="390" type="curve"/>
      <point x="339" y="165" type="line"/>
      <point x="323" y="142"/>
      <point x="296" y="130"/>
      <point x="259" y="130" type="curve" smooth="yes"/>
    </contour>
    <contour>
      <point x="-2" y="623" type="line" smooth="yes"/>
      <point x="-11" y="623"/>
      <point x="-14" y="619"/>
      <point x="-14" y="612" type="curve" smooth="yes"/>
      <point x="-14" y="593" type="line" smooth="yes"/>
      <point x="-14" y="585"/>
      <point x="-11" y="581"/>
      <point x="-2" y="581" type="curve" smooth="yes"/>
      <point x="634" y="581" type="line" smooth="yes"/>
      <point x="641" y="581"/>
      <point x="644" y="578"/>
      <point x="644" y="572" type="curve" smooth="yes"/>
      <point x="644" y="227" type="line" smooth="yes"/>
      <point x="644" y="220"/>
      <point x="644" y="213"/>
      <point x="643" y="207" type="curve"/>
      <point x="433" y="421" type="line"/>
      <point x="449" y="436"/>
      <point x="472" y="443"/>
      <point x="501" y="443" type="curve" smooth="yes"/>
      <point x="557" y="443" type="line" smooth="yes"/>
      <point x="566" y="443"/>
      <point x="569" y="447"/>
      <point x="569" y="454" type="curve" smooth="yes"/>
      <point x="569" y="474" type="line" smooth="yes"/>
      <point x="569" y="482"/>
      <point x="566" y="486"/>
      <point x="557" y="486" type="curve" smooth="yes"/>
      <point x="498" y="486" type="line" smooth="yes"/>
      <point x="411" y="486"/>
      <point x="357" y="433"/>
      <point x="356" y="345" type="curve"/>
      <point x="356" y="229" type="line" smooth="yes"/>
      <point x="356" y="219"/>
      <point x="355" y="209"/>
      <point x="353" y="200" type="curve"/>
      <point x="139" y="420" type="line"/>
      <point x="155" y="435"/>
      <point x="178" y="443"/>
      <point x="208" y="443" type="curve" smooth="yes"/>
      <point x="265" y="443" type="line" smooth="yes"/>
      <point x="273" y="443"/>
      <point x="277" y="447"/>
      <point x="277" y="454" type="curve" smooth="yes"/>
      <point x="277" y="474" type="line" smooth="yes"/>
      <point x="277" y="482"/>
      <point x="273" y="486"/>
      <point x="265" y="486" type="curve" smooth="yes"/>
      <point x="205" y="486" type="line" smooth="yes"/>
      <point x="118" y="486"/>
      <point x="64" y="433"/>
      <point x="64" y="345" type="curve" smooth="yes"/>
      <point x="64" y="228" type="line" smooth="yes"/>
      <point x="64" y="140"/>
      <point x="119" y="87"/>
      <point x="205" y="87" type="curve" smooth="yes"/>
      <point x="257" y="87" type="line" smooth="yes"/>
      <point x="311" y="87"/>
      <point x="353" y="109"/>
      <point x="376" y="149" type="curve"/>
      <point x="399" y="110"/>
      <point x="442" y="88"/>
      <point x="498" y="88" type="curve" smooth="yes"/>
      <point x="541" y="88" type="line" smooth="yes"/>
      <point x="588" y="88"/>
      <point x="623" y="102"/>
      <point x="640" y="134" type="curve"/>
      <point x="644" y="134" type="line"/>
      <point x="644" y="12" type="line" smooth="yes"/>
      <point x="644" y="3"/>
      <point x="648" y="0"/>
      <point x="655" y="0" type="curve" smooth="yes"/>
      <point x="681" y="0" type="line" smooth="yes"/>
      <point x="688" y="0"/>
      <point x="692" y="3"/>
      <point x="692" y="12" type="curve" smooth="yes"/>
      <point x="692" y="572" type="line" smooth="yes"/>
      <point x="692" y="578"/>
      <point x="694" y="581"/>
      <point x="702" y="581" type="curve" smooth="yes"/>
      <point x="786" y="581" type="line" smooth="yes"/>
      <point x="795" y="581"/>
      <point x="798" y="585"/>
      <point x="798" y="593" type="curve" smooth="yes"/>
      <point x="798" y="612" type="line" smooth="yes"/>
      <point x="798" y="619"/>
      <point x="795" y="623"/>
      <point x="786" y="623" type="curve" smooth="yes"/>
    </contour>
  </outline>
</glyph>
<glyph name="dvB_BHA" format="2">
  <advance width="764"/>
  <outline>
    <contour>
      <point x="208" y="130" type="line" smooth="yes"/>
      <point x="144" y="130"/>
      <point x="111" y="166"/>
      <point x="111" y="229" type="curve" smooth="yes"/>
      <point x="111" y="344" type="line" smooth="yes"/>
      <point x="111" y="361"/>
      <point x="114" y="377"/>
      <point x="119" y="390" type="curve"/>
      <point x="336" y="166" type="line"/>
      <point x="320" y="143"/>
      <point x="292" y="130"/>
      <point x="255" y="130" type="curve" smooth="yes"/>
    </contour>
    <contour>
      <point x="536" y="623" type="line" smooth="yes"/>
      <point x="527" y="623"/>
      <point x="522" y="619"/>
      <point x="522" y="612" type="curve" smooth="yes"/>
      <point x="522" y="593" type="line" smooth="yes"/>
      <point x="522" y="585"/>
      <point x="527" y="581"/>
      <point x="536" y="581" type="curve" smooth="yes"/>
      <point x="614" y="581" type="line" smooth="yes"/>
      <point x="622" y="581"/>
      <point x="624" y="578"/>
      <point x="624" y="572" type="curve" smooth="yes"/>
      <point x="624" y="355" type="line" smooth="yes"/>
      <point x="624" y="349"/>
      <point x="622" y="346"/>
      <point x="614" y="346" type="curve" smooth="yes"/>
      <point x="410" y="346" type="line" smooth="yes"/>
      <point x="404" y="346"/>
      <point x="401" y="348"/>
      <point x="401" y="356" type="curve" smooth="yes"/>
      <point x="401" y="505" type="line" smooth="yes"/>
      <point x="401" y="582"/>
      <point x="356" y="623"/>
      <point x="279" y="623" type="curve" smooth="yes"/>
      <point x="-2" y="623" type="line" smooth="yes"/>
      <point x="-11" y="623"/>
      <point x="-14" y="619"/>
      <point x="-14" y="612" type="curve" smooth="yes"/>
      <point x="-14" y="593" type="line" smooth="yes"/>
      <point x="-14" y="585"/>
      <point x="-11" y="581"/>
      <point x="-2" y="581" type="curve" smooth="yes"/>
      <point x="279" y="581" type="line" smooth="yes"/>
      <point x="322" y="581"/>
      <point x="353" y="560"/>
      <point x="353" y="504" type="curve" smooth="yes"/>
      <point x="353" y="227" type="line" smooth="yes"/>
      <point x="353" y="218"/>
      <point x="352" y="209"/>
      <point x="351" y="201" type="curve"/>
      <point x="139" y="420" type="line"/>
      <point x="155" y="435"/>
      <point x="178" y="443"/>
      <point x="208" y="443" type="curve" smooth="yes"/>
      <point x="265" y="443" type="line" smooth="yes"/>
      <point x="273" y="443"/>
      <point x="277" y="447"/>
      <point x="277" y="454" type="curve" smooth="yes"/>
      <point x="277" y="474" type="line" smooth="yes"/>
      <point x="277" y="482"/>
      <point x="273" y="486"/>
      <point x="265" y="486" type="curve" smooth="yes"/>
      <point x="205" y="486" type="line" smooth="yes"/>
      <point x="118" y="486"/>
      <point x="64" y="433"/>
      <point x="64" y="345" type="curve" smooth="yes"/>
      <point x="64" y="228" type="line" smooth="yes"/>
      <point x="64" y="140"/>
      <point x="119" y="88"/>
      <point x="205" y="88" type="curve" smooth="yes"/>
      <point x="259" y="88" type="line" smooth="yes"/>
      <point x="347" y="88"/>
      <point x="400" y="142"/>
      <point x="401" y="224" type="curve" smooth="yes"/>
      <point x="401" y="225" type="line"/>
      <point x="401" y="294" type="line" smooth="yes"/>
      <point x="401" y="299"/>
      <point x="403" y="303"/>
      <point x="410" y="303" type="curve" smooth="yes"/>
      <point x="624" y="303" type="line"/>
      <point x="624" y="12" type="line" smooth="yes"/>
      <point x="624" y="3"/>
      <point x="628" y="0"/>
      <point x="635" y="0" type="curve" smooth="yes"/>
      <point x="661" y="0" type="line" smooth="yes"/>
      <point x="668" y="0"/>
      <point x="672" y="3"/>
      <point x="672" y="12" type="curve" smooth="yes"/>
      <point x="672" y="572" type="line" smooth="yes"/>
      <point x="672" y="578"/>
      <point x="675" y="581"/>
      <point x="682" y="581" type="curve" smooth="yes"/>
      <point x="766" y="581" type="line" smooth="yes"/>
      <point x="775" y="581"/>
      <point x="778" y="585"/>
      <point x="778" y="593" type="curve" smooth="yes"/>
      <point x="778" y="612" type="line" smooth="yes"/>
      <point x="778" y="619"/>
      <point x="775" y="623"/>
      <point x="766" y="623" type="curve" smooth="yes"/>
    </contour>
  </outline>
</glyph>
<glyph name="dvB_BH_RA" format="2">
  <advance width="764"/>
  <outline>
    <contour>
      <point x="208" y="130" type="line" smooth="yes"/>
      <point x="144" y="130"/>
      <point x="111" y="166"/>
      <point x="111" y="229" type="curve" smooth="yes"/>
      <point x="111" y="344" type="line" smooth="yes"/>
      <point x="111" y="362"/>
      <point x="114" y="378"/>
      <point x="119" y="391" type="curve"/>
      <point x="337" y="169" type="line"/>
      <point x="321" y="144"/>
      <point x="294" y="130"/>
      <point x="255" y="130" type="curve" smooth="yes"/>
    </contour>
    <contour>
      <point x="536" y="623" type="line" smooth="yes"/>
      <point x="527" y="623"/>
      <point x="522" y="619"/>
      <point x="522" y="612" type="curve" smooth="yes"/>
      <point x="522" y="593" type="line" smooth="yes"/>
      <point x="522" y="585"/>
      <point x="527" y="581"/>
      <point x="536" y="581" type="curve" smooth="yes"/>
      <point x="614" y="581" type="line" smooth="yes"/>
      <point x="621" y="581"/>
      <point x="624" y="578"/>
      <point x="624" y="572" type="curve" smooth="yes"/>
      <point x="624" y="355" type="line" smooth="yes"/>
      <point x="624" y="349"/>
      <point x="621" y="346"/>
      <point x="614" y="346" type="curve" smooth="yes"/>
      <point x="409" y="346" type="line" smooth="yes"/>
      <point x="404" y="346"/>
      <point x="401" y="348"/>
      <point x="401" y="356" type="curve" smooth="yes"/>
      <point x="401" y="505" type="line" smooth="yes"/>
      <point x="401" y="582"/>
      <point x="355" y="623"/>
      <point x="279" y="623" type="curve" smooth="yes"/>
      <point x="-2" y="623" type="line" smooth="yes"/>
      <point x="-11" y="623"/>
      <point x="-14" y="619"/>
      <point x="-14" y="612" type="curve" smooth="yes"/>
      <point x="-14" y="593" type="line" smooth="yes"/>
      <point x="-14" y="585"/>
      <point x="-11" y="581"/>
      <point x="-2" y="581" type="curve" smooth="yes"/>
      <point x="279" y="581" type="line" smooth="yes"/>
      <point x="322" y="581"/>
      <point x="352" y="560"/>
      <point x="352" y="504" type="curve" smooth="yes"/>
      <point x="352" y="225" type="line"/>
      <point x="352" y="224" type="line"/>
      <point x="352" y="224" type="line"/>
      <point x="352" y="218"/>
      <point x="351" y="211"/>
      <point x="350" y="206" type="curve"/>
      <point x="140" y="421" type="line"/>
      <point x="156" y="436"/>
      <point x="179" y="443"/>
      <point x="208" y="443" type="curve" smooth="yes"/>
      <point x="264" y="443" type="line" smooth="yes"/>
      <point x="273" y="443"/>
      <point x="276" y="447"/>
      <point x="276" y="454" type="curve" smooth="yes"/>
      <point x="276" y="474" type="line" smooth="yes"/>
      <point x="276" y="482"/>
      <point x="273" y="486"/>
      <point x="264" y="486" type="curve" smooth="yes"/>
      <point x="205" y="486" type="line" smooth="yes"/>
      <point x="118" y="486"/>
      <point x="64" y="433"/>
      <point x="63" y="345" type="curve"/>
      <point x="63" y="228" type="line" smooth="yes"/>
      <point x="63" y="140"/>
      <point x="119" y="88"/>
      <point x="205" y="88" type="curve" smooth="yes"/>
      <point x="261" y="88" type="line" smooth="yes"/>
      <point x="350" y="88"/>
      <point x="400" y="143"/>
      <point x="401" y="224" type="curve" smooth="yes"/>
      <point x="401" y="225" type="line"/>
      <point x="401" y="294" type="line" smooth="yes"/>
      <point x="401" y="299"/>
      <point x="403" y="303"/>
      <point x="410" y="303" type="curve" smooth="yes"/>
      <point x="624" y="303" type="line"/>
      <point x="624" y="292" type="line"/>
      <point x="377" y="12" type="line"/>
      <point x="374" y="8"/>
      <point x="373" y="5"/>
      <point x="373" y="2" type="curve" smooth="yes"/>
      <point x="373" y="-2"/>
      <point x="377" y="-6"/>
      <point x="383" y="-6" type="curve" smooth="yes"/>
      <point x="411" y="-6" type="line" smooth="yes"/>
      <point x="419" y="-6"/>
      <point x="424" y="-3"/>
      <point x="430" y="4" type="curve" smooth="yes"/>
      <point x="624" y="228" type="line"/>
      <point x="624" y="12" type="line" smooth="yes"/>
      <point x="624" y="3"/>
      <point x="628" y="0"/>
      <point x="635" y="0" type="curve" smooth="yes"/>
      <point x="661" y="0" type="line" smooth="yes"/>
      <point x="668" y="0"/>
      <point x="672" y="3"/>
      <point x="672" y="12" type="curve" smooth="yes"/>
      <point x="672" y="572" type="line" smooth="yes"/>
      <point x="672" y="578"/>
      <point x="674" y="581"/>
      <point x="682" y="581" type="curve" smooth="yes"/>
      <point x="766" y="581" type="line" smooth="yes"/>
      <point x="775" y="581"/>
      <point x="778" y="585"/>
      <point x="778" y="593" type="curve" smooth="yes"/>
      <point x="778" y="612" type="line" smooth="yes"/>
      <point x="778" y="619"/>
      <point x="775" y="623"/>
      <point x="766" y="623" type="curve" smooth="yes"/>
    </contour>
  </outline>
</glyph>
<glyph name="dvB_DA" format="2">
  <advance width="775"/>
  <outline>
    <contour>
      <point x="208" y="130" type="line" smooth="yes"/>
      <point x="144" y="130"/>
      <point x="111" y="166"/>
      <point x="111" y="229" type="curve" smooth="yes"/>
      <point x="111" y="344" type="line" smooth="yes"/>
      <point x="111" y="362"/>
      <point x="114" y="377"/>
      <point x="119" y="390" type="curve"/>
      <point x="339" y="165" type="line"/>
      <point x="323" y="142"/>
      <point x="296" y="130"/>
      <point x="259" y="130" type="curve" smooth="yes"/>
    </contour>
    <contour>
      <point x="-2" y="623" type="line" smooth="yes"/>
      <point x="-11" y="623"/>
      <point x="-14" y="619"/>
      <point x="-14" y="612" type="curve" smooth="yes"/>
      <point x="-14" y="593" type="line" smooth="yes"/>
      <point x="-14" y="585"/>
      <point x="-11" y="581"/>
      <point x="-2" y="581" type="curve" smooth="yes"/>
      <point x="630" y="581" type="line" smooth="yes"/>
      <point x="637" y="581"/>
      <point x="639" y="578"/>
      <point x="639" y="572" type="curve" smooth="yes"/>
      <point x="639" y="472" type="line" smooth="yes"/>
      <point x="639" y="466"/>
      <point x="637" y="463"/>
      <point x="630" y="463" type="curve" smooth="yes"/>
      <point x="496" y="463" type="line" smooth="yes"/>
      <point x="409" y="463"/>
      <point x="356" y="409"/>
      <point x="356" y="320" type="curve" smooth="yes"/>
      <point x="356" y="229" type="line" smooth="yes"/>
      <point x="356" y="219"/>
      <point x="355" y="209"/>
      <point x="353" y="200" type="curve"/>
      <point x="139" y="420" type="line"/>
      <point x="155" y="435"/>
      <point x="178" y="443"/>
      <point x="208" y="443" type="curve" smooth="yes"/>
      <point x="265" y="443" type="line" smooth="yes"/>
      <point x="273" y="443"/>
      <point x="277" y="447"/>
      <point x="277" y="454" type="curve" smooth="yes"/>
      <point x="277" y="474" type="line" smooth="yes"/>
      <point x="277" y="482"/>
      <point x="273" y="486"/>
      <point x="265" y="486" type="curve" smooth="yes"/>
      <point x="205" y="486" type="line" smooth="yes"/>
      <point x="118" y="486"/>
      <point x="64" y="433"/>
      <point x="64" y="345" type="curve" smooth="yes"/>
      <point x="64" y="228" type="line" smooth="yes"/>
      <point x="64" y="140"/>
      <point x="119" y="87"/>
      <point x="205" y="87" type="curve" smooth="yes"/>
      <point x="257" y="87" type="line" smooth="yes"/>
      <point x="311" y="87"/>
      <point x="353" y="109"/>
      <point x="376" y="148" type="curve"/>
      <point x="398" y="109"/>
      <point x="440" y="86"/>
      <point x="497" y="86" type="curve" smooth="yes"/>
      <point x="567" y="86" type="line" smooth="yes"/>
      <point x="604" y="86"/>
      <point x="635" y="95"/>
      <point x="652" y="121" type="curve"/>
      <point x="656" y="121" type="line"/>
      <point x="656" y="12" type="line" smooth="yes"/>
      <point x="656" y="3"/>
      <point x="660" y="0"/>
      <point x="667" y="0" type="curve" smooth="yes"/>
      <point x="690" y="0" type="line" smooth="yes"/>
      <point x="698" y="0"/>
      <point x="702" y="3"/>
      <point x="702" y="12" type="curve" smooth="yes"/>
      <point x="702" y="244" type="line" smooth="yes"/>
      <point x="702" y="253"/>
      <point x="698" y="256"/>
      <point x="690" y="256" type="curve" smooth="yes"/>
      <point x="667" y="256" type="line" smooth="yes"/>
      <point x="660" y="256"/>
      <point x="656" y="253"/>
      <point x="656" y="244" type="curve" smooth="yes"/>
      <point x="656" y="211" type="line" smooth="yes"/>
      <point x="656" y="156"/>
      <point x="627" y="130"/>
      <point x="572" y="130" type="curve" smooth="yes"/>
      <point x="501" y="130" type="line" smooth="yes"/>
      <point x="437" y="130"/>
      <point x="404" y="166"/>
      <point x="404" y="229" type="curve" smooth="yes"/>
      <point x="404" y="318" type="line" smooth="yes"/>
      <point x="404" y="382"/>
      <point x="437" y="419"/>
      <point x="500" y="419" type="curve" smooth="yes"/>
      <point x="663" y="419" type="line" smooth="yes"/>
      <point x="677" y="419"/>
      <point x="687" y="429"/>
      <point x="687" y="444" type="curve" smooth="yes"/>
      <point x="687" y="572" type="line" smooth="yes"/>
      <point x="687" y="578"/>
      <point x="689" y="581"/>
      <point x="696" y="581" type="curve" smooth="yes"/>
      <point x="779" y="581" type="line" smooth="yes"/>
      <point x="787" y="581"/>
      <point x="791" y="585"/>
      <point x="791" y="593" type="curve" smooth="yes"/>
      <point x="791" y="612" type="line" smooth="yes"/>
      <point x="791" y="619"/>
      <point x="787" y="623"/>
      <point x="779" y="623" type="curve" smooth="yes"/>
    </contour>
  </outline>
</glyph>
<glyph name="dvB_DHA" format="2">
  <advance width="844"/>
  <outline>
    <contour>
      <point x="208" y="132" type="line" smooth="yes"/>
      <point x="144" y="132"/>
      <point x="111" y="167"/>
      <point x="111" y="231" type="curve" smooth="yes"/>
      <point x="111" y="344" type="line" smooth="yes"/>
      <point x="111" y="362"/>
      <point x="114" y="377"/>
      <point x="119" y="390" type="curve"/>
      <point x="338" y="166" type="line"/>
      <point x="323" y="144"/>
      <point x="296" y="132"/>
      <point x="259" y="132" type="curve" smooth="yes"/>
    </contour>
    <contour>
      <point x="614" y="623" type="line" smooth="yes"/>
      <point x="605" y="623"/>
      <point x="602" y="619"/>
      <point x="602" y="612" type="curve" smooth="yes"/>
      <point x="602" y="593" type="line" smooth="yes"/>
      <point x="602" y="585"/>
      <point x="605" y="581"/>
      <point x="614" y="581" type="curve" smooth="yes"/>
      <point x="693" y="581" type="line" smooth="yes"/>
      <point x="701" y="581"/>
      <point x="703" y="578"/>
      <point x="703" y="572" type="curve" smooth="yes"/>
      <point x="703" y="222" type="line" smooth="yes"/>
      <point x="703" y="158"/>
      <point x="669" y="117"/>
      <point x="600" y="117" type="curve" smooth="yes"/>
      <point x="496" y="117" type="line" smooth="yes"/>
      <point x="434" y="117"/>
      <point x="404" y="144"/>
      <point x="404" y="208" type="curve" smooth="yes"/>
      <point x="404" y="250" type="line" smooth="yes"/>
      <point x="404" y="305"/>
      <point x="430" y="334"/>
      <point x="486" y="334" type="curve" smooth="yes"/>
      <point x="548" y="334" type="line" smooth="yes"/>
      <point x="557" y="334"/>
      <point x="560" y="338"/>
      <point x="560" y="345" type="curve" smooth="yes"/>
      <point x="560" y="367" type="line" smooth="yes"/>
      <point x="560" y="374"/>
      <point x="557" y="378"/>
      <point x="548" y="378" type="curve" smooth="yes"/>
      <point x="486" y="378" type="line" smooth="yes"/>
      <point x="432" y="378"/>
      <point x="404" y="407"/>
      <point x="404" y="461" type="curve" smooth="yes"/>
      <point x="404" y="496" type="line" smooth="yes"/>
      <point x="404" y="553"/>
      <point x="426" y="581"/>
      <point x="481" y="581" type="curve" smooth="yes"/>
      <point x="503" y="581" type="line" smooth="yes"/>
      <point x="512" y="581"/>
      <point x="515" y="585"/>
      <point x="515" y="593" type="curve" smooth="yes"/>
      <point x="515" y="612" type="line" smooth="yes"/>
      <point x="515" y="619"/>
      <point x="512" y="623"/>
      <point x="503" y="623" type="curve" smooth="yes"/>
      <point x="-2" y="623" type="line" smooth="yes"/>
      <point x="-11" y="623"/>
      <point x="-14" y="619"/>
      <point x="-14" y="612" type="curve" smooth="yes"/>
      <point x="-14" y="593" type="line" smooth="yes"/>
      <point x="-14" y="585"/>
      <point x="-11" y="581"/>
      <point x="-2" y="581" type="curve" smooth="yes"/>
      <point x="392" y="581" type="line"/>
      <point x="392" y="577" type="line"/>
      <point x="365" y="563"/>
      <point x="356" y="535"/>
      <point x="356" y="494" type="curve" smooth="yes"/>
      <point x="356" y="459" type="line" smooth="yes"/>
      <point x="356" y="407"/>
      <point x="374" y="374"/>
      <point x="419" y="358" type="curve"/>
      <point x="419" y="354" type="line"/>
      <point x="376" y="340"/>
      <point x="357" y="308"/>
      <point x="356" y="256" type="curve"/>
      <point x="356" y="254" type="line"/>
      <point x="356" y="231" type="line" smooth="yes"/>
      <point x="356" y="220"/>
      <point x="355" y="210"/>
      <point x="353" y="200" type="curve"/>
      <point x="139" y="420" type="line"/>
      <point x="155" y="435"/>
      <point x="178" y="443"/>
      <point x="208" y="443" type="curve" smooth="yes"/>
      <point x="261" y="443" type="line" smooth="yes"/>
      <point x="270" y="443"/>
      <point x="274" y="447"/>
      <point x="274" y="454" type="curve" smooth="yes"/>
      <point x="274" y="474" type="line" smooth="yes"/>
      <point x="274" y="482"/>
      <point x="270" y="486"/>
      <point x="261" y="486" type="curve" smooth="yes"/>
      <point x="205" y="486" type="line" smooth="yes"/>
      <point x="118" y="486"/>
      <point x="64" y="433"/>
      <point x="64" y="345" type="curve" smooth="yes"/>
      <point x="64" y="230" type="line" smooth="yes"/>
      <point x="64" y="142"/>
      <point x="119" y="89"/>
      <point x="205" y="89" type="curve" smooth="yes"/>
      <point x="256" y="89" type="line" smooth="yes"/>
      <point x="306" y="89"/>
      <point x="345" y="106"/>
      <point x="369" y="139" type="curve"/>
      <point x="389" y="95"/>
      <point x="433" y="73"/>
      <point x="492" y="73" type="curve" smooth="yes"/>
      <point x="602" y="73" type="line" smooth="yes"/>
      <point x="647" y="73"/>
      <point x="684" y="90"/>
      <point x="699" y="122" type="curve"/>
      <point x="703" y="122" type="line"/>
      <point x="703" y="12" type="line" smooth="yes"/>
      <point x="703" y="3"/>
      <point x="707" y="0"/>
      <point x="714" y="0" type="curve" smooth="yes"/>
      <point x="740" y="0" type="line" smooth="yes"/>
      <point x="747" y="0"/>
      <point x="751" y="3"/>
      <point x="751" y="12" type="curve" smooth="yes"/>
      <point x="751" y="572" type="line" smooth="yes"/>
      <point x="751" y="578"/>
      <point x="754" y="581"/>
      <point x="761" y="581" type="curve" smooth="yes"/>
      <point x="845" y="581" type="line" smooth="yes"/>
      <point x="854" y="581"/>
      <point x="857" y="585"/>
      <point x="857" y="593" type="curve" smooth="yes"/>
      <point x="857" y="612" type="line" smooth="yes"/>
      <point x="857" y="619"/>
      <point x="854" y="623"/>
      <point x="845" y="623" type="curve" smooth="yes"/>
    </contour>
  </outline>
</glyph>
<glyph name="dvB_DH_VA" format="2">
  <advance width="1097"/>
  <outline>
    <contour>
      <point x="208" y="130" type="line" smooth="yes"/>
      <point x="144" y="130"/>
      <point x="111" y="166"/>
      <point x="111" y="229" type="curve" smooth="yes"/>
      <point x="111" y="344" type="line" smooth="yes"/>
      <point x="111" y="362"/>
      <point x="114" y="378"/>
      <point x="119" y="391" type="curve"/>
      <point x="337" y="169" type="line"/>
      <point x="315" y="143"/>
      <point x="295" y="130"/>
      <point x="252" y="130" type="curve" smooth="yes"/>
    </contour>
    <contour>
      <point x="650" y="623" type="line" smooth="yes"/>
      <point x="641" y="623"/>
      <point x="638" y="619"/>
      <point x="638" y="612" type="curve" smooth="yes"/>
      <point x="638" y="593" type="line" smooth="yes"/>
      <point x="638" y="585"/>
      <point x="641" y="581"/>
      <point x="650" y="581" type="curve" smooth="yes"/>
      <point x="948" y="581" type="line" smooth="yes"/>
      <point x="955" y="581"/>
      <point x="958" y="578"/>
      <point x="958" y="572" type="curve" smooth="yes"/>
      <point x="958" y="232" type="line" smooth="yes"/>
      <point x="958" y="172"/>
      <point x="923" y="136"/>
      <point x="859" y="136" type="curve" smooth="yes"/>
      <point x="822" y="136" type="line" smooth="yes"/>
      <point x="758" y="136"/>
      <point x="725" y="171"/>
      <point x="725" y="234" type="curve" smooth="yes"/>
      <point x="725" y="337" type="line" smooth="yes"/>
      <point x="725" y="401"/>
      <point x="759" y="436"/>
      <point x="822" y="436" type="curve" smooth="yes"/>
      <point x="871" y="436" type="line" smooth="yes"/>
      <point x="880" y="436"/>
      <point x="884" y="440"/>
      <point x="884" y="447" type="curve" smooth="yes"/>
      <point x="884" y="469" type="line" smooth="yes"/>
      <point x="884" y="476"/>
      <point x="880" y="480"/>
      <point x="871" y="480" type="curve" smooth="yes"/>
      <point x="818" y="480" type="line" smooth="yes"/>
      <point x="731" y="480"/>
      <point x="677" y="427"/>
      <point x="676" y="339" type="curve"/>
      <point x="676" y="232" type="line" smooth="yes"/>
      <point x="676" y="206"/>
      <point x="681" y="183"/>
      <point x="690" y="164" type="curve"/>
      <point x="668" y="141"/>
      <point x="647" y="125"/>
      <point x="604" y="125" type="curve" smooth="yes"/>
      <point x="500" y="125" type="line" smooth="yes"/>
      <point x="438" y="125"/>
      <point x="408" y="152"/>
      <point x="408" y="215" type="curve" smooth="yes"/>
      <point x="408" y="253" type="line" smooth="yes"/>
      <point x="408" y="308"/>
      <point x="434" y="337"/>
      <point x="490" y="337" type="curve" smooth="yes"/>
      <point x="552" y="337" type="line" smooth="yes"/>
      <point x="561" y="337"/>
      <point x="564" y="341"/>
      <point x="564" y="348" type="curve" smooth="yes"/>
      <point x="564" y="369" type="line" smooth="yes"/>
      <point x="564" y="377"/>
      <point x="561" y="381"/>
      <point x="552" y="381" type="curve" smooth="yes"/>
      <point x="490" y="381" type="line" smooth="yes"/>
      <point x="436" y="381"/>
      <point x="408" y="409"/>
      <point x="408" y="464" type="curve" smooth="yes"/>
      <point x="408" y="496" type="line" smooth="yes"/>
      <point x="408" y="553"/>
      <point x="430" y="581"/>
      <point x="485" y="581" type="curve" smooth="yes"/>
      <point x="517" y="581" type="line" smooth="yes"/>
      <point x="526" y="581"/>
      <point x="529" y="585"/>
      <point x="529" y="593" type="curve" smooth="yes"/>
      <point x="529" y="612" type="line" smooth="yes"/>
      <point x="529" y="619"/>
      <point x="526" y="623"/>
      <point x="517" y="623" type="curve" smooth="yes"/>
      <point x="-2" y="623" type="line" smooth="yes"/>
      <point x="-11" y="623"/>
      <point x="-14" y="619"/>
      <point x="-14" y="612" type="curve" smooth="yes"/>
      <point x="-14" y="593" type="line" smooth="yes"/>
      <point x="-14" y="585"/>
      <point x="-11" y="581"/>
      <point x="-2" y="581" type="curve" smooth="yes"/>
      <point x="396" y="581" type="line"/>
      <point x="396" y="577" type="line"/>
      <point x="369" y="563"/>
      <point x="360" y="535"/>
      <point x="360" y="494" type="curve" smooth="yes"/>
      <point x="360" y="461" type="line" smooth="yes"/>
      <point x="360" y="409"/>
      <point x="378" y="377"/>
      <point x="423" y="361" type="curve"/>
      <point x="423" y="357" type="line"/>
      <point x="379" y="342"/>
      <point x="360" y="308"/>
      <point x="360" y="253" type="curve" smooth="yes"/>
      <point x="360" y="212" type="line" smooth="yes"/>
      <point x="360" y="207"/>
      <point x="360" y="201"/>
      <point x="361" y="196" type="curve"/>
      <point x="360" y="196" type="line"/>
      <point x="140" y="421" type="line"/>
      <point x="156" y="436"/>
      <point x="179" y="443"/>
      <point x="208" y="443" type="curve" smooth="yes"/>
      <point x="264" y="443" type="line" smooth="yes"/>
      <point x="273" y="443"/>
      <point x="276" y="447"/>
      <point x="276" y="454" type="curve" smooth="yes"/>
      <point x="276" y="474" type="line" smooth="yes"/>
      <point x="276" y="482"/>
      <point x="273" y="486"/>
      <point x="264" y="486" type="curve" smooth="yes"/>
      <point x="205" y="486" type="line" smooth="yes"/>
      <point x="118" y="486"/>
      <point x="64" y="433"/>
      <point x="63" y="345" type="curve"/>
      <point x="63" y="228" type="line" smooth="yes"/>
      <point x="63" y="140"/>
      <point x="119" y="88"/>
      <point x="205" y="88" type="curve" smooth="yes"/>
      <point x="251" y="88" type="line" smooth="yes"/>
      <point x="314" y="88"/>
      <point x="349" y="115"/>
      <point x="373" y="146" type="curve"/>
      <point x="394" y="103"/>
      <point x="437" y="81"/>
      <point x="496" y="81" type="curve" smooth="yes"/>
      <point x="606" y="81" type="line" smooth="yes"/>
      <point x="660" y="81"/>
      <point x="692" y="105"/>
      <point x="715" y="129" type="curve"/>
      <point x="740" y="105"/>
      <point x="775" y="92"/>
      <point x="818" y="92" type="curve" smooth="yes"/>
      <point x="855" y="92" type="line" smooth="yes"/>
      <point x="902" y="92"/>
      <point x="937" y="106"/>
      <point x="954" y="138" type="curve"/>
      <point x="958" y="138" type="line"/>
      <point x="958" y="12" type="line" smooth="yes"/>
      <point x="958" y="3"/>
      <point x="962" y="0"/>
      <point x="969" y="0" type="curve" smooth="yes"/>
      <point x="994" y="0" type="line" smooth="yes"/>
      <point x="1001" y="0"/>
      <point x="1005" y="3"/>
      <point x="1005" y="12" type="curve" smooth="yes"/>
      <point x="1005" y="572" type="line" smooth="yes"/>
      <point x="1005" y="578"/>
      <point x="1007" y="581"/>
      <point x="1015" y="581" type="curve" smooth="yes"/>
      <point x="1099" y="581" type="line" smooth="yes"/>
      <point x="1108" y="581"/>
      <point x="1111" y="585"/>
      <point x="1111" y="593" type="curve" smooth="yes"/>
      <point x="1111" y="612" type="line" smooth="yes"/>
      <point x="1111" y="619"/>
      <point x="1108" y="623"/>
      <point x="1099" y="623" type="curve" smooth="yes"/>
    </contour>
  </outline>
</glyph>
<glyph name="dvB_JHA" format="2">
  <advance width="962"/>
  <outline>
    <contour>
      <point x="822" y="286" type="line" smooth="yes"/>
      <point x="822" y="280"/>
      <point x="820" y="277"/>
      <point x="813" y="277" type="curve" smooth="yes"/>
      <point x="484" y="277" type="line" smooth="yes"/>
      <point x="427" y="277"/>
      <point x="404" y="293"/>
      <point x="404" y="343" type="curve" smooth="yes"/>
      <point x="404" y="375" type="line" smooth="yes"/>
      <point x="404" y="426"/>
      <point x="426" y="443"/>
      <point x="484" y="443" type="curve" smooth="yes"/>
      <point x="624" y="443" type="line" smooth="yes"/>
      <point x="638" y="443"/>
      <point x="649" y="452"/>
      <point x="649" y="469" type="curve" smooth="yes"/>
      <point x="649" y="572" type="line" smooth="yes"/>
      <point x="649" y="578"/>
      <point x="652" y="581"/>
      <point x="659" y="581" type="curve" smooth="yes"/>
      <point x="813" y="581" type="line" smooth="yes"/>
      <point x="820" y="581"/>
      <point x="822" y="578"/>
      <point x="822" y="572" type="curve" smooth="yes"/>
    </contour>
    <contour>
      <point x="208" y="130" type="line" smooth="yes"/>
      <point x="144" y="130"/>
      <point x="111" y="166"/>
      <point x="111" y="229" type="curve" smooth="yes"/>
      <point x="111" y="344" type="line" smooth="yes"/>
      <point x="111" y="362"/>
      <point x="114" y="377"/>
      <point x="119" y="390" type="curve"/>
      <point x="339" y="165" type="line"/>
      <point x="323" y="142"/>
      <point x="296" y="130"/>
      <point x="259" y="130" type="curve" smooth="yes"/>
    </contour>
    <contour>
      <point x="-2" y="623" type="line" smooth="yes"/>
      <point x="-11" y="623"/>
      <point x="-14" y="619"/>
      <point x="-14" y="612" type="curve" smooth="yes"/>
      <point x="-14" y="593" type="line" smooth="yes"/>
      <point x="-14" y="585"/>
      <point x="-11" y="581"/>
      <point x="-2" y="581" type="curve" smooth="yes"/>
      <point x="592" y="581" type="line" smooth="yes"/>
      <point x="599" y="581"/>
      <point x="601" y="578"/>
      <point x="601" y="572" type="curve" smooth="yes"/>
      <point x="601" y="496" type="line" smooth="yes"/>
      <point x="601" y="490"/>
      <point x="599" y="487"/>
      <point x="592" y="487" type="curve" smooth="yes"/>
      <point x="482" y="487" type="line" smooth="yes"/>
      <point x="402" y="487"/>
      <point x="356" y="453"/>
      <point x="356" y="378" type="curve" smooth="yes"/>
      <point x="356" y="229" type="line" smooth="yes"/>
      <point x="356" y="219"/>
      <point x="355" y="209"/>
      <point x="353" y="200" type="curve"/>
      <point x="139" y="420" type="line"/>
      <point x="155" y="435"/>
      <point x="178" y="443"/>
      <point x="208" y="443" type="curve" smooth="yes"/>
      <point x="265" y="443" type="line" smooth="yes"/>
      <point x="273" y="443"/>
      <point x="277" y="447"/>
      <point x="277" y="454" type="curve" smooth="yes"/>
      <point x="277" y="474" type="line" smooth="yes"/>
      <point x="277" y="482"/>
      <point x="273" y="486"/>
      <point x="265" y="486" type="curve" smooth="yes"/>
      <point x="205" y="486" type="line" smooth="yes"/>
      <point x="118" y="486"/>
      <point x="64" y="433"/>
      <point x="64" y="345" type="curve" smooth="yes"/>
      <point x="64" y="228" type="line" smooth="yes"/>
      <point x="64" y="140"/>
      <point x="119" y="88"/>
      <point x="205" y="88" type="curve" smooth="yes"/>
      <point x="261" y="88" type="line" smooth="yes"/>
      <point x="348" y="88"/>
      <point x="399" y="139"/>
      <point x="399" y="230" type="curve" smooth="yes"/>
      <point x="399" y="257" type="line"/>
      <point x="421" y="242"/>
      <point x="452" y="234"/>
      <point x="489" y="234" type="curve" smooth="yes"/>
      <point x="558" y="234" type="line" smooth="yes"/>
      <point x="610" y="234"/>
      <point x="631" y="214"/>
      <point x="631" y="166" type="curve" smooth="yes"/>
      <point x="631" y="96" type="line" smooth="yes"/>
      <point x="631" y="45"/>
      <point x="608" y="26"/>
      <point x="550" y="26" type="curve" smooth="yes"/>
      <point x="512" y="26" type="line" smooth="yes"/>
      <point x="457" y="26"/>
      <point x="429" y="41"/>
      <point x="429" y="96" type="curve" smooth="yes"/>
      <point x="429" y="105"/>
      <point x="425" y="108"/>
      <point x="417" y="108" type="curve" smooth="yes"/>
      <point x="394" y="108" type="line" smooth="yes"/>
      <point x="386" y="108"/>
      <point x="382" y="105"/>
      <point x="382" y="96" type="curve" smooth="yes"/>
      <point x="382" y="-88" type="line" smooth="yes"/>
      <point x="382" y="-97"/>
      <point x="386" y="-100"/>
      <point x="394" y="-100" type="curve" smooth="yes"/>
      <point x="417" y="-100" type="line" smooth="yes"/>
      <point x="425" y="-100"/>
      <point x="429" y="-97"/>
      <point x="429" y="-88" type="curve" smooth="yes"/>
      <point x="429" y="14" type="line"/>
      <point x="433" y="14" type="line"/>
      <point x="449" y="-12"/>
      <point x="480" y="-18"/>
      <point x="517" y="-18" type="curve" smooth="yes"/>
      <point x="553" y="-18" type="line" smooth="yes"/>
      <point x="634" y="-18"/>
      <point x="679" y="19"/>
      <point x="679" y="94" type="curve" smooth="yes"/>
      <point x="679" y="170" type="line" smooth="yes"/>
      <point x="679" y="198"/>
      <point x="671" y="221"/>
      <point x="654" y="234" type="curve"/>
      <point x="813" y="234" type="line" smooth="yes"/>
      <point x="820" y="234"/>
      <point x="822" y="230"/>
      <point x="822" y="224" type="curve" smooth="yes"/>
      <point x="822" y="12" type="line" smooth="yes"/>
      <point x="822" y="3"/>
      <point x="826" y="0"/>
      <point x="834" y="0" type="curve" smooth="yes"/>
      <point x="859" y="0" type="line" smooth="yes"/>
      <point x="866" y="0"/>
      <point x="870" y="3"/>
      <point x="870" y="12" type="curve" smooth="yes"/>
      <point x="870" y="572" type="line" smooth="yes"/>
      <point x="870" y="578"/>
      <point x="873" y="581"/>
      <point x="880" y="581" type="curve" smooth="yes"/>
      <point x="964" y="581" type="line" smooth="yes"/>
      <point x="973" y="581"/>
      <point x="976" y="585"/>
      <point x="976" y="593" type="curve" smooth="yes"/>
      <point x="976" y="612" type="line" smooth="yes"/>
      <point x="976" y="619"/>
      <point x="973" y="623"/>
      <point x="964" y="623" type="curve" smooth="yes"/>
    </contour>
  </outline>
</glyph>
<glyph name="dvB_JxA" format="2">
  <advance width="883"/>
  <outline>
    <contour>
      <point x="425" y="8" type="line" smooth="yes"/>
      <point x="418" y="8"/>
      <point x="414" y="5"/>
      <point x="414" y="-4" type="curve" smooth="yes"/>
      <point x="414" y="-37" type="line" smooth="yes"/>
      <point x="414" y="-46"/>
      <point x="418" y="-49"/>
      <point x="425" y="-49" type="curve" smooth="yes"/>
      <point x="456" y="-49" type="line" smooth="yes"/>
      <point x="463" y="-49"/>
      <point x="467" y="-46"/>
      <point x="467" y="-37" type="curve" smooth="yes"/>
      <point x="467" y="-4" type="line" smooth="yes"/>
      <point x="467" y="5"/>
      <point x="463" y="8"/>
      <point x="456" y="8" type="curve" smooth="yes"/>
    </contour>
    <contour>
      <point x="111" y="321" type="line" smooth="yes"/>
      <point x="111" y="341"/>
      <point x="114" y="358"/>
      <point x="121" y="372" type="curve"/>
      <point x="344" y="114" type="line"/>
      <point x="208" y="114" type="line" smooth="yes"/>
      <point x="144" y="114"/>
      <point x="111" y="149"/>
      <point x="111" y="213" type="curve" smooth="yes"/>
    </contour>
    <contour>
      <point x="-2" y="623" type="line" smooth="yes"/>
      <point x="-11" y="623"/>
      <point x="-14" y="619"/>
      <point x="-14" y="612" type="curve" smooth="yes"/>
      <point x="-14" y="593" type="line" smooth="yes"/>
      <point x="-14" y="585"/>
      <point x="-11" y="581"/>
      <point x="-2" y="581" type="curve" smooth="yes"/>
      <point x="734" y="581" type="line" smooth="yes"/>
      <point x="741" y="581"/>
      <point x="743" y="578"/>
      <point x="743" y="572" type="curve" smooth="yes"/>
      <point x="743" y="429" type="line" smooth="yes"/>
      <point x="743" y="423"/>
      <point x="741" y="420"/>
      <point x="733" y="420" type="curve" smooth="yes"/>
      <point x="419" y="420" type="line" smooth="yes"/>
      <point x="410" y="420"/>
      <point x="407" y="416"/>
      <point x="407" y="409" type="curve" smooth="yes"/>
      <point x="407" y="386" type="line" smooth="yes"/>
      <point x="407" y="379"/>
      <point x="410" y="375"/>
      <point x="419" y="375" type="curve" smooth="yes"/>
      <point x="478" y="375" type="line" smooth="yes"/>
      <point x="527" y="375"/>
      <point x="567" y="354"/>
      <point x="567" y="281" type="curve" smooth="yes"/>
      <point x="567" y="209" type="line" smooth="yes"/>
      <point x="567" y="138"/>
      <point x="532" y="114"/>
      <point x="478" y="114" type="curve" smooth="yes"/>
      <point x="393" y="114" type="line"/>
      <point x="144" y="402" type="line"/>
      <point x="160" y="414"/>
      <point x="181" y="420"/>
      <point x="208" y="420" type="curve" smooth="yes"/>
      <point x="264" y="420" type="line" smooth="yes"/>
      <point x="273" y="420"/>
      <point x="276" y="424"/>
      <point x="276" y="431" type="curve" smooth="yes"/>
      <point x="276" y="453" type="line" smooth="yes"/>
      <point x="276" y="460"/>
      <point x="273" y="465"/>
      <point x="264" y="465" type="curve" smooth="yes"/>
      <point x="205" y="465" type="line" smooth="yes"/>
      <point x="118" y="465"/>
      <point x="64" y="412"/>
      <point x="63" y="324" type="curve"/>
      <point x="63" y="210" type="line" smooth="yes"/>
      <point x="63" y="122"/>
      <point x="119" y="70"/>
      <point x="205" y="70" type="curve" smooth="yes"/>
      <point x="485" y="70" type="line" smooth="yes"/>
      <point x="562" y="70"/>
      <point x="614" y="112"/>
      <point x="614" y="206" type="curve" smooth="yes"/>
      <point x="614" y="282" type="line" smooth="yes"/>
      <point x="614" y="325"/>
      <point x="602" y="356"/>
      <point x="573" y="371" type="curve"/>
      <point x="573" y="375" type="line"/>
      <point x="733" y="375" type="line" smooth="yes"/>
      <point x="741" y="375"/>
      <point x="743" y="372"/>
      <point x="743" y="366" type="curve" smooth="yes"/>
      <point x="743" y="12" type="line" smooth="yes"/>
      <point x="743" y="3"/>
      <point x="747" y="0"/>
      <point x="754" y="0" type="curve" smooth="yes"/>
      <point x="780" y="0" type="line" smooth="yes"/>
      <point x="787" y="0"/>
      <point x="791" y="3"/>
      <point x="791" y="12" type="curve" smooth="yes"/>
      <point x="791" y="572" type="line" smooth="yes"/>
      <point x="791" y="578"/>
      <point x="794" y="581"/>
      <point x="801" y="581" type="curve" smooth="yes"/>
      <point x="885" y="581" type="line" smooth="yes"/>
      <point x="894" y="581"/>
      <point x="897" y="585"/>
      <point x="897" y="593" type="curve" smooth="yes"/>
      <point x="897" y="612" type="line" smooth="yes"/>
      <point x="897" y="619"/>
      <point x="894" y="623"/>
      <point x="885" y="623" type="curve" smooth="yes"/>
    </contour>
  </outline>
</glyph>
<glyph name="dvB_L_YA" format="2">
  <advance width="480"/>
  <outline>
    <contour>
      <point x="1178" y="259" type="line" smooth="yes"/>
      <point x="1178" y="190"/>
      <point x="1137" y="147"/>
      <point x="1063" y="147" type="curve" smooth="yes"/>
      <point x="983" y="147" type="line" smooth="yes"/>
      <point x="909" y="147"/>
      <point x="869" y="187"/>
      <point x="869" y="258" type="curve" smooth="yes"/>
      <point x="869" y="323" type="line"/>
      <point x="890" y="323" type="line" smooth="yes"/>
      <point x="969" y="323"/>
      <point x="1018" y="359"/>
      <point x="1018" y="449" type="curve" smooth="yes"/>
      <point x="1018" y="492" type="line" smooth="yes"/>
      <point x="1018" y="533"/>
      <point x="1007" y="563"/>
      <point x="983" y="577" type="curve"/>
      <point x="983" y="581" type="line"/>
      <point x="1168" y="581" type="line" smooth="yes"/>
      <point x="1175" y="581"/>
      <point x="1178" y="578"/>
      <point x="1178" y="572" type="curve" smooth="yes"/>
    </contour>
    <contour>
      <point x="208" y="130" type="line" smooth="yes"/>
      <point x="144" y="130"/>
      <point x="111" y="166"/>
      <point x="111" y="229" type="curve" smooth="yes"/>
      <point x="111" y="344" type="line" smooth="yes"/>
      <point x="111" y="362"/>
      <point x="114" y="377"/>
      <point x="119" y="390" type="curve"/>
      <point x="339" y="165" type="line"/>
      <point x="323" y="142"/>
      <point x="296" y="130"/>
      <point x="259" y="130" type="curve" smooth="yes"/>
    </contour>
    <contour>
      <point x="-2" y="623" type="line" smooth="yes"/>
      <point x="-11" y="623"/>
      <point x="-14" y="619"/>
      <point x="-14" y="612" type="curve" smooth="yes"/>
      <point x="-14" y="593" type="line" smooth="yes"/>
      <point x="-14" y="585"/>
      <point x="-11" y="581"/>
      <point x="-2" y="581" type="curve" smooth="yes"/>
      <point x="885" y="581" type="line" smooth="yes"/>
      <point x="948" y="581"/>
      <point x="971" y="555"/>
      <point x="971" y="495" type="curve" smooth="yes"/>
      <point x="971" y="454" type="line" smooth="yes"/>
      <point x="971" y="387"/>
      <point x="945" y="366"/>
      <point x="885" y="366" type="curve" smooth="yes"/>
      <point x="863" y="366" type="line"/>
      <point x="855" y="439"/>
      <point x="793" y="468"/>
      <point x="729" y="468" type="curve" smooth="yes"/>
      <point x="673" y="468"/>
      <point x="631" y="450"/>
      <point x="614" y="402" type="curve"/>
      <point x="610" y="402" type="line"/>
      <point x="594" y="451"/>
      <point x="550" y="469"/>
      <point x="495" y="469" type="curve" smooth="yes"/>
      <point x="411" y="469"/>
      <point x="356" y="424"/>
      <point x="356" y="328" type="curve" smooth="yes"/>
      <point x="356" y="229" type="line" smooth="yes"/>
      <point x="356" y="219"/>
      <point x="355" y="209"/>
      <point x="353" y="200" type="curve"/>
      <point x="139" y="420" type="line"/>
      <point x="155" y="435"/>
      <point x="178" y="443"/>
      <point x="208" y="443" type="curve" smooth="yes"/>
      <point x="265" y="443" type="line" smooth="yes"/>
      <point x="273" y="443"/>
      <point x="277" y="447"/>
      <point x="277" y="454" type="curve" smooth="yes"/>
      <point x="277" y="474" type="line" smooth="yes"/>
      <point x="277" y="482"/>
      <point x="273" y="486"/>
      <point x="265" y="486" type="curve" smooth="yes"/>
      <point x="205" y="486" type="line" smooth="yes"/>
      <point x="118" y="486"/>
      <point x="64" y="433"/>
      <point x="64" y="345" type="curve" smooth="yes"/>
      <point x="64" y="228" type="line" smooth="yes"/>
      <point x="64" y="140"/>
      <point x="119" y="87"/>
      <point x="205" y="87" type="curve" smooth="yes"/>
      <point x="257" y="87" type="line" smooth="yes"/>
      <point x="306" y="87"/>
      <point x="344" y="104"/>
      <point x="368" y="137" type="curve"/>
      <point x="389" y="87"/>
      <point x="435" y="63"/>
      <point x="498" y="63" type="curve" smooth="yes"/>
      <point x="549" y="63" type="line" smooth="yes"/>
      <point x="558" y="63"/>
      <point x="561" y="67"/>
      <point x="561" y="75" type="curve" smooth="yes"/>
      <point x="561" y="96" type="line" smooth="yes"/>
      <point x="561" y="104"/>
      <point x="558" y="107"/>
      <point x="549" y="107" type="curve" smooth="yes"/>
      <point x="501" y="107" type="line" smooth="yes"/>
      <point x="438" y="107"/>
      <point x="404" y="134"/>
      <point x="404" y="206" type="curve" smooth="yes"/>
      <point x="404" y="325" type="line" smooth="yes"/>
      <point x="404" y="397"/>
      <point x="436" y="424"/>
      <point x="497" y="424" type="curve" smooth="yes"/>
      <point x="556" y="424"/>
      <point x="589" y="399"/>
      <point x="589" y="329" type="curve" smooth="yes"/>
      <point x="589" y="240" type="line" smooth="yes"/>
      <point x="589" y="231"/>
      <point x="593" y="228"/>
      <point x="600" y="228" type="curve" smooth="yes"/>
      <point x="625" y="228" type="line" smooth="yes"/>
      <point x="632" y="228"/>
      <point x="636" y="231"/>
      <point x="636" y="240" type="curve" smooth="yes"/>
      <point x="636" y="327" type="line" smooth="yes"/>
      <point x="636" y="401"/>
      <point x="669" y="424"/>
      <point x="729" y="424" type="curve" smooth="yes"/>
      <point x="791" y="424"/>
      <point x="822" y="396"/>
      <point x="822" y="330" type="curve" smooth="yes"/>
      <point x="822" y="258" type="line" smooth="yes"/>
      <point x="822" y="167"/>
      <point x="881" y="104"/>
      <point x="980" y="104" type="curve" smooth="yes"/>
      <point x="1063" y="104" type="line" smooth="yes"/>
      <point x="1114" y="104"/>
      <point x="1156" y="123"/>
      <point x="1174" y="157" type="curve"/>
      <point x="1178" y="157" type="line"/>
      <point x="1178" y="12" type="line" smooth="yes"/>
      <point x="1178" y="3"/>
      <point x="1182" y="0"/>
      <point x="1189" y="0" type="curve" smooth="yes"/>
      <point x="1215" y="0" type="line" smooth="yes"/>
      <point x="1222" y="0"/>
      <point x="1226" y="3"/>
      <point x="1226" y="12" type="curve" smooth="yes"/>
      <point x="1226" y="572" type="line" smooth="yes"/>
      <point x="1226" y="578"/>
      <point x="1229" y="581"/>
      <point x="1236" y="581" type="curve" smooth="yes"/>
      <point x="1320" y="581" type="line" smooth="yes"/>
      <point x="1329" y="581"/>
      <point x="1332" y="585"/>
      <point x="1332" y="593" type="curve" smooth="yes"/>
      <point x="1332" y="612" type="line" smooth="yes"/>
      <point x="1332" y="619"/>
      <point x="1329" y="623"/>
      <point x="1320" y="623" type="curve" smooth="yes"/>
    </contour>
  </outline>
</glyph>
<glyph name="dvB_SA" format="2">
  <advance width="897"/>
  <outline>
    <contour>
      <point x="758" y="334" type="line" smooth="yes"/>
      <point x="758" y="328"/>
      <point x="755" y="324"/>
      <point x="748" y="324" type="curve" smooth="yes"/>
      <point x="520" y="324" type="line"/>
      <point x="520" y="328" type="line"/>
      <point x="544" y="343"/>
      <point x="557" y="376"/>
      <point x="557" y="420" type="curve" smooth="yes"/>
      <point x="557" y="572" type="line" smooth="yes"/>
      <point x="557" y="578"/>
      <point x="559" y="581"/>
      <point x="566" y="581" type="curve" smooth="yes"/>
      <point x="748" y="581" type="line" smooth="yes"/>
      <point x="755" y="581"/>
      <point x="758" y="578"/>
      <point x="758" y="572" type="curve" smooth="yes"/>
    </contour>
    <contour>
      <point x="208" y="130" type="line" smooth="yes"/>
      <point x="144" y="130"/>
      <point x="111" y="166"/>
      <point x="111" y="229" type="curve" smooth="yes"/>
      <point x="111" y="344" type="line" smooth="yes"/>
      <point x="111" y="362"/>
      <point x="114" y="377"/>
      <point x="119" y="390" type="curve"/>
      <point x="339" y="165" type="line"/>
      <point x="323" y="142"/>
      <point x="296" y="130"/>
      <point x="259" y="130" type="curve" smooth="yes"/>
    </contour>
    <contour>
      <point x="-2" y="623" type="line" smooth="yes"/>
      <point x="-11" y="623"/>
      <point x="-14" y="619"/>
      <point x="-14" y="612" type="curve" smooth="yes"/>
      <point x="-14" y="593" type="line" smooth="yes"/>
      <point x="-14" y="585"/>
      <point x="-11" y="581"/>
      <point x="-2" y="581" type="curve" smooth="yes"/>
      <point x="499" y="581" type="line" smooth="yes"/>
      <point x="506" y="581"/>
      <point x="508" y="578"/>
      <point x="508" y="572" type="curve" smooth="yes"/>
      <point x="508" y="413" type="line" smooth="yes"/>
      <point x="508" y="348"/>
      <point x="472" y="324"/>
      <point x="429" y="324" type="curve" smooth="yes"/>
      <point x="369" y="324" type="line" smooth="yes"/>
      <point x="360" y="324"/>
      <point x="356" y="319"/>
      <point x="356" y="312" type="curve" smooth="yes"/>
      <point x="356" y="229" type="line" smooth="yes"/>
      <point x="356" y="219"/>
      <point x="355" y="209"/>
      <point x="353" y="200" type="curve"/>
      <point x="139" y="420" type="line"/>
      <point x="155" y="435"/>
      <point x="178" y="443"/>
      <point x="208" y="443" type="curve" smooth="yes"/>
      <point x="265" y="443" type="line" smooth="yes"/>
      <point x="273" y="443"/>
      <point x="277" y="447"/>
      <point x="277" y="454" type="curve" smooth="yes"/>
      <point x="277" y="474" type="line" smooth="yes"/>
      <point x="277" y="482"/>
      <point x="273" y="486"/>
      <point x="265" y="486" type="curve" smooth="yes"/>
      <point x="205" y="486" type="line" smooth="yes"/>
      <point x="118" y="486"/>
      <point x="64" y="433"/>
      <point x="64" y="345" type="curve" smooth="yes"/>
      <point x="64" y="228" type="line" smooth="yes"/>
      <point x="64" y="140"/>
      <point x="119" y="87"/>
      <point x="205" y="87" type="curve" smooth="yes"/>
      <point x="257" y="87" type="line" smooth="yes"/>
      <point x="340" y="87"/>
      <point x="393" y="138"/>
      <point x="394" y="227" type="curve"/>
      <point x="519" y="10" type="line"/>
      <point x="523" y="4"/>
      <point x="526" y="0"/>
      <point x="534" y="0" type="curve" smooth="yes"/>
      <point x="562" y="0" type="line" smooth="yes"/>
      <point x="569" y="0"/>
      <point x="573" y="3"/>
      <point x="573" y="9" type="curve" smooth="yes"/>
      <point x="573" y="14"/>
      <point x="569" y="20"/>
      <point x="567" y="22" type="curve"/>
      <point x="417" y="280" type="line"/>
      <point x="748" y="280" type="line" smooth="yes"/>
      <point x="755" y="280"/>
      <point x="758" y="277"/>
      <point x="758" y="271" type="curve" smooth="yes"/>
      <point x="758" y="12" type="line" smooth="yes"/>
      <point x="758" y="3"/>
      <point x="762" y="0"/>
      <point x="769" y="0" type="curve" smooth="yes"/>
      <point x="794" y="0" type="line" smooth="yes"/>
      <point x="802" y="0"/>
      <point x="806" y="3"/>
      <point x="806" y="12" type="curve" smooth="yes"/>
      <point x="806" y="572" type="line" smooth="yes"/>
      <point x="806" y="578"/>
      <point x="808" y="581"/>
      <point x="815" y="581" type="curve" smooth="yes"/>
      <point x="899" y="581" type="line" smooth="yes"/>
      <point x="909" y="581"/>
      <point x="912" y="585"/>
      <point x="912" y="593" type="curve" smooth="yes"/>
      <point x="912" y="612" type="line" smooth="yes"/>
      <point x="912" y="619"/>
      <point x="909" y="623"/>
      <point x="899" y="623" type="curve" smooth="yes"/>
    </contour>
  </outline>
</glyph>
<glyph name="dvB_TA" format="2">
  <advance width="786"/>
  <outline>
    <contour>
      <point x="208" y="130" type="line" smooth="yes"/>
      <point x="144" y="130"/>
      <point x="111" y="166"/>
      <point x="111" y="229" type="curve" smooth="yes"/>
      <point x="111" y="344" type="line" smooth="yes"/>
      <point x="111" y="362"/>
      <point x="114" y="377"/>
      <point x="119" y="390" type="curve"/>
      <point x="339" y="165" type="line"/>
      <point x="323" y="142"/>
      <point x="296" y="130"/>
      <point x="259" y="130" type="curve" smooth="yes"/>
    </contour>
    <contour>
      <point x="-2" y="623" type="line" smooth="yes"/>
      <point x="-11" y="623"/>
      <point x="-14" y="619"/>
      <point x="-14" y="612" type="curve" smooth="yes"/>
      <point x="-14" y="593" type="line" smooth="yes"/>
      <point x="-14" y="585"/>
      <point x="-11" y="581"/>
      <point x="-2" y="581" type="curve" smooth="yes"/>
      <point x="637" y="581" type="line" smooth="yes"/>
      <point x="644" y="581"/>
      <point x="646" y="578"/>
      <point x="646" y="572" type="curve" smooth="yes"/>
      <point x="646" y="424" type="line" smooth="yes"/>
      <point x="646" y="418"/>
      <point x="644" y="415"/>
      <point x="637" y="415" type="curve" smooth="yes"/>
      <point x="491" y="415" type="line" smooth="yes"/>
      <point x="411" y="415"/>
      <point x="356" y="374"/>
      <point x="356" y="276" type="curve" smooth="yes"/>
      <point x="356" y="229" type="line" smooth="yes"/>
      <point x="356" y="219"/>
      <point x="355" y="209"/>
      <point x="353" y="200" type="curve"/>
      <point x="139" y="420" type="line"/>
      <point x="155" y="435"/>
      <point x="178" y="443"/>
      <point x="208" y="443" type="curve" smooth="yes"/>
      <point x="265" y="443" type="line" smooth="yes"/>
      <point x="273" y="443"/>
      <point x="277" y="447"/>
      <point x="277" y="454" type="curve" smooth="yes"/>
      <point x="277" y="474" type="line" smooth="yes"/>
      <point x="277" y="482"/>
      <point x="273" y="486"/>
      <point x="265" y="486" type="curve" smooth="yes"/>
      <point x="205" y="486" type="line" smooth="yes"/>
      <point x="118" y="486"/>
      <point x="64" y="433"/>
      <point x="64" y="345" type="curve" smooth="yes"/>
      <point x="64" y="228" type="line" smooth="yes"/>
      <point x="64" y="140"/>
      <point x="119" y="87"/>
      <point x="205" y="87" type="curve" smooth="yes"/>
      <point x="257" y="87" type="line" smooth="yes"/>
      <point x="298" y="87"/>
      <point x="333" y="100"/>
      <point x="357" y="123" type="curve"/>
      <point x="363" y="37"/>
      <point x="419" y="0"/>
      <point x="495" y="0" type="curve" smooth="yes"/>
      <point x="514" y="0" type="line" smooth="yes"/>
      <point x="523" y="0"/>
      <point x="527" y="4"/>
      <point x="527" y="11" type="curve" smooth="yes"/>
      <point x="527" y="32" type="line" smooth="yes"/>
      <point x="527" y="39"/>
      <point x="523" y="43"/>
      <point x="514" y="43" type="curve" smooth="yes"/>
      <point x="501" y="43" type="line" smooth="yes"/>
      <point x="449" y="43"/>
      <point x="404" y="64"/>
      <point x="404" y="138" type="curve" smooth="yes"/>
      <point x="404" y="275" type="line" smooth="yes"/>
      <point x="404" y="348"/>
      <point x="443" y="370"/>
      <point x="494" y="370" type="curve" smooth="yes"/>
      <point x="637" y="370" type="line" smooth="yes"/>
      <point x="644" y="370"/>
      <point x="646" y="367"/>
      <point x="646" y="361" type="curve" smooth="yes"/>
      <point x="646" y="12" type="line" smooth="yes"/>
      <point x="646" y="3"/>
      <point x="650" y="0"/>
      <point x="658" y="0" type="curve" smooth="yes"/>
      <point x="683" y="0" type="line" smooth="yes"/>
      <point x="690" y="0"/>
      <point x="694" y="3"/>
      <point x="694" y="12" type="curve" smooth="yes"/>
      <point x="694" y="572" type="line" smooth="yes"/>
      <point x="694" y="578"/>
      <point x="697" y="581"/>
      <point x="704" y="581" type="curve" smooth="yes"/>
      <point x="788" y="581" type="line" smooth="yes"/>
      <point x="797" y="581"/>
      <point x="800" y="585"/>
      <point x="800" y="593" type="curve" smooth="yes"/>
      <point x="800" y="612" type="line" smooth="yes"/>
      <point x="800" y="619"/>
      <point x="797" y="623"/>
      <point x="788" y="623" type="curve" smooth="yes"/>
    </contour>
  </outline>
</glyph>
<glyph name="dvCH_R" format="2">
  <advance width="581"/>
  <outline>
    <contour>
      <point x="322" y="-132" type="line" smooth="yes"/>
      <point x="317" y="-125"/>
      <point x="313" y="-121"/>
      <point x="304" y="-121" type="curve" smooth="yes"/>
      <point x="282" y="-121" type="line" smooth="yes"/>
      <point x="276" y="-121"/>
      <point x="272" y="-125"/>
      <point x="272" y="-130" type="curve" smooth="yes"/>
      <point x="272" y="-133"/>
      <point x="273" y="-135"/>
      <point x="275" y="-137" type="curve"/>
      <point x="361" y="-270" type="line" smooth="yes"/>
      <point x="365" y="-276"/>
      <point x="370" y="-280"/>
      <point x="378" y="-280" type="curve" smooth="yes"/>
      <point x="404" y="-280" type="line" smooth="yes"/>
      <point x="411" y="-280"/>
      <point x="415" y="-276"/>
      <point x="415" y="-270" type="curve" smooth="yes"/>
      <point x="415" y="-267"/>
      <point x="414" y="-264"/>
      <point x="412" y="-262" type="curve"/>
    </contour>
    <contour>
      <point x="344" y="433" type="line" smooth="yes"/>
      <point x="335" y="433"/>
      <point x="331" y="429"/>
      <point x="331" y="422" type="curve" smooth="yes"/>
      <point x="331" y="403" type="line" smooth="yes"/>
      <point x="331" y="396"/>
      <point x="335" y="392"/>
      <point x="344" y="392" type="curve" smooth="yes"/>
      <point x="381" y="392" type="line" smooth="yes"/>
      <point x="437" y="392"/>
      <point x="461" y="365"/>
      <point x="461" y="308" type="curve" smooth="yes"/>
      <point x="461" y="187" type="line" smooth="yes"/>
      <point x="461" y="123"/>
      <point x="428" y="87"/>
      <point x="364" y="87" type="curve" smooth="yes"/>
      <point x="213" y="87" type="line" smooth="yes"/>
      <point x="150" y="87"/>
      <point x="125" y="114"/>
      <point x="125" y="177" type="curve" smooth="yes"/>
      <point x="125" y="219" type="line" smooth="yes"/>
      <point x="125" y="275"/>
      <point x="150" y="304"/>
      <point x="209" y="304" type="curve" smooth="yes"/>
      <point x="248" y="304" type="line" smooth="yes"/>
      <point x="257" y="304"/>
      <point x="260" y="309"/>
      <point x="260" y="315" type="curve" smooth="yes"/>
      <point x="260" y="337" type="line" smooth="yes"/>
      <point x="260" y="344"/>
      <point x="257" y="348"/>
      <point x="248" y="348" type="curve" smooth="yes"/>
      <point x="207" y="348" type="line" smooth="yes"/>
      <point x="153" y="348"/>
      <point x="125" y="377"/>
      <point x="125" y="431" type="curve" smooth="yes"/>
      <point x="125" y="493" type="line" smooth="yes"/>
      <point x="125" y="552"/>
      <point x="148" y="581"/>
      <point x="205" y="581" type="curve" smooth="yes"/>
      <point x="423" y="581" type="line" smooth="yes"/>
      <point x="430" y="581"/>
      <point x="433" y="578"/>
      <point x="433" y="572" type="curve" smooth="yes"/>
      <point x="433" y="449" type="line" smooth="yes"/>
      <point x="433" y="441"/>
      <point x="432" y="434"/>
      <point x="429" y="428" type="curve"/>
      <point x="416" y="431"/>
      <point x="400" y="433"/>
      <point x="383" y="433" type="curve" smooth="yes"/>
    </contour>
    <contour>
      <point x="-2" y="623" type="line" smooth="yes"/>
      <point x="-11" y="623"/>
      <point x="-14" y="619"/>
      <point x="-14" y="612" type="curve" smooth="yes"/>
      <point x="-14" y="593" type="line" smooth="yes"/>
      <point x="-14" y="585"/>
      <point x="-11" y="582"/>
      <point x="-2" y="581" type="curve"/>
      <point x="113" y="581" type="line"/>
      <point x="113" y="577" type="line"/>
      <point x="87" y="563"/>
      <point x="76" y="535"/>
      <point x="76" y="493" type="curve" smooth="yes"/>
      <point x="76" y="427" type="line" smooth="yes"/>
      <point x="76" y="376"/>
      <point x="95" y="343"/>
      <point x="139" y="328" type="curve"/>
      <point x="139" y="324" type="line"/>
      <point x="95" y="310"/>
      <point x="76" y="275"/>
      <point x="76" y="220" type="curve" smooth="yes"/>
      <point x="76" y="173" type="line" smooth="yes"/>
      <point x="76" y="87"/>
      <point x="125" y="43"/>
      <point x="210" y="43" type="curve" smooth="yes"/>
      <point x="238" y="43" type="line"/>
      <point x="144" y="-81" type="line"/>
      <point x="142" y="-84"/>
      <point x="140" y="-88"/>
      <point x="140" y="-91" type="curve" smooth="yes"/>
      <point x="140" y="-98"/>
      <point x="144" y="-100"/>
      <point x="150" y="-100" type="curve" smooth="yes"/>
      <point x="179" y="-100" type="line" smooth="yes"/>
      <point x="186" y="-100"/>
      <point x="191" y="-96"/>
      <point x="196" y="-90" type="curve"/>
      <point x="290" y="38" type="line"/>
      <point x="295" y="38" type="line"/>
      <point x="390" y="-90" type="line"/>
      <point x="395" y="-96"/>
      <point x="399" y="-100"/>
      <point x="406" y="-100" type="curve" smooth="yes"/>
      <point x="435" y="-100" type="line" smooth="yes"/>
      <point x="442" y="-100"/>
      <point x="446" y="-98"/>
      <point x="446" y="-91" type="curve" smooth="yes"/>
      <point x="446" y="-88"/>
      <point x="444" y="-84"/>
      <point x="442" y="-81" type="curve"/>
      <point x="348" y="43" type="line"/>
      <point x="370" y="43" type="line" smooth="yes"/>
      <point x="457" y="43"/>
      <point x="508" y="101"/>
      <point x="508" y="182" type="curve" smooth="yes"/>
      <point x="508" y="309" type="line" smooth="yes"/>
      <point x="508" y="356"/>
      <point x="494" y="390"/>
      <point x="467" y="410" type="curve"/>
      <point x="476" y="419"/>
      <point x="481" y="433"/>
      <point x="481" y="451" type="curve" smooth="yes"/>
      <point x="481" y="573" type="line" smooth="yes"/>
      <point x="481" y="578"/>
      <point x="484" y="581"/>
      <point x="492" y="581" type="curve" smooth="yes"/>
      <point x="583" y="581" type="line"/>
      <point x="592" y="582"/>
      <point x="595" y="585"/>
      <point x="595" y="593" type="curve" smooth="yes"/>
      <point x="595" y="612" type="line" smooth="yes"/>
      <point x="595" y="619"/>
      <point x="592" y="623"/>
      <point x="583" y="623" type="curve" smooth="yes"/>
    </contour>
  </outline>
</glyph>
<glyph name="dvCH_R_YA" format="2">
  <advance width="1068"/>
  <outline>
    <contour>
      <point x="928" y="247" type="line" smooth="yes"/>
      <point x="928" y="181"/>
      <point x="887" y="135"/>
      <point x="814" y="135" type="curve" smooth="yes"/>
      <point x="760" y="135" type="line" smooth="yes"/>
      <point x="685" y="135"/>
      <point x="649" y="172"/>
      <point x="649" y="255" type="curve"/>
      <point x="669" y="255" type="line" smooth="yes"/>
      <point x="746" y="255"/>
      <point x="800" y="285"/>
      <point x="800" y="371" type="curve" smooth="yes"/>
      <point x="800" y="440"/>
      <point x="758" y="480"/>
      <point x="670" y="480" type="curve" smooth="yes"/>
      <point x="344" y="480" type="line" smooth="yes"/>
      <point x="335" y="480"/>
      <point x="331" y="476"/>
      <point x="331" y="469" type="curve" smooth="yes"/>
      <point x="331" y="449" type="line" smooth="yes"/>
      <point x="331" y="442"/>
      <point x="335" y="438"/>
      <point x="344" y="438" type="curve" smooth="yes"/>
      <point x="381" y="438" type="line" smooth="yes"/>
      <point x="437" y="438"/>
      <point x="461" y="411"/>
      <point x="461" y="355" type="curve" smooth="yes"/>
      <point x="461" y="187" type="line" smooth="yes"/>
      <point x="461" y="123"/>
      <point x="428" y="87"/>
      <point x="364" y="87" type="curve" smooth="yes"/>
      <point x="213" y="87" type="line" smooth="yes"/>
      <point x="150" y="87"/>
      <point x="125" y="114"/>
      <point x="125" y="177" type="curve" smooth="yes"/>
      <point x="125" y="219" type="line" smooth="yes"/>
      <point x="125" y="275"/>
      <point x="150" y="304"/>
      <point x="209" y="304" type="curve" smooth="yes"/>
      <point x="248" y="304" type="line" smooth="yes"/>
      <point x="257" y="304"/>
      <point x="260" y="309"/>
      <point x="260" y="315" type="curve" smooth="yes"/>
      <point x="260" y="337" type="line" smooth="yes"/>
      <point x="260" y="344"/>
      <point x="257" y="348"/>
      <point x="248" y="348" type="curve" smooth="yes"/>
      <point x="207" y="348" type="line" smooth="yes"/>
      <point x="153" y="348"/>
      <point x="125" y="377"/>
      <point x="125" y="431" type="curve" smooth="yes"/>
      <point x="125" y="493" type="line" smooth="yes"/>
      <point x="125" y="552"/>
      <point x="148" y="581"/>
      <point x="205" y="581" type="curve" smooth="yes"/>
      <point x="919" y="581" type="line" smooth="yes"/>
      <point x="926" y="581"/>
      <point x="928" y="578"/>
      <point x="928" y="572" type="curve" smooth="yes"/>
    </contour>
    <contour>
      <point x="-2" y="623" type="line" smooth="yes"/>
      <point x="-11" y="623"/>
      <point x="-14" y="619"/>
      <point x="-14" y="612" type="curve" smooth="yes"/>
      <point x="-14" y="593" type="line" smooth="yes"/>
      <point x="-14" y="585"/>
      <point x="-11" y="582"/>
      <point x="-2" y="581" type="curve"/>
      <point x="113" y="581" type="line"/>
      <point x="113" y="577" type="line"/>
      <point x="87" y="563"/>
      <point x="76" y="535"/>
      <point x="76" y="493" type="curve" smooth="yes"/>
      <point x="76" y="427" type="line" smooth="yes"/>
      <point x="76" y="376"/>
      <point x="95" y="343"/>
      <point x="139" y="328" type="curve"/>
      <point x="139" y="324" type="line"/>
      <point x="95" y="310"/>
      <point x="76" y="275"/>
      <point x="76" y="220" type="curve" smooth="yes"/>
      <point x="76" y="173" type="line" smooth="yes"/>
      <point x="76" y="87"/>
      <point x="125" y="43"/>
      <point x="210" y="43" type="curve" smooth="yes"/>
      <point x="262" y="43" type="line"/>
      <point x="158" y="-94" type="line"/>
      <point x="156" y="-97"/>
      <point x="154" y="-101"/>
      <point x="154" y="-104" type="curve" smooth="yes"/>
      <point x="154" y="-111"/>
      <point x="158" y="-113"/>
      <point x="164" y="-113" type="curve" smooth="yes"/>
      <point x="193" y="-113" type="line" smooth="yes"/>
      <point x="200" y="-113"/>
      <point x="205" y="-109"/>
      <point x="210" y="-103" type="curve"/>
      <point x="304" y="25" type="line"/>
      <point x="309" y="25" type="line"/>
      <point x="404" y="-103" type="line"/>
      <point x="409" y="-109"/>
      <point x="413" y="-113"/>
      <point x="420" y="-113" type="curve" smooth="yes"/>
      <point x="449" y="-113" type="line" smooth="yes"/>
      <point x="456" y="-113"/>
      <point x="460" y="-111"/>
      <point x="460" y="-104" type="curve" smooth="yes"/>
      <point x="460" y="-101"/>
      <point x="458" y="-97"/>
      <point x="456" y="-94" type="curve"/>
      <point x="352" y="43" type="line"/>
      <point x="370" y="43" type="line" smooth="yes"/>
      <point x="457" y="43"/>
      <point x="508" y="101"/>
      <point x="508" y="182" type="curve" smooth="yes"/>
      <point x="508" y="355" type="line" smooth="yes"/>
      <point x="508" y="390"/>
      <point x="501" y="418"/>
      <point x="486" y="438" type="curve"/>
      <point x="671" y="438" type="line" smooth="yes"/>
      <point x="726" y="438"/>
      <point x="753" y="420"/>
      <point x="753" y="371" type="curve" smooth="yes"/>
      <point x="753" y="319"/>
      <point x="727" y="297"/>
      <point x="671" y="297" type="curve" smooth="yes"/>
      <point x="615" y="297" type="line" smooth="yes"/>
      <point x="606" y="297"/>
      <point x="602" y="293"/>
      <point x="602" y="286" type="curve" smooth="yes"/>
      <point x="602" y="248" type="line" smooth="yes"/>
      <point x="602" y="150"/>
      <point x="655" y="92"/>
      <point x="756" y="92" type="curve" smooth="yes"/>
      <point x="813" y="92" type="line" smooth="yes"/>
      <point x="865" y="92"/>
      <point x="907" y="111"/>
      <point x="924" y="146" type="curve"/>
      <point x="928" y="146" type="line"/>
      <point x="928" y="12" type="line" smooth="yes"/>
      <point x="928" y="3"/>
      <point x="932" y="0"/>
      <point x="939" y="0" type="curve" smooth="yes"/>
      <point x="965" y="0" type="line" smooth="yes"/>
      <point x="972" y="0"/>
      <point x="976" y="3"/>
      <point x="976" y="12" type="curve" smooth="yes"/>
      <point x="976" y="572" type="line" smooth="yes"/>
      <point x="976" y="578"/>
      <point x="979" y="581"/>
      <point x="986" y="581" type="curve" smooth="yes"/>
      <point x="1070" y="581" type="line" smooth="yes"/>
      <point x="1080" y="581"/>
      <point x="1083" y="585"/>
      <point x="1083" y="593" type="curve" smooth="yes"/>
      <point x="1083" y="612" type="line" smooth="yes"/>
      <point x="1083" y="619"/>
      <point x="1080" y="623"/>
      <point x="1070" y="623" type="curve" smooth="yes"/>
    </contour>
  </outline>
</glyph>
<glyph name="dvC_CA" format="2">
  <advance width="868"/>
  <outline>
    <contour>
      <point x="-2" y="623" type="line" smooth="yes"/>
      <point x="-11" y="623"/>
      <point x="-14" y="619"/>
      <point x="-14" y="612" type="curve" smooth="yes"/>
      <point x="-14" y="593" type="line" smooth="yes"/>
      <point x="-14" y="585"/>
      <point x="-11" y="581"/>
      <point x="-2" y="581" type="curve" smooth="yes"/>
      <point x="718" y="581" type="line" smooth="yes"/>
      <point x="725" y="581"/>
      <point x="727" y="578"/>
      <point x="727" y="572" type="curve" smooth="yes"/>
      <point x="727" y="247" type="line" smooth="yes"/>
      <point x="727" y="184"/>
      <point x="691" y="149"/>
      <point x="629" y="149" type="curve" smooth="yes"/>
      <point x="556" y="149" type="line" smooth="yes"/>
      <point x="492" y="149"/>
      <point x="458" y="184"/>
      <point x="458" y="247" type="curve" smooth="yes"/>
      <point x="458" y="291" type="line" smooth="yes"/>
      <point x="458" y="354"/>
      <point x="491" y="390"/>
      <point x="550" y="390" type="curve" smooth="yes"/>
      <point x="615" y="390" type="line" smooth="yes"/>
      <point x="624" y="390"/>
      <point x="627" y="394"/>
      <point x="627" y="401" type="curve" smooth="yes"/>
      <point x="627" y="423" type="line" smooth="yes"/>
      <point x="627" y="430"/>
      <point x="624" y="434"/>
      <point x="615" y="434" type="curve" smooth="yes"/>
      <point x="367" y="434" type="line" smooth="yes"/>
      <point x="358" y="434"/>
      <point x="355" y="430"/>
      <point x="355" y="423" type="curve" smooth="yes"/>
      <point x="355" y="401" type="line" smooth="yes"/>
      <point x="355" y="394"/>
      <point x="358" y="390"/>
      <point x="367" y="390" type="curve" smooth="yes"/>
      <point x="456" y="390" type="line"/>
      <point x="456" y="386" type="line"/>
      <point x="424" y="368"/>
      <point x="410" y="334"/>
      <point x="410" y="290" type="curve" smooth="yes"/>
      <point x="410" y="245" type="line" smooth="yes"/>
      <point x="410" y="228"/>
      <point x="412" y="212"/>
      <point x="416" y="197" type="curve"/>
      <point x="414" y="195" type="line" smooth="yes"/>
      <point x="389" y="169"/>
      <point x="368" y="149"/>
      <point x="321" y="149" type="curve" smooth="yes"/>
      <point x="251" y="149" type="line" smooth="yes"/>
      <point x="188" y="149"/>
      <point x="154" y="184"/>
      <point x="154" y="247" type="curve" smooth="yes"/>
      <point x="154" y="291" type="line" smooth="yes"/>
      <point x="154" y="354"/>
      <point x="186" y="390"/>
      <point x="246" y="390" type="curve" smooth="yes"/>
      <point x="270" y="390" type="line" smooth="yes"/>
      <point x="279" y="390"/>
      <point x="283" y="394"/>
      <point x="283" y="401" type="curve" smooth="yes"/>
      <point x="283" y="423" type="line" smooth="yes"/>
      <point x="283" y="430"/>
      <point x="279" y="434"/>
      <point x="270" y="434" type="curve" smooth="yes"/>
      <point x="34" y="434" type="line" smooth="yes"/>
      <point x="25" y="434"/>
      <point x="22" y="430"/>
      <point x="22" y="423" type="curve" smooth="yes"/>
      <point x="22" y="401" type="line" smooth="yes"/>
      <point x="22" y="394"/>
      <point x="25" y="390"/>
      <point x="34" y="390" type="curve" smooth="yes"/>
      <point x="151" y="390" type="line"/>
      <point x="151" y="386" type="line"/>
      <point x="120" y="368"/>
      <point x="106" y="334"/>
      <point x="106" y="290" type="curve" smooth="yes"/>
      <point x="106" y="245" type="line" smooth="yes"/>
      <point x="106" y="157"/>
      <point x="161" y="105"/>
      <point x="247" y="105" type="curve" smooth="yes"/>
      <point x="321" y="105" type="line" smooth="yes"/>
      <point x="378" y="105"/>
      <point x="413" y="131"/>
      <point x="436" y="156" type="curve"/>
      <point x="460" y="123"/>
      <point x="500" y="105"/>
      <point x="551" y="105" type="curve" smooth="yes"/>
      <point x="624" y="105" type="line" smooth="yes"/>
      <point x="674" y="105"/>
      <point x="707" y="121"/>
      <point x="723" y="153" type="curve"/>
      <point x="727" y="153" type="line"/>
      <point x="727" y="12" type="line" smooth="yes"/>
      <point x="727" y="3"/>
      <point x="732" y="0"/>
      <point x="739" y="0" type="curve" smooth="yes"/>
      <point x="765" y="0" type="line" smooth="yes"/>
      <point x="772" y="0"/>
      <point x="776" y="3"/>
      <point x="776" y="12" type="curve" smooth="yes"/>
      <point x="776" y="572" type="line" smooth="yes"/>
      <point x="776" y="578"/>
      <point x="778" y="581"/>
      <point x="786" y="581" type="curve" smooth="yes"/>
      <point x="870" y="581" type="line" smooth="yes"/>
      <point x="878" y="581"/>
      <point x="882" y="585"/>
      <point x="882" y="593" type="curve" smooth="yes"/>
      <point x="882" y="612" type="line" smooth="yes"/>
      <point x="882" y="619"/>
      <point x="878" y="623"/>
      <point x="870" y="623" type="curve" smooth="yes"/>
    </contour>
  </outline>
</glyph>
<glyph name="dvC_CHA" format="2">
  <advance width="922"/>
  <outline>
    <contour>
      <point x="685" y="433" type="line" smooth="yes"/>
      <point x="676" y="433"/>
      <point x="672" y="429"/>
      <point x="672" y="422" type="curve" smooth="yes"/>
      <point x="672" y="403" type="line" smooth="yes"/>
      <point x="672" y="396"/>
      <point x="676" y="392"/>
      <point x="685" y="392" type="curve" smooth="yes"/>
      <point x="722" y="392" type="line" smooth="yes"/>
      <point x="778" y="392"/>
      <point x="802" y="365"/>
      <point x="802" y="308" type="curve" smooth="yes"/>
      <point x="802" y="187" type="line" smooth="yes"/>
      <point x="802" y="123"/>
      <point x="769" y="87"/>
      <point x="705" y="87" type="curve" smooth="yes"/>
      <point x="554" y="87" type="line" smooth="yes"/>
      <point x="491" y="87"/>
      <point x="466" y="114"/>
      <point x="466" y="177" type="curve" smooth="yes"/>
      <point x="466" y="219" type="line" smooth="yes"/>
      <point x="466" y="275"/>
      <point x="491" y="304"/>
      <point x="550" y="304" type="curve" smooth="yes"/>
      <point x="589" y="304" type="line" smooth="yes"/>
      <point x="598" y="304"/>
      <point x="601" y="309"/>
      <point x="601" y="315" type="curve" smooth="yes"/>
      <point x="601" y="337" type="line" smooth="yes"/>
      <point x="601" y="344"/>
      <point x="598" y="348"/>
      <point x="589" y="348" type="curve" smooth="yes"/>
      <point x="548" y="348" type="line" smooth="yes"/>
      <point x="494" y="348"/>
      <point x="466" y="377"/>
      <point x="466" y="431" type="curve" smooth="yes"/>
      <point x="466" y="493" type="line" smooth="yes"/>
      <point x="466" y="552"/>
      <point x="489" y="581"/>
      <point x="546" y="581" type="curve" smooth="yes"/>
      <point x="764" y="581" type="line" smooth="yes"/>
      <point x="771" y="581"/>
      <point x="774" y="578"/>
      <point x="774" y="572" type="curve" smooth="yes"/>
      <point x="774" y="449" type="line" smooth="yes"/>
      <point x="774" y="441"/>
      <point x="773" y="434"/>
      <point x="770" y="428" type="curve"/>
      <point x="757" y="431"/>
      <point x="741" y="433"/>
      <point x="724" y="433" type="curve" smooth="yes"/>
    </contour>
    <contour>
      <point x="-2" y="623" type="line" smooth="yes"/>
      <point x="-11" y="623"/>
      <point x="-14" y="619"/>
      <point x="-14" y="612" type="curve" smooth="yes"/>
      <point x="-14" y="593" type="line" smooth="yes"/>
      <point x="-14" y="585"/>
      <point x="-11" y="581"/>
      <point x="-2" y="581" type="curve" smooth="yes"/>
      <point x="454" y="581" type="line"/>
      <point x="454" y="577" type="line"/>
      <point x="428" y="563"/>
      <point x="417" y="535"/>
      <point x="417" y="493" type="curve" smooth="yes"/>
      <point x="417" y="427" type="line" smooth="yes"/>
      <point x="417" y="376"/>
      <point x="436" y="343"/>
      <point x="480" y="328" type="curve"/>
      <point x="480" y="324" type="line"/>
      <point x="436" y="310"/>
      <point x="417" y="275"/>
      <point x="417" y="220" type="curve" smooth="yes"/>
      <point x="417" y="194" type="line"/>
      <point x="392" y="169"/>
      <point x="371" y="149"/>
      <point x="324" y="149" type="curve" smooth="yes"/>
      <point x="251" y="149" type="line" smooth="yes"/>
      <point x="188" y="149"/>
      <point x="154" y="184"/>
      <point x="154" y="247" type="curve" smooth="yes"/>
      <point x="154" y="291" type="line" smooth="yes"/>
      <point x="154" y="354"/>
      <point x="186" y="390"/>
      <point x="246" y="390" type="curve" smooth="yes"/>
      <point x="310" y="390" type="line" smooth="yes"/>
      <point x="319" y="390"/>
      <point x="323" y="394"/>
      <point x="323" y="401" type="curve" smooth="yes"/>
      <point x="323" y="423" type="line" smooth="yes"/>
      <point x="323" y="430"/>
      <point x="319" y="434"/>
      <point x="310" y="434" type="curve" smooth="yes"/>
      <point x="34" y="434" type="line" smooth="yes"/>
      <point x="25" y="434"/>
      <point x="22" y="430"/>
      <point x="22" y="423" type="curve" smooth="yes"/>
      <point x="22" y="401" type="line" smooth="yes"/>
      <point x="22" y="394"/>
      <point x="25" y="390"/>
      <point x="34" y="390" type="curve" smooth="yes"/>
      <point x="151" y="390" type="line"/>
      <point x="151" y="386" type="line"/>
      <point x="120" y="368"/>
      <point x="106" y="334"/>
      <point x="106" y="290" type="curve" smooth="yes"/>
      <point x="106" y="245" type="line" smooth="yes"/>
      <point x="106" y="157"/>
      <point x="161" y="105"/>
      <point x="247" y="105" type="curve" smooth="yes"/>
      <point x="324" y="105" type="line" smooth="yes"/>
      <point x="367" y="105"/>
      <point x="398" y="120"/>
      <point x="420" y="138" type="curve"/>
      <point x="432" y="75"/>
      <point x="478" y="43"/>
      <point x="551" y="43" type="curve" smooth="yes"/>
      <point x="711" y="43" type="line" smooth="yes"/>
      <point x="798" y="43"/>
      <point x="849" y="101"/>
      <point x="849" y="182" type="curve" smooth="yes"/>
      <point x="849" y="309" type="line" smooth="yes"/>
      <point x="849" y="356"/>
      <point x="835" y="390"/>
      <point x="808" y="410" type="curve"/>
      <point x="817" y="419"/>
      <point x="822" y="433"/>
      <point x="822" y="451" type="curve" smooth="yes"/>
      <point x="822" y="573" type="line" smooth="yes"/>
      <point x="822" y="578"/>
      <point x="825" y="581"/>
      <point x="833" y="581" type="curve" smooth="yes"/>
      <point x="924" y="581" type="line"/>
      <point x="933" y="582"/>
      <point x="936" y="585"/>
      <point x="936" y="593" type="curve" smooth="yes"/>
      <point x="936" y="612" type="line" smooth="yes"/>
      <point x="936" y="619"/>
      <point x="933" y="623"/>
      <point x="924" y="623" type="curve" smooth="yes"/>
    </contour>
  </outline>
</glyph>
<glyph name="dvC_CH_VA" format="2">
  <advance width="913"/>
  <outline>
    <contour>
      <point x="679" y="466" type="line" smooth="yes"/>
      <point x="670" y="466"/>
      <point x="667" y="462"/>
      <point x="667" y="455" type="curve" smooth="yes"/>
      <point x="667" y="436" type="line" smooth="yes"/>
      <point x="667" y="428"/>
      <point x="670" y="424"/>
      <point x="679" y="424" type="curve" smooth="yes"/>
      <point x="717" y="424" type="line" smooth="yes"/>
      <point x="773" y="424"/>
      <point x="796" y="398"/>
      <point x="796" y="341" type="curve" smooth="yes"/>
      <point x="796" y="251" type="line" smooth="yes"/>
      <point x="796" y="187"/>
      <point x="763" y="152"/>
      <point x="700" y="152" type="curve" smooth="yes"/>
      <point x="548" y="152" type="line" smooth="yes"/>
      <point x="486" y="152"/>
      <point x="460" y="179"/>
      <point x="460" y="241" type="curve" smooth="yes"/>
      <point x="460" y="251" type="line" smooth="yes"/>
      <point x="460" y="308"/>
      <point x="486" y="337"/>
      <point x="544" y="337" type="curve" smooth="yes"/>
      <point x="584" y="337" type="line" smooth="yes"/>
      <point x="592" y="337"/>
      <point x="596" y="341"/>
      <point x="596" y="348" type="curve" smooth="yes"/>
      <point x="596" y="369" type="line" smooth="yes"/>
      <point x="596" y="377"/>
      <point x="592" y="381"/>
      <point x="584" y="381" type="curve" smooth="yes"/>
      <point x="542" y="381" type="line" smooth="yes"/>
      <point x="488" y="381"/>
      <point x="460" y="409"/>
      <point x="460" y="464" type="curve" smooth="yes"/>
      <point x="460" y="493" type="line" smooth="yes"/>
      <point x="460" y="552"/>
      <point x="483" y="581"/>
      <point x="540" y="581" type="curve" smooth="yes"/>
      <point x="755" y="581" type="line" smooth="yes"/>
      <point x="762" y="581"/>
      <point x="765" y="578"/>
      <point x="765" y="572" type="curve" smooth="yes"/>
      <point x="765" y="482" type="line" smooth="yes"/>
      <point x="765" y="474"/>
      <point x="764" y="467"/>
      <point x="762" y="461" type="curve"/>
      <point x="749" y="464"/>
      <point x="734" y="466"/>
      <point x="718" y="466" type="curve" smooth="yes"/>
    </contour>
    <contour>
      <point x="577" y="-54" type="line" smooth="yes"/>
      <point x="512" y="-54"/>
      <point x="487" y="-26"/>
      <point x="487" y="35" type="curve" smooth="yes"/>
      <point x="487" y="77"/>
      <point x="508" y="108"/>
      <point x="564" y="108" type="curve" smooth="yes"/>
      <point x="699" y="108" type="line" smooth="yes"/>
      <point x="724" y="108"/>
      <point x="747" y="113"/>
      <point x="767" y="123" type="curve"/>
      <point x="767" y="45" type="line" smooth="yes"/>
      <point x="767" y="-16"/>
      <point x="735" y="-54"/>
      <point x="669" y="-54" type="curve" smooth="yes"/>
    </contour>
    <contour>
      <point x="-2" y="623" type="line" smooth="yes"/>
      <point x="-11" y="623"/>
      <point x="-14" y="619"/>
      <point x="-14" y="612" type="curve" smooth="yes"/>
      <point x="-14" y="593" type="line" smooth="yes"/>
      <point x="-14" y="585"/>
      <point x="-11" y="581"/>
      <point x="-2" y="581" type="curve" smooth="yes"/>
      <point x="449" y="581" type="line"/>
      <point x="449" y="577" type="line"/>
      <point x="422" y="563"/>
      <point x="412" y="535"/>
      <point x="412" y="493" type="curve" smooth="yes"/>
      <point x="412" y="459" type="line" smooth="yes"/>
      <point x="412" y="409"/>
      <point x="430" y="376"/>
      <point x="475" y="361" type="curve"/>
      <point x="475" y="357" type="line"/>
      <point x="431" y="342"/>
      <point x="412" y="308"/>
      <point x="412" y="252" type="curve" smooth="yes"/>
      <point x="412" y="238" type="line" smooth="yes"/>
      <point x="412" y="221"/>
      <point x="414" y="206"/>
      <point x="417" y="192" type="curve"/>
      <point x="392" y="168"/>
      <point x="371" y="149"/>
      <point x="325" y="149" type="curve" smooth="yes"/>
      <point x="251" y="149" type="line" smooth="yes"/>
      <point x="188" y="149"/>
      <point x="154" y="184"/>
      <point x="154" y="247" type="curve" smooth="yes"/>
      <point x="154" y="291" type="line" smooth="yes"/>
      <point x="154" y="354"/>
      <point x="186" y="390"/>
      <point x="246" y="390" type="curve" smooth="yes"/>
      <point x="308" y="390" type="line" smooth="yes"/>
      <point x="317" y="390"/>
      <point x="320" y="394"/>
      <point x="320" y="401" type="curve" smooth="yes"/>
      <point x="320" y="423" type="line" smooth="yes"/>
      <point x="320" y="430"/>
      <point x="317" y="434"/>
      <point x="308" y="434" type="curve" smooth="yes"/>
      <point x="34" y="434" type="line" smooth="yes"/>
      <point x="25" y="434"/>
      <point x="22" y="430"/>
      <point x="22" y="423" type="curve" smooth="yes"/>
      <point x="22" y="401" type="line" smooth="yes"/>
      <point x="22" y="394"/>
      <point x="25" y="390"/>
      <point x="34" y="390" type="curve" smooth="yes"/>
      <point x="151" y="390" type="line"/>
      <point x="151" y="386" type="line"/>
      <point x="120" y="368"/>
      <point x="106" y="334"/>
      <point x="106" y="290" type="curve" smooth="yes"/>
      <point x="106" y="245" type="line" smooth="yes"/>
      <point x="106" y="157"/>
      <point x="161" y="105"/>
      <point x="247" y="105" type="curve" smooth="yes"/>
      <point x="325" y="105" type="line" smooth="yes"/>
      <point x="379" y="105"/>
      <point x="413" y="128"/>
      <point x="436" y="152" type="curve"/>
      <point x="447" y="138"/>
      <point x="462" y="127"/>
      <point x="479" y="120" type="curve"/>
      <point x="455" y="103"/>
      <point x="439" y="76"/>
      <point x="439" y="32" type="curve" smooth="yes"/>
      <point x="439" y="-52"/>
      <point x="486" y="-97"/>
      <point x="571" y="-97" type="curve" smooth="yes"/>
      <point x="675" y="-97" type="line" smooth="yes"/>
      <point x="760" y="-97"/>
      <point x="814" y="-41"/>
      <point x="814" y="46" type="curve" smooth="yes"/>
      <point x="814" y="161" type="line"/>
      <point x="833" y="187"/>
      <point x="844" y="221"/>
      <point x="844" y="261" type="curve" smooth="yes"/>
      <point x="844" y="341" type="line" smooth="yes"/>
      <point x="844" y="390"/>
      <point x="830" y="424"/>
      <point x="801" y="444" type="curve"/>
      <point x="809" y="453"/>
      <point x="814" y="467"/>
      <point x="814" y="484" type="curve" smooth="yes"/>
      <point x="814" y="573" type="line" smooth="yes"/>
      <point x="814" y="578"/>
      <point x="816" y="581"/>
      <point x="824" y="581" type="curve" smooth="yes"/>
      <point x="918" y="581" type="line"/>
      <point x="927" y="582"/>
      <point x="930" y="585"/>
      <point x="930" y="593" type="curve" smooth="yes"/>
      <point x="930" y="612" type="line" smooth="yes"/>
      <point x="930" y="619"/>
      <point x="927" y="623"/>
      <point x="918" y="623" type="curve" smooth="yes"/>
    </contour>
  </outline>
</glyph>
<glyph name="dvC_NA" format="2">
  <advance width="829"/>
  <outline>
    <contour>
      <point x="-2" y="623" type="line" smooth="yes"/>
      <point x="-11" y="623"/>
      <point x="-14" y="619"/>
      <point x="-14" y="612" type="curve" smooth="yes"/>
      <point x="-14" y="593" type="line" smooth="yes"/>
      <point x="-14" y="585"/>
      <point x="-11" y="581"/>
      <point x="-2" y="581" type="curve" smooth="yes"/>
      <point x="680" y="581" type="line" smooth="yes"/>
      <point x="687" y="581"/>
      <point x="690" y="578"/>
      <point x="690" y="572" type="curve" smooth="yes"/>
      <point x="690" y="374" type="line" smooth="yes"/>
      <point x="690" y="368"/>
      <point x="687" y="365"/>
      <point x="680" y="365" type="curve" smooth="yes"/>
      <point x="498" y="365" type="line" smooth="yes"/>
      <point x="435" y="365"/>
      <point x="401" y="325"/>
      <point x="401" y="263" type="curve" smooth="yes"/>
      <point x="401" y="251"/>
      <point x="402" y="237"/>
      <point x="405" y="224" type="curve"/>
      <point x="381" y="200"/>
      <point x="361" y="180"/>
      <point x="314" y="180" type="curve" smooth="yes"/>
      <point x="251" y="180" type="line" smooth="yes"/>
      <point x="189" y="180"/>
      <point x="154" y="213"/>
      <point x="154" y="276" type="curve" smooth="yes"/>
      <point x="154" y="294" type="line" smooth="yes"/>
      <point x="154" y="356"/>
      <point x="186" y="392"/>
      <point x="246" y="392" type="curve" smooth="yes"/>
      <point x="310" y="392" type="line" smooth="yes"/>
      <point x="319" y="392"/>
      <point x="323" y="396"/>
      <point x="323" y="403" type="curve" smooth="yes"/>
      <point x="323" y="425" type="line" smooth="yes"/>
      <point x="323" y="432"/>
      <point x="319" y="436"/>
      <point x="310" y="436" type="curve" smooth="yes"/>
      <point x="34" y="436" type="line" smooth="yes"/>
      <point x="25" y="436"/>
      <point x="22" y="432"/>
      <point x="22" y="425" type="curve" smooth="yes"/>
      <point x="22" y="403" type="line" smooth="yes"/>
      <point x="22" y="396"/>
      <point x="25" y="392"/>
      <point x="34" y="392" type="curve" smooth="yes"/>
      <point x="151" y="392" type="line"/>
      <point x="151" y="388" type="line"/>
      <point x="120" y="370"/>
      <point x="106" y="336"/>
      <point x="106" y="292" type="curve" smooth="yes"/>
      <point x="106" y="274" type="line" smooth="yes"/>
      <point x="106" y="187"/>
      <point x="161" y="136"/>
      <point x="247" y="136" type="curve" smooth="yes"/>
      <point x="315" y="136" type="line" smooth="yes"/>
      <point x="362" y="136"/>
      <point x="394" y="155"/>
      <point x="417" y="177" type="curve"/>
      <point x="420" y="168"/>
      <point x="423" y="160"/>
      <point x="426" y="153" type="curve"/>
      <point x="430" y="146"/>
      <point x="435" y="143"/>
      <point x="442" y="143" type="curve" smooth="yes"/>
      <point x="463" y="143" type="line" smooth="yes"/>
      <point x="469" y="143"/>
      <point x="473" y="147"/>
      <point x="473" y="152" type="curve" smooth="yes"/>
      <point x="473" y="157"/>
      <point x="471" y="161"/>
      <point x="468" y="170" type="curve" smooth="yes"/>
      <point x="461" y="190"/>
      <point x="449" y="220"/>
      <point x="449" y="258" type="curve" smooth="yes"/>
      <point x="449" y="299"/>
      <point x="468" y="322"/>
      <point x="509" y="322" type="curve" smooth="yes"/>
      <point x="680" y="322" type="line" smooth="yes"/>
      <point x="687" y="322"/>
      <point x="690" y="318"/>
      <point x="690" y="312" type="curve" smooth="yes"/>
      <point x="690" y="12" type="line" smooth="yes"/>
      <point x="690" y="3"/>
      <point x="694" y="0"/>
      <point x="701" y="0" type="curve" smooth="yes"/>
      <point x="726" y="0" type="line" smooth="yes"/>
      <point x="734" y="0"/>
      <point x="738" y="3"/>
      <point x="738" y="12" type="curve" smooth="yes"/>
      <point x="738" y="572" type="line" smooth="yes"/>
      <point x="738" y="578"/>
      <point x="740" y="581"/>
      <point x="747" y="581" type="curve" smooth="yes"/>
      <point x="831" y="581" type="line" smooth="yes"/>
      <point x="841" y="581"/>
      <point x="844" y="585"/>
      <point x="844" y="593" type="curve" smooth="yes"/>
      <point x="844" y="612" type="line" smooth="yes"/>
      <point x="844" y="619"/>
      <point x="841" y="623"/>
      <point x="831" y="623" type="curve" smooth="yes"/>
    </contour>
  </outline>
</glyph>
<glyph name="dvC_YA" format="2">
  <advance width="904"/>
  <outline>
    <contour>
      <point x="764" y="259" type="line" smooth="yes"/>
      <point x="764" y="190"/>
      <point x="723" y="147"/>
      <point x="649" y="147" type="curve" smooth="yes"/>
      <point x="569" y="147" type="line" smooth="yes"/>
      <point x="495" y="147"/>
      <point x="456" y="189"/>
      <point x="456" y="260" type="curve" smooth="yes"/>
      <point x="456" y="351" type="line"/>
      <point x="476" y="351" type="line" smooth="yes"/>
      <point x="555" y="351"/>
      <point x="605" y="387"/>
      <point x="605" y="477" type="curve" smooth="yes"/>
      <point x="605" y="492" type="line" smooth="yes"/>
      <point x="605" y="533"/>
      <point x="593" y="563"/>
      <point x="569" y="577" type="curve"/>
      <point x="569" y="581" type="line"/>
      <point x="754" y="581" type="line" smooth="yes"/>
      <point x="762" y="581"/>
      <point x="764" y="578"/>
      <point x="764" y="572" type="curve" smooth="yes"/>
    </contour>
    <contour>
      <point x="-2" y="623" type="line" smooth="yes"/>
      <point x="-11" y="623"/>
      <point x="-14" y="619"/>
      <point x="-14" y="612" type="curve" smooth="yes"/>
      <point x="-14" y="593" type="line" smooth="yes"/>
      <point x="-14" y="585"/>
      <point x="-11" y="581"/>
      <point x="-2" y="581" type="curve" smooth="yes"/>
      <point x="471" y="581" type="line" smooth="yes"/>
      <point x="534" y="581"/>
      <point x="557" y="555"/>
      <point x="557" y="495" type="curve" smooth="yes"/>
      <point x="557" y="483" type="line" smooth="yes"/>
      <point x="557" y="415"/>
      <point x="531" y="394"/>
      <point x="471" y="394" type="curve" smooth="yes"/>
      <point x="420" y="394" type="line" smooth="yes"/>
      <point x="411" y="394"/>
      <point x="408" y="390"/>
      <point x="408" y="383" type="curve" smooth="yes"/>
      <point x="408" y="260" type="line" smooth="yes"/>
      <point x="408" y="238"/>
      <point x="412" y="217"/>
      <point x="418" y="198" type="curve"/>
      <point x="414" y="194" type="line" smooth="yes"/>
      <point x="389" y="169"/>
      <point x="368" y="149"/>
      <point x="321" y="149" type="curve" smooth="yes"/>
      <point x="251" y="149" type="line" smooth="yes"/>
      <point x="188" y="149"/>
      <point x="154" y="184"/>
      <point x="154" y="247" type="curve" smooth="yes"/>
      <point x="154" y="291" type="line" smooth="yes"/>
      <point x="154" y="354"/>
      <point x="186" y="390"/>
      <point x="246" y="390" type="curve" smooth="yes"/>
      <point x="310" y="390" type="line" smooth="yes"/>
      <point x="319" y="390"/>
      <point x="323" y="394"/>
      <point x="323" y="401" type="curve" smooth="yes"/>
      <point x="323" y="423" type="line" smooth="yes"/>
      <point x="323" y="430"/>
      <point x="319" y="434"/>
      <point x="310" y="434" type="curve" smooth="yes"/>
      <point x="34" y="434" type="line" smooth="yes"/>
      <point x="25" y="434"/>
      <point x="22" y="430"/>
      <point x="22" y="423" type="curve" smooth="yes"/>
      <point x="22" y="401" type="line" smooth="yes"/>
      <point x="22" y="394"/>
      <point x="25" y="390"/>
      <point x="34" y="390" type="curve" smooth="yes"/>
      <point x="151" y="390" type="line"/>
      <point x="151" y="386" type="line"/>
      <point x="120" y="368"/>
      <point x="106" y="334"/>
      <point x="106" y="290" type="curve" smooth="yes"/>
      <point x="106" y="245" type="line" smooth="yes"/>
      <point x="106" y="157"/>
      <point x="161" y="105"/>
      <point x="247" y="105" type="curve" smooth="yes"/>
      <point x="321" y="105" type="line" smooth="yes"/>
      <point x="381" y="105"/>
      <point x="416" y="134"/>
      <point x="439" y="160" type="curve"/>
      <point x="466" y="125"/>
      <point x="510" y="104"/>
      <point x="566" y="104" type="curve" smooth="yes"/>
      <point x="649" y="104" type="line" smooth="yes"/>
      <point x="701" y="104"/>
      <point x="743" y="123"/>
      <point x="760" y="157" type="curve"/>
      <point x="764" y="157" type="line"/>
      <point x="764" y="12" type="line" smooth="yes"/>
      <point x="764" y="3"/>
      <point x="768" y="0"/>
      <point x="775" y="0" type="curve" smooth="yes"/>
      <point x="801" y="0" type="line" smooth="yes"/>
      <point x="808" y="0"/>
      <point x="812" y="3"/>
      <point x="812" y="12" type="curve" smooth="yes"/>
      <point x="812" y="572" type="line" smooth="yes"/>
      <point x="812" y="578"/>
      <point x="815" y="581"/>
      <point x="822" y="581" type="curve" smooth="yes"/>
      <point x="906" y="581" type="line" smooth="yes"/>
      <point x="915" y="581"/>
      <point x="918" y="585"/>
      <point x="918" y="593" type="curve" smooth="yes"/>
      <point x="918" y="612" type="line" smooth="yes"/>
      <point x="918" y="619"/>
      <point x="915" y="623"/>
      <point x="906" y="623" type="curve" smooth="yes"/>
    </contour>
  </outline>
</glyph>
<glyph name="dvDDH_R" format="2">
  <advance width="485"/>
  <outline>
    <contour>
      <point x="289" y="-123" type="line" smooth="yes"/>
      <point x="284" y="-116"/>
      <point x="280" y="-112"/>
      <point x="271" y="-112" type="curve" smooth="yes"/>
      <point x="249" y="-112" type="line" smooth="yes"/>
      <point x="243" y="-112"/>
      <point x="239" y="-116"/>
      <point x="239" y="-121" type="curve" smooth="yes"/>
      <point x="239" y="-124"/>
      <point x="240" y="-126"/>
      <point x="242" y="-128" type="curve"/>
      <point x="328" y="-261" type="line" smooth="yes"/>
      <point x="332" y="-267"/>
      <point x="337" y="-271"/>
      <point x="345" y="-271" type="curve" smooth="yes"/>
      <point x="371" y="-271" type="line" smooth="yes"/>
      <point x="378" y="-271"/>
      <point x="382" y="-267"/>
      <point x="382" y="-261" type="curve" smooth="yes"/>
      <point x="382" y="-258"/>
      <point x="381" y="-255"/>
      <point x="379" y="-253" type="curve"/>
    </contour>
    <contour>
      <point x="-2" y="623" type="line" smooth="yes"/>
      <point x="-11" y="623"/>
      <point x="-14" y="619"/>
      <point x="-14" y="612" type="curve" smooth="yes"/>
      <point x="-14" y="593" type="line" smooth="yes"/>
      <point x="-14" y="585"/>
      <point x="-11" y="581"/>
      <point x="-2" y="581" type="curve" smooth="yes"/>
      <point x="328" y="581" type="line" smooth="yes"/>
      <point x="335" y="581"/>
      <point x="337" y="578"/>
      <point x="337" y="572" type="curve" smooth="yes"/>
      <point x="337" y="454" type="line" smooth="yes"/>
      <point x="337" y="448"/>
      <point x="335" y="445"/>
      <point x="328" y="445" type="curve" smooth="yes"/>
      <point x="209" y="445" type="line" smooth="yes"/>
      <point x="122" y="445"/>
      <point x="69" y="391"/>
      <point x="69" y="302" type="curve" smooth="yes"/>
      <point x="69" y="182" type="line" smooth="yes"/>
      <point x="69" y="95"/>
      <point x="121" y="39"/>
      <point x="209" y="39" type="curve"/>
      <point x="114" y="-86" type="line"/>
      <point x="112" y="-90"/>
      <point x="110" y="-93"/>
      <point x="110" y="-97" type="curve" smooth="yes"/>
      <point x="110" y="-103"/>
      <point x="114" y="-106"/>
      <point x="121" y="-106" type="curve" smooth="yes"/>
      <point x="149" y="-106" type="line" smooth="yes"/>
      <point x="157" y="-106"/>
      <point x="161" y="-102"/>
      <point x="166" y="-95" type="curve" smooth="yes"/>
      <point x="261" y="33" type="line"/>
      <point x="266" y="33" type="line"/>
      <point x="360" y="-95" type="line" smooth="yes"/>
      <point x="365" y="-102"/>
      <point x="370" y="-106"/>
      <point x="377" y="-106" type="curve" smooth="yes"/>
      <point x="406" y="-106" type="line" smooth="yes"/>
      <point x="412" y="-106"/>
      <point x="416" y="-103"/>
      <point x="416" y="-97" type="curve" smooth="yes"/>
      <point x="416" y="-93"/>
      <point x="414" y="-90"/>
      <point x="412" y="-86" type="curve"/>
      <point x="317" y="39" type="line"/>
      <point x="396" y="42"/>
      <point x="437" y="87"/>
      <point x="437" y="169" type="curve" smooth="yes"/>
      <point x="437" y="185" type="line" smooth="yes"/>
      <point x="437" y="260"/>
      <point x="409" y="298"/>
      <point x="336" y="298" type="curve" smooth="yes"/>
      <point x="263" y="298"/>
      <point x="238" y="260"/>
      <point x="238" y="188" type="curve" smooth="yes"/>
      <point x="238" y="173" type="line" smooth="yes"/>
      <point x="238" y="163"/>
      <point x="242" y="160"/>
      <point x="252" y="160" type="curve" smooth="yes"/>
      <point x="271" y="160" type="line" smooth="yes"/>
      <point x="278" y="160"/>
      <point x="282" y="163"/>
      <point x="282" y="172" type="curve" smooth="yes"/>
      <point x="282" y="187" type="line" smooth="yes"/>
      <point x="282" y="237"/>
      <point x="292" y="257"/>
      <point x="337" y="257" type="curve" smooth="yes"/>
      <point x="382" y="257"/>
      <point x="392" y="236"/>
      <point x="392" y="186" type="curve" smooth="yes"/>
      <point x="392" y="171" type="line" smooth="yes"/>
      <point x="392" y="110"/>
      <point x="368" y="82"/>
      <point x="307" y="82" type="curve" smooth="yes"/>
      <point x="213" y="82" type="line" smooth="yes"/>
      <point x="149" y="82"/>
      <point x="116" y="118"/>
      <point x="116" y="181" type="curve" smooth="yes"/>
      <point x="116" y="301" type="line" smooth="yes"/>
      <point x="116" y="365"/>
      <point x="149" y="402"/>
      <point x="212" y="402" type="curve" smooth="yes"/>
      <point x="362" y="402" type="line" smooth="yes"/>
      <point x="375" y="402"/>
      <point x="385" y="411"/>
      <point x="385" y="426" type="curve" smooth="yes"/>
      <point x="385" y="572" type="line" smooth="yes"/>
      <point x="385" y="578"/>
      <point x="388" y="581"/>
      <point x="395" y="581" type="curve" smooth="yes"/>
      <point x="487" y="581" type="line" smooth="yes"/>
      <point x="496" y="581"/>
      <point x="500" y="585"/>
      <point x="500" y="593" type="curve" smooth="yes"/>
      <point x="500" y="612" type="line" smooth="yes"/>
      <point x="500" y="619"/>
      <point x="496" y="623"/>
      <point x="487" y="623" type="curve" smooth="yes"/>
    </contour>
  </outline>
</glyph>
<glyph name="dvDDH_RA" format="2">
  <advance width="485"/>
  <outline>
    <contour>
      <point x="-2" y="623" type="line" smooth="yes"/>
      <point x="-11" y="623"/>
      <point x="-14" y="619"/>
      <point x="-14" y="612" type="curve" smooth="yes"/>
      <point x="-14" y="593" type="line" smooth="yes"/>
      <point x="-14" y="585"/>
      <point x="-11" y="581"/>
      <point x="-2" y="581" type="curve" smooth="yes"/>
      <point x="328" y="581" type="line" smooth="yes"/>
      <point x="335" y="581"/>
      <point x="337" y="578"/>
      <point x="337" y="572" type="curve" smooth="yes"/>
      <point x="337" y="454" type="line" smooth="yes"/>
      <point x="337" y="448"/>
      <point x="335" y="445"/>
      <point x="328" y="445" type="curve" smooth="yes"/>
      <point x="209" y="445" type="line" smooth="yes"/>
      <point x="122" y="445"/>
      <point x="69" y="391"/>
      <point x="69" y="302" type="curve" smooth="yes"/>
      <point x="69" y="182" type="line" smooth="yes"/>
      <point x="69" y="96"/>
      <point x="120" y="40"/>
      <point x="207" y="39" type="curve"/>
      <point x="112" y="-86" type="line"/>
      <point x="110" y="-89"/>
      <point x="108" y="-93"/>
      <point x="108" y="-96" type="curve" smooth="yes"/>
      <point x="108" y="-103"/>
      <point x="112" y="-105"/>
      <point x="118" y="-105" type="curve" smooth="yes"/>
      <point x="147" y="-105" type="line" smooth="yes"/>
      <point x="154" y="-105"/>
      <point x="159" y="-101"/>
      <point x="164" y="-95" type="curve"/>
      <point x="258" y="33" type="line"/>
      <point x="263" y="33" type="line"/>
      <point x="358" y="-95" type="line"/>
      <point x="363" y="-101"/>
      <point x="367" y="-105"/>
      <point x="374" y="-105" type="curve" smooth="yes"/>
      <point x="403" y="-105" type="line" smooth="yes"/>
      <point x="410" y="-105"/>
      <point x="414" y="-103"/>
      <point x="414" y="-96" type="curve" smooth="yes"/>
      <point x="414" y="-93"/>
      <point x="412" y="-89"/>
      <point x="410" y="-86" type="curve"/>
      <point x="315" y="39" type="line"/>
      <point x="396" y="42"/>
      <point x="437" y="87"/>
      <point x="437" y="169" type="curve" smooth="yes"/>
      <point x="437" y="185" type="line" smooth="yes"/>
      <point x="437" y="260"/>
      <point x="409" y="298"/>
      <point x="336" y="298" type="curve" smooth="yes"/>
      <point x="263" y="298"/>
      <point x="238" y="260"/>
      <point x="238" y="188" type="curve" smooth="yes"/>
      <point x="238" y="173" type="line" smooth="yes"/>
      <point x="238" y="163"/>
      <point x="242" y="160"/>
      <point x="252" y="160" type="curve" smooth="yes"/>
      <point x="271" y="160" type="line" smooth="yes"/>
      <point x="278" y="160"/>
      <point x="282" y="163"/>
      <point x="282" y="172" type="curve" smooth="yes"/>
      <point x="282" y="187" type="line" smooth="yes"/>
      <point x="282" y="237"/>
      <point x="292" y="257"/>
      <point x="337" y="257" type="curve" smooth="yes"/>
      <point x="382" y="257"/>
      <point x="392" y="236"/>
      <point x="392" y="186" type="curve" smooth="yes"/>
      <point x="392" y="171" type="line" smooth="yes"/>
      <point x="392" y="110"/>
      <point x="368" y="82"/>
      <point x="307" y="82" type="curve" smooth="yes"/>
      <point x="213" y="82" type="line" smooth="yes"/>
      <point x="149" y="82"/>
      <point x="116" y="118"/>
      <point x="116" y="181" type="curve" smooth="yes"/>
      <point x="116" y="301" type="line" smooth="yes"/>
      <point x="116" y="365"/>
      <point x="149" y="402"/>
      <point x="212" y="402" type="curve" smooth="yes"/>
      <point x="362" y="402" type="line" smooth="yes"/>
      <point x="375" y="402"/>
      <point x="385" y="411"/>
      <point x="385" y="426" type="curve" smooth="yes"/>
      <point x="385" y="572" type="line" smooth="yes"/>
      <point x="385" y="578"/>
      <point x="388" y="581"/>
      <point x="395" y="581" type="curve" smooth="yes"/>
      <point x="487" y="581" type="line" smooth="yes"/>
      <point x="496" y="581"/>
      <point x="500" y="585"/>
      <point x="500" y="593" type="curve" smooth="yes"/>
      <point x="500" y="612" type="line" smooth="yes"/>
      <point x="500" y="619"/>
      <point x="496" y="623"/>
      <point x="487" y="623" type="curve" smooth="yes"/>
    </contour>
  </outline>
</glyph>
